Aleo-LightItalic.ufo
<glyph name="exclam" format="1">
  <advance width="330"/>
  <unicode hex="0021"/>
  <note>
    exclam
  </note>
  <outline>
    <contour>
      <point x="207" y="422" type="curve" smooth="yes"/>
      <point x="243" y="708" type="line"/>
      <point x="196" y="708" type="line"/>
      <point x="161" y="422" type="line" smooth="yes"/>
      <point x="156" y="380"/>
      <point x="148" y="286"/>
      <point x="146" y="244" type="curve"/>
      <point x="179" y="244" type="line"/>
      <point x="188" y="286"/>
      <point x="202" y="380"/>
    </contour>
    <contour>
      <point x="130" y="-8" type="curve" smooth="yes"/>
      <point x="155" y="-8"/>
      <point x="179" y="14"/>
      <point x="181" y="39" type="curve" smooth="yes"/>
      <point x="184" y="63"/>
      <point x="167" y="85"/>
      <point x="141" y="85" type="curve" smooth="yes"/>
      <point x="115" y="85"/>
      <point x="91" y="63"/>
      <point x="89" y="39" type="curve" smooth="yes"/>
      <point x="87" y="14"/>
      <point x="104" y="-8"/>
    </contour>
  </outline>
</glyph>
<glyph name="quotedbl" format="1">
  <advance width="349"/>
  <unicode hex="0022"/>
  <note>
    quotedbl
  </note>
  <outline>
    <contour>
      <point x="116" y="562" type="line"/>
      <point x="134" y="708" type="line"/>
      <point x="93" y="708" type="line"/>
      <point x="75" y="562" type="line"/>
      <point x="70" y="485" type="line"/>
      <point x="70" y="478"/>
      <point x="71" y="467"/>
      <point x="84" y="467" type="curve" smooth="yes"/>
      <point x="94" y="467"/>
      <point x="101" y="476"/>
      <point x="103" y="485" type="curve" smooth="yes"/>
    </contour>
    <contour>
      <point x="261" y="562" type="line"/>
      <point x="279" y="708" type="line"/>
      <point x="238" y="708" type="line"/>
      <point x="220" y="562" type="line"/>
      <point x="215" y="485" type="line"/>
      <point x="215" y="478"/>
      <point x="216" y="467"/>
      <point x="229" y="467" type="curve" smooth="yes"/>
      <point x="239" y="467"/>
      <point x="246" y="476"/>
      <point x="248" y="485" type="curve" smooth="yes"/>
    </contour>
  </outline>
</glyph>
<glyph name="numbersign" format="1">
  <advance width="606"/>
  <unicode hex="0023"/>
  <note>
    numbersign
  </note>
  <outline>
    <contour>
      <point x="298" y="0" type="line"/>
      <point x="372" y="222" type="line"/>
      <point x="502" y="222" type="line"/>
      <point x="507" y="244" type="line"/>
      <point x="508" y="253"/>
      <point x="504" y="256"/>
      <point x="494" y="256" type="curve" smooth="yes"/>
      <point x="381" y="256" type="line"/>
      <point x="446" y="451" type="line"/>
      <point x="538" y="451" type="line" smooth="yes"/>
      <point x="551" y="451"/>
      <point x="560" y="457"/>
      <point x="563" y="468" type="curve" smooth="yes"/>
      <point x="568" y="486" type="line"/>
      <point x="455" y="486" type="line"/>
      <point x="525" y="692" type="line"/>
      <point x="526" y="702"/>
      <point x="521" y="708"/>
      <point x="511" y="708" type="curve" smooth="yes"/>
      <point x="490" y="708" type="line"/>
      <point x="415" y="486" type="line"/>
      <point x="266" y="486" type="line"/>
      <point x="341" y="708" type="line"/>
      <point x="320" y="708" type="line" smooth="yes"/>
      <point x="311" y="708"/>
      <point x="300" y="703"/>
      <point x="295" y="688" type="curve" smooth="yes"/>
      <point x="226" y="486" type="line"/>
      <point x="120" y="486" type="line" smooth="yes"/>
      <point x="107" y="486"/>
      <point x="99" y="481"/>
      <point x="96" y="470" type="curve" smooth="yes"/>
      <point x="91" y="451" type="line"/>
      <point x="217" y="451" type="line"/>
      <point x="152" y="256" type="line"/>
      <point x="43" y="256" type="line"/>
      <point x="38" y="236" type="line"/>
      <point x="37" y="230"/>
      <point x="39" y="222"/>
      <point x="51" y="222" type="curve" smooth="yes"/>
      <point x="143" y="222" type="line"/>
      <point x="69" y="0" type="line"/>
      <point x="90" y="0" type="line" smooth="yes"/>
      <point x="105" y="0"/>
      <point x="109" y="7"/>
      <point x="115" y="20" type="curve"/>
      <point x="183" y="222" type="line"/>
      <point x="332" y="222" type="line"/>
      <point x="263" y="16" type="line"/>
      <point x="261" y="6"/>
      <point x="267" y="0"/>
      <point x="277" y="0" type="curve" smooth="yes"/>
    </contour>
    <contour>
      <point x="341" y="256" type="line"/>
      <point x="192" y="256" type="line"/>
      <point x="257" y="451" type="line"/>
      <point x="406" y="451" type="line"/>
    </contour>
  </outline>
</glyph>
<glyph name="dollar" format="1">
  <advance width="594"/>
  <unicode hex="0024"/>
  <note>
    dollar
  </note>
  <outline>
    <contour>
      <point x="239" y="-8" type="curve"/>
      <point x="218" y="-128" type="line"/>
      <point x="236" y="-128" type="line" smooth="yes"/>
      <point x="246" y="-128"/>
      <point x="250" y="-122"/>
      <point x="252" y="-113" type="curve"/>
      <point x="271" y="-8" type="line"/>
      <point x="402" y="0"/>
      <point x="494" y="81"/>
      <point x="511" y="206" type="curve"/>
      <point x="522" y="315"/>
      <point x="457" y="348"/>
      <point x="339" y="387" type="curve"/>
      <point x="388" y="673" type="line"/>
      <point x="432" y="669"/>
      <point x="474" y="652"/>
      <point x="502" y="624" type="curve" smooth="yes"/>
      <point x="511" y="615"/>
      <point x="521" y="613"/>
      <point x="531" y="624" type="curve"/>
      <point x="544" y="641" type="line"/>
      <point x="506" y="686"/>
      <point x="455" y="709"/>
      <point x="395" y="713" type="curve"/>
      <point x="413" y="814" type="line"/>
      <point x="395" y="814" type="line" smooth="yes"/>
      <point x="387" y="814"/>
      <point x="380" y="806"/>
      <point x="378" y="798" type="curve" smooth="yes"/>
      <point x="363" y="714" type="line"/>
      <point x="255" y="710"/>
      <point x="157" y="642"/>
      <point x="143" y="532" type="curve" smooth="yes"/>
      <point x="130" y="428"/>
      <point x="190" y="385"/>
      <point x="301" y="350" type="curve"/>
      <point x="246" y="32" type="line"/>
      <point x="186" y="34"/>
      <point x="142" y="60"/>
      <point x="96" y="106" type="curve" smooth="yes"/>
      <point x="89" y="113"/>
      <point x="80" y="115"/>
      <point x="71" y="104" type="curve"/>
      <point x="55" y="84" type="line"/>
      <point x="100" y="26"/>
      <point x="164" y="-4"/>
    </contour>
    <contour>
      <point x="465" y="199" type="curve" smooth="yes"/>
      <point x="452" y="101"/>
      <point x="378" y="39"/>
      <point x="278" y="32" type="curve"/>
      <point x="331" y="341" type="line"/>
      <point x="411" y="316"/>
      <point x="476" y="283"/>
    </contour>
    <contour>
      <point x="188" y="536" type="curve" smooth="yes"/>
      <point x="197" y="614"/>
      <point x="267" y="670"/>
      <point x="356" y="674" type="curve"/>
      <point x="308" y="398" type="line"/>
      <point x="230" y="424"/>
      <point x="177" y="460"/>
    </contour>
  </outline>
</glyph>
<glyph name="percent" format="1">
  <advance width="742"/>
  <unicode hex="0025"/>
  <note>
    percent
  </note>
  <outline>
    <contour>
      <point x="352" y="538" type="curve" smooth="yes"/>
      <point x="366" y="637"/>
      <point x="320" y="716"/>
      <point x="225" y="716" type="curve" smooth="yes"/>
      <point x="132" y="716"/>
      <point x="70" y="645"/>
      <point x="55" y="538" type="curve" smooth="yes"/>
      <point x="43" y="443"/>
      <point x="82" y="361"/>
      <point x="182" y="361" type="curve" smooth="yes"/>
      <point x="274" y="361"/>
      <point x="337" y="432"/>
    </contour>
    <contour>
      <point x="314" y="538" type="curve" smooth="yes"/>
      <point x="304" y="453"/>
      <point x="261" y="393"/>
      <point x="186" y="393" type="curve" smooth="yes"/>
      <point x="108" y="393"/>
      <point x="84" y="456"/>
      <point x="93" y="538" type="curve" smooth="yes"/>
      <point x="102" y="613"/>
      <point x="142" y="683"/>
      <point x="221" y="683" type="curve" smooth="yes"/>
      <point x="295" y="683"/>
      <point x="324" y="627"/>
    </contour>
    <contour>
      <point x="641" y="698" type="curve"/>
      <point x="48" y="0" type="line"/>
      <point x="82" y="0" type="line" smooth="yes"/>
      <point x="89" y="0"/>
      <point x="95" y="3"/>
      <point x="100" y="9" type="curve" smooth="yes"/>
      <point x="694" y="708" type="line"/>
      <point x="660" y="708" type="line" smooth="yes"/>
      <point x="653" y="708"/>
      <point x="644" y="703"/>
    </contour>
    <contour>
      <point x="689" y="168" type="curve" smooth="yes"/>
      <point x="703" y="269"/>
      <point x="658" y="346"/>
      <point x="562" y="346" type="curve" smooth="yes"/>
      <point x="467" y="346"/>
      <point x="406" y="273"/>
      <point x="392" y="168" type="curve" smooth="yes"/>
      <point x="379" y="73"/>
      <point x="420" y="-8"/>
      <point x="519" y="-8" type="curve" smooth="yes"/>
      <point x="612" y="-8"/>
      <point x="674" y="62"/>
    </contour>
    <contour>
      <point x="651" y="168" type="curve" smooth="yes"/>
      <point x="641" y="85"/>
      <point x="598" y="24"/>
      <point x="523" y="24" type="curve" smooth="yes"/>
      <point x="446" y="24"/>
      <point x="420" y="87"/>
      <point x="430" y="168" type="curve" smooth="yes"/>
      <point x="438" y="244"/>
      <point x="478" y="314"/>
      <point x="559" y="314" type="curve" smooth="yes"/>
      <point x="632" y="314"/>
      <point x="661" y="257"/>
    </contour>
  </outline>
</glyph>
<glyph name="ampersand" format="1">
  <advance width="672"/>
  <unicode hex="0026"/>
  <note>
    ampersand
  </note>
  <outline>
    <contour>
      <point x="385" y="716" type="curve" smooth="yes"/>
      <point x="284" y="716"/>
      <point x="200" y="650"/>
      <point x="187" y="552" type="curve" smooth="yes"/>
      <point x="179" y="491"/>
      <point x="198" y="448"/>
      <point x="238" y="394" type="curve"/>
      <point x="144" y="360"/>
      <point x="57" y="281"/>
      <point x="43" y="181" type="curve" smooth="yes"/>
      <point x="29" y="75"/>
      <point x="108" y="-8"/>
      <point x="223" y="-8" type="curve" smooth="yes"/>
      <point x="318" y="-8"/>
      <point x="424" y="40"/>
      <point x="489" y="112" type="curve"/>
      <point x="579" y="11" type="line"/>
      <point x="586" y="3"/>
      <point x="593" y="0"/>
      <point x="605" y="0" type="curve" smooth="yes"/>
      <point x="650" y="0" type="line"/>
      <point x="519" y="146" type="line"/>
      <point x="564" y="202"/>
      <point x="597" y="270"/>
      <point x="608" y="338" type="curve"/>
      <point x="580" y="338" type="line" smooth="yes"/>
      <point x="573" y="338"/>
      <point x="568" y="332"/>
      <point x="566" y="324" type="curve" smooth="yes"/>
      <point x="553" y="273"/>
      <point x="526" y="216"/>
      <point x="494" y="174" type="curve"/>
      <point x="298" y="394" type="line" smooth="yes"/>
      <point x="251" y="446"/>
      <point x="225" y="492"/>
      <point x="232" y="553" type="curve" smooth="yes"/>
      <point x="241" y="624"/>
      <point x="300" y="678"/>
      <point x="381" y="678" type="curve" smooth="yes"/>
      <point x="442" y="678"/>
      <point x="485" y="636"/>
      <point x="491" y="580" type="curve"/>
      <point x="492" y="573"/>
      <point x="498" y="567"/>
      <point x="511" y="569" type="curve"/>
      <point x="533" y="574" type="line"/>
      <point x="541" y="654"/>
      <point x="468" y="716"/>
    </contour>
    <contour>
      <point x="92" y="184" type="curve" smooth="yes"/>
      <point x="101" y="263"/>
      <point x="169" y="334"/>
      <point x="258" y="369" type="curve"/>
      <point x="465" y="138" type="line"/>
      <point x="402" y="71"/>
      <point x="324" y="31"/>
      <point x="235" y="31" type="curve" smooth="yes"/>
      <point x="149" y="31"/>
      <point x="81" y="91"/>
    </contour>
  </outline>
</glyph>
<glyph name="quotesingle" format="1">
  <advance width="204"/>
  <unicode hex="0027"/>
  <note>
    quotesingle
  </note>
  <outline>
    <contour>
      <point x="116" y="562" type="line"/>
      <point x="134" y="708" type="line"/>
      <point x="93" y="708" type="line"/>
      <point x="75" y="562" type="line"/>
      <point x="70" y="485" type="line"/>
      <point x="70" y="478"/>
      <point x="71" y="467"/>
      <point x="84" y="467" type="curve" smooth="yes"/>
      <point x="94" y="467"/>
      <point x="101" y="476"/>
      <point x="103" y="485" type="curve" smooth="yes"/>
    </contour>
  </outline>
</glyph>
<glyph name="parenleft" format="1">
  <advance width="309"/>
  <unicode hex="0028"/>
  <note>
    parenleft
  </note>
  <outline>
    <contour>
      <point x="87" y="388"/>
      <point x="150" y="570"/>
      <point x="269" y="729" type="curve" smooth="yes"/>
      <point x="272" y="732"/>
      <point x="278" y="745"/>
      <point x="268" y="750" type="curve"/>
      <point x="249" y="763" type="line"/>
      <point x="115" y="588"/>
      <point x="50" y="423"/>
      <point x="50" y="202" type="curve" smooth="yes"/>
      <point x="50" y="87"/>
      <point x="82" y="-28"/>
      <point x="139" y="-133" type="curve"/>
      <point x="161" y="-120" type="line"/>
      <point x="169" y="-115"/>
      <point x="172" y="-107"/>
      <point x="168" y="-98" type="curve" smooth="yes"/>
      <point x="120" y="-3"/>
      <point x="95" y="97"/>
      <point x="92" y="203" type="curve" smooth="yes"/>
    </contour>
  </outline>
</glyph>
<glyph name="parenright" format="1">
  <advance width="309"/>
  <unicode hex="0029"/>
  <note>
    parenright
  </note>
  <outline>
    <contour>
      <point x="222" y="242"/>
      <point x="159" y="60"/>
      <point x="40" y="-99" type="curve" smooth="yes"/>
      <point x="37" y="-102"/>
      <point x="31" y="-115"/>
      <point x="41" y="-120" type="curve"/>
      <point x="60" y="-133" type="line"/>
      <point x="194" y="42"/>
      <point x="259" y="207"/>
      <point x="259" y="428" type="curve" smooth="yes"/>
      <point x="259" y="543"/>
      <point x="227" y="658"/>
      <point x="170" y="763" type="curve"/>
      <point x="148" y="750" type="line"/>
      <point x="140" y="745"/>
      <point x="137" y="737"/>
      <point x="141" y="728" type="curve" smooth="yes"/>
      <point x="189" y="633"/>
      <point x="214" y="533"/>
      <point x="217" y="427" type="curve" smooth="yes"/>
    </contour>
  </outline>
</glyph>
<glyph name="asterisk" format="1">
  <advance width="425"/>
  <unicode hex="002A"/>
  <note>
    asterisk
  </note>
  <outline>
    <contour>
      <point x="194" y="555" type="curve"/>
      <point x="181" y="448" type="line"/>
      <point x="207" y="448" type="line"/>
      <point x="220" y="556" type="line"/>
      <point x="222" y="565"/>
      <point x="220" y="568"/>
      <point x="217" y="586" type="curve"/>
      <point x="220" y="582"/>
      <point x="230" y="570"/>
      <point x="238" y="565" type="curve" smooth="yes"/>
      <point x="327" y="510" type="line"/>
      <point x="342" y="532" type="line"/>
      <point x="254" y="588" type="line" smooth="yes"/>
      <point x="246" y="593"/>
      <point x="238" y="595"/>
      <point x="226" y="597" type="curve"/>
      <point x="238" y="599"/>
      <point x="241" y="599"/>
      <point x="257" y="608" type="curve"/>
      <point x="357" y="662" type="line"/>
      <point x="347" y="684" type="line"/>
      <point x="246" y="630" type="line" smooth="yes"/>
      <point x="236" y="625"/>
      <point x="228" y="618"/>
      <point x="220" y="608" type="curve"/>
      <point x="226" y="621"/>
      <point x="228" y="626"/>
      <point x="230" y="640" type="curve"/>
      <point x="243" y="746" type="line"/>
      <point x="217" y="746" type="line"/>
      <point x="204" y="639" type="line"/>
      <point x="203" y="630"/>
      <point x="205" y="617"/>
      <point x="208" y="607" type="curve"/>
      <point x="204" y="613"/>
      <point x="195" y="625"/>
      <point x="186" y="630" type="curve" smooth="yes"/>
      <point x="98" y="685" type="line"/>
      <point x="82" y="662" type="line"/>
      <point x="171" y="607" type="line"/>
      <point x="174" y="605"/>
      <point x="186" y="599"/>
      <point x="198" y="597" type="curve"/>
      <point x="193" y="596"/>
      <point x="176" y="592"/>
      <point x="168" y="587" type="curve"/>
      <point x="68" y="532" type="line"/>
      <point x="77" y="510" type="line"/>
      <point x="178" y="565" type="line"/>
      <point x="189" y="571"/>
      <point x="194" y="572"/>
      <point x="204" y="585" type="curve"/>
      <point x="199" y="576"/>
      <point x="197" y="571"/>
    </contour>
  </outline>
</glyph>
<glyph name="plus" format="1">
  <advance width="586"/>
  <unicode hex="002B"/>
  <note>
    plus
  </note>
  <outline>
    <contour>
      <point x="314" y="354" type="line"/>
      <point x="342" y="579" type="line"/>
      <point x="303" y="579" type="line"/>
      <point x="275" y="354" type="line"/>
      <point x="60" y="354" type="line"/>
      <point x="56" y="317" type="line"/>
      <point x="271" y="317" type="line"/>
      <point x="243" y="90" type="line"/>
      <point x="282" y="90" type="line"/>
      <point x="310" y="317" type="line"/>
      <point x="526" y="317" type="line"/>
      <point x="530" y="354" type="line"/>
    </contour>
  </outline>
</glyph>
<glyph name="comma" format="1">
  <advance width="217"/>
  <unicode hex="002C"/>
  <note>
    comma
  </note>
  <outline>
    <contour>
      <point x="73" y="42" type="curve"/>
      <point x="69" y="17"/>
      <point x="85" y="-2"/>
      <point x="110" y="-2" type="curve" smooth="yes"/>
      <point x="116" y="-2"/>
      <point x="122" y="-1"/>
      <point x="125" y="0" type="curve"/>
      <point x="116" y="-35"/>
      <point x="85" y="-83"/>
      <point x="62" y="-101" type="curve"/>
      <point x="55" y="-108"/>
      <point x="53" y="-112"/>
      <point x="59" y="-119" type="curve"/>
      <point x="66" y="-126" type="line"/>
      <point x="113" y="-88"/>
      <point x="153" y="-26"/>
      <point x="161" y="31" type="curve" smooth="yes"/>
      <point x="165" y="62"/>
      <point x="152" y="85"/>
      <point x="122" y="85" type="curve" smooth="yes"/>
      <point x="98" y="85"/>
      <point x="75" y="65"/>
    </contour>
  </outline>
</glyph>
<glyph name="period" format="1">
  <advance width="202"/>
  <unicode hex="002E"/>
  <note>
    period
  </note>
  <outline>
    <contour>
      <point x="96" y="-8" type="curve" smooth="yes"/>
      <point x="121" y="-8"/>
      <point x="145" y="14"/>
      <point x="147" y="39" type="curve" smooth="yes"/>
      <point x="150" y="63"/>
      <point x="133" y="85"/>
      <point x="107" y="85" type="curve" smooth="yes"/>
      <point x="81" y="85"/>
      <point x="57" y="63"/>
      <point x="55" y="39" type="curve" smooth="yes"/>
      <point x="53" y="14"/>
      <point x="70" y="-8"/>
    </contour>
  </outline>
</glyph>
<glyph name="slash" format="1">
  <advance width="507"/>
  <unicode hex="002F"/>
  <note>
    slash
  </note>
  <outline>
    <contour>
      <point x="77" y="-22" type="curve"/>
      <point x="479" y="728" type="line"/>
      <point x="459" y="728" type="line" smooth="yes"/>
      <point x="446" y="728"/>
      <point x="437" y="721"/>
      <point x="430" y="709" type="curve"/>
      <point x="27" y="-42" type="line"/>
      <point x="46" y="-42" type="line" smooth="yes"/>
      <point x="55" y="-42"/>
      <point x="71" y="-36"/>
    </contour>
  </outline>
</glyph>
<glyph name="zero" format="1">
  <advance width="600"/>
  <unicode hex="0030"/>
  <note>
    zero
  </note>
  <outline>
    <contour>
      <point x="553" y="354" type="curve" smooth="yes"/>
      <point x="579" y="552"/>
      <point x="516" y="716"/>
      <point x="344" y="716" type="curve" smooth="yes"/>
      <point x="168" y="716"/>
      <point x="71" y="550"/>
      <point x="46" y="354" type="curve" smooth="yes"/>
      <point x="22" y="163"/>
      <point x="76" y="-8"/>
      <point x="255" y="-8" type="curve" smooth="yes"/>
      <point x="426" y="-8"/>
      <point x="527" y="151"/>
    </contour>
    <contour>
      <point x="503" y="354" type="curve" smooth="yes"/>
      <point x="482" y="179"/>
      <point x="404" y="33"/>
      <point x="260" y="33" type="curve" smooth="yes"/>
      <point x="111" y="33"/>
      <point x="74" y="190"/>
      <point x="95" y="354" type="curve" smooth="yes"/>
      <point x="116" y="515"/>
      <point x="188" y="676"/>
      <point x="339" y="676" type="curve" smooth="yes"/>
      <point x="483" y="676"/>
      <point x="525" y="532"/>
    </contour>
  </outline>
</glyph>
<glyph name="one" format="1">
  <advance width="574"/>
  <unicode hex="0031"/>
  <note>
    one
  </note>
  <outline>
    <contour>
      <point x="103" y="0" type="line"/>
      <point x="468" y="0" type="line"/>
      <point x="470" y="16" type="line" smooth="yes"/>
      <point x="471" y="25"/>
      <point x="466" y="30"/>
      <point x="455" y="31" type="curve"/>
      <point x="318" y="38" type="line"/>
      <point x="400" y="710" type="line"/>
      <point x="363" y="710" type="line"/>
      <point x="137" y="530" type="line"/>
      <point x="149" y="510" type="line"/>
      <point x="154" y="503"/>
      <point x="165" y="502"/>
      <point x="173" y="508" type="curve" smooth="yes"/>
      <point x="346" y="647" type="line"/>
      <point x="341" y="611" type="line"/>
      <point x="270" y="38" type="line"/>
      <point x="270" y="38"/>
      <point x="126" y="31"/>
      <point x="123" y="31" type="curve"/>
      <point x="112" y="30"/>
      <point x="106" y="25"/>
      <point x="105" y="16" type="curve" smooth="yes"/>
    </contour>
  </outline>
</glyph>
<glyph name="two" format="1">
  <advance width="650"/>
  <unicode hex="0032"/>
  <note>
    two
  </note>
  <outline>
    <contour>
      <point x="543" y="134" type="line"/>
      <point x="519" y="134" type="line" smooth="yes"/>
      <point x="505" y="134"/>
      <point x="497" y="126"/>
      <point x="494" y="110" type="curve"/>
      <point x="481" y="45" type="line"/>
      <point x="209" y="45" type="line" smooth="yes"/>
      <point x="193" y="45"/>
      <point x="159" y="42"/>
      <point x="140" y="37" type="curve"/>
      <point x="389" y="263" type="line" smooth="yes"/>
      <point x="491" y="356"/>
      <point x="562" y="423"/>
      <point x="574" y="525" type="curve" smooth="yes"/>
      <point x="589" y="644"/>
      <point x="515" y="715"/>
      <point x="394" y="715" type="curve" smooth="yes"/>
      <point x="273" y="715"/>
      <point x="183" y="642"/>
      <point x="152" y="524" type="curve"/>
      <point x="175" y="520" type="line"/>
      <point x="187" y="518"/>
      <point x="197" y="522"/>
      <point x="203" y="537" type="curve"/>
      <point x="229" y="623"/>
      <point x="302" y="675"/>
      <point x="387" y="675" type="curve" smooth="yes"/>
      <point x="478" y="675"/>
      <point x="536" y="621"/>
      <point x="525" y="523" type="curve" smooth="yes"/>
      <point x="514" y="433"/>
      <point x="452" y="369"/>
      <point x="356" y="282" type="curve" smooth="yes"/>
      <point x="84" y="38" type="line"/>
      <point x="80" y="34"/>
      <point x="74" y="26"/>
      <point x="72" y="17" type="curve"/>
      <point x="70" y="0" type="line"/>
      <point x="526" y="0" type="line"/>
    </contour>
  </outline>
</glyph>
<glyph name="three" format="1">
  <advance width="657"/>
  <unicode hex="0033"/>
  <note>
    three
  </note>
  <outline>
    <contour>
      <point x="388" y="716" type="curve" smooth="yes"/>
      <point x="271" y="716"/>
      <point x="178" y="646"/>
      <point x="146" y="524" type="curve"/>
      <point x="170" y="520" type="line"/>
      <point x="183" y="518"/>
      <point x="192" y="525"/>
      <point x="196" y="538" type="curve" smooth="yes"/>
      <point x="224" y="621"/>
      <point x="295" y="675"/>
      <point x="381" y="675" type="curve" smooth="yes"/>
      <point x="474" y="675"/>
      <point x="528" y="619"/>
      <point x="517" y="529" type="curve" smooth="yes"/>
      <point x="503" y="431"/>
      <point x="419" y="383"/>
      <point x="311" y="380" type="curve"/>
      <point x="307" y="346" type="line"/>
      <point x="424" y="346"/>
      <point x="508" y="306"/>
      <point x="493" y="193" type="curve" smooth="yes"/>
      <point x="483" y="105"/>
      <point x="393" y="32"/>
      <point x="293" y="32" type="curve" smooth="yes"/>
      <point x="198" y="32"/>
      <point x="148" y="77"/>
      <point x="128" y="171" type="curve" smooth="yes"/>
      <point x="125" y="184"/>
      <point x="109" y="185"/>
      <point x="99" y="181" type="curve"/>
      <point x="80" y="173" type="line"/>
      <point x="96" y="52"/>
      <point x="157" y="-8"/>
      <point x="288" y="-8" type="curve" smooth="yes"/>
      <point x="414" y="-8"/>
      <point x="525" y="75"/>
      <point x="541" y="194" type="curve" smooth="yes"/>
      <point x="553" y="287"/>
      <point x="505" y="349"/>
      <point x="404" y="369" type="curve"/>
      <point x="487" y="389"/>
      <point x="554" y="449"/>
      <point x="565" y="537" type="curve" smooth="yes"/>
      <point x="579" y="642"/>
      <point x="505" y="716"/>
    </contour>
  </outline>
</glyph>
<glyph name="four" format="1">
  <advance width="603"/>
  <unicode hex="0034"/>
  <note>
    four
  </note>
  <outline>
    <contour>
      <point x="560" y="241" type="line"/>
      <point x="431" y="241" type="line"/>
      <point x="488" y="708" type="line"/>
      <point x="446" y="708" type="line"/>
      <point x="33" y="238" type="line"/>
      <point x="34" y="215" type="line"/>
      <point x="35" y="206"/>
      <point x="42" y="203"/>
      <point x="50" y="203" type="curve" smooth="yes"/>
      <point x="383" y="203" type="line"/>
      <point x="358" y="0" type="line"/>
      <point x="401" y="0" type="line"/>
      <point x="426" y="203" type="line"/>
      <point x="542" y="203" type="line" smooth="yes"/>
      <point x="551" y="203"/>
      <point x="556" y="207"/>
      <point x="557" y="215" type="curve"/>
    </contour>
    <contour>
      <point x="440" y="649" type="line"/>
      <point x="433" y="612" type="line"/>
      <point x="388" y="241" type="line"/>
      <point x="85" y="241" type="line"/>
    </contour>
  </outline>
</glyph>
<glyph name="five" format="1">
  <advance width="661"/>
  <unicode hex="0035"/>
  <note>
    five
  </note>
  <outline>
    <contour>
      <point x="567" y="687" type="curve" smooth="yes"/>
      <point x="570" y="708" type="line"/>
      <point x="252" y="708" type="line"/>
      <point x="158" y="394" type="line"/>
      <point x="187" y="384" type="line"/>
      <point x="226" y="395"/>
      <point x="281" y="404"/>
      <point x="318" y="404" type="curve" smooth="yes"/>
      <point x="433" y="404"/>
      <point x="495" y="342"/>
      <point x="482" y="230" type="curve" smooth="yes"/>
      <point x="469" y="116"/>
      <point x="383" y="34"/>
      <point x="263" y="34" type="curve" smooth="yes"/>
      <point x="219" y="34"/>
      <point x="169" y="50"/>
      <point x="130" y="74" type="curve" smooth="yes"/>
      <point x="116" y="83"/>
      <point x="107" y="86"/>
      <point x="97" y="74" type="curve"/>
      <point x="80" y="55" type="line"/>
      <point x="123" y="17"/>
      <point x="189" y="-8"/>
      <point x="256" y="-8" type="curve" smooth="yes"/>
      <point x="400" y="-8"/>
      <point x="510" y="90"/>
      <point x="530" y="232" type="curve" smooth="yes"/>
      <point x="547" y="361"/>
      <point x="472" y="444"/>
      <point x="332" y="444" type="curve" smooth="yes"/>
      <point x="301" y="444"/>
      <point x="245" y="437"/>
      <point x="209" y="428" type="curve"/>
      <point x="280" y="664" type="line"/>
      <point x="536" y="664" type="line" smooth="yes"/>
      <point x="550" y="664"/>
      <point x="564" y="668"/>
    </contour>
  </outline>
</glyph>
<glyph name="six" format="1">
  <advance width="597"/>
  <unicode hex="0036"/>
  <note>
    six
  </note>
  <outline>
    <contour>
      <point x="345" y="423" type="curve" smooth="yes"/>
      <point x="282" y="423"/>
      <point x="226" y="400"/>
      <point x="179" y="358" type="curve"/>
      <point x="189" y="373"/>
      <point x="205" y="391"/>
      <point x="240" y="432" type="curve" smooth="yes"/>
      <point x="485" y="708" type="line"/>
      <point x="443" y="708" type="line" smooth="yes"/>
      <point x="432" y="708"/>
      <point x="423" y="704"/>
      <point x="416" y="696" type="curve" smooth="yes"/>
      <point x="191" y="436" type="line" smooth="yes"/>
      <point x="135" y="371"/>
      <point x="82" y="291"/>
      <point x="75" y="225" type="curve" smooth="yes"/>
      <point x="59" y="82"/>
      <point x="131" y="-8"/>
      <point x="268" y="-8" type="curve" smooth="yes"/>
      <point x="405" y="-8"/>
      <point x="514" y="83"/>
      <point x="529" y="213" type="curve" smooth="yes"/>
      <point x="545" y="337"/>
      <point x="471" y="423"/>
    </contour>
    <contour>
      <point x="120" y="214" type="curve" smooth="yes"/>
      <point x="134" y="314"/>
      <point x="225" y="386"/>
      <point x="328" y="386" type="curve" smooth="yes"/>
      <point x="434" y="386"/>
      <point x="493" y="316"/>
      <point x="481" y="210" type="curve" smooth="yes"/>
      <point x="469" y="107"/>
      <point x="386" y="32"/>
      <point x="273" y="32" type="curve" smooth="yes"/>
      <point x="164" y="32"/>
      <point x="108" y="107"/>
    </contour>
  </outline>
</glyph>
<glyph name="seven" format="1">
  <advance width="615"/>
  <unicode hex="0037"/>
  <note>
    seven
  </note>
  <outline>
    <contour>
      <point x="571" y="708" type="line"/>
      <point x="101" y="707" type="line"/>
      <point x="84" y="573" type="line"/>
      <point x="108" y="573" type="line" smooth="yes"/>
      <point x="122" y="573"/>
      <point x="130" y="581"/>
      <point x="133" y="597" type="curve"/>
      <point x="144" y="664" type="line"/>
      <point x="516" y="664" type="line"/>
      <point x="498" y="640" type="line"/>
      <point x="93" y="0" type="line"/>
      <point x="125" y="0" type="line" smooth="yes"/>
      <point x="136" y="0"/>
      <point x="147" y="4"/>
      <point x="156" y="18" type="curve" smooth="yes"/>
      <point x="559" y="661" type="line" smooth="yes"/>
      <point x="564" y="669"/>
      <point x="567" y="679"/>
      <point x="568" y="686" type="curve" smooth="yes"/>
    </contour>
  </outline>
</glyph>
<glyph name="eight" format="1">
  <advance width="616"/>
  <unicode hex="0038"/>
  <note>
    eight
  </note>
  <outline>
    <contour>
      <point x="276" y="-8" type="curve" smooth="yes"/>
      <point x="403" y="-8"/>
      <point x="513" y="59"/>
      <point x="530" y="187" type="curve" smooth="yes"/>
      <point x="541" y="283"/>
      <point x="493" y="349"/>
      <point x="398" y="370" type="curve"/>
      <point x="480" y="393"/>
      <point x="539" y="453"/>
      <point x="547" y="535" type="curve" smooth="yes"/>
      <point x="560" y="647"/>
      <point x="479" y="716"/>
      <point x="365" y="716" type="curve" smooth="yes"/>
      <point x="248" y="716"/>
      <point x="152" y="644"/>
      <point x="138" y="535" type="curve" smooth="yes"/>
      <point x="131" y="455"/>
      <point x="165" y="395"/>
      <point x="247" y="370" type="curve"/>
      <point x="149" y="349"/>
      <point x="81" y="284"/>
      <point x="70" y="187" type="curve" smooth="yes"/>
      <point x="54" y="64"/>
      <point x="147" y="-8"/>
    </contour>
    <contour>
      <point x="281" y="30" type="curve" smooth="yes"/>
      <point x="175" y="30"/>
      <point x="106" y="91"/>
      <point x="119" y="188" type="curve" smooth="yes"/>
      <point x="132" y="291"/>
      <point x="214" y="348"/>
      <point x="320" y="348" type="curve" smooth="yes"/>
      <point x="428" y="348"/>
      <point x="495" y="290"/>
      <point x="481" y="188" type="curve" smooth="yes"/>
      <point x="469" y="88"/>
      <point x="385" y="30"/>
    </contour>
    <contour>
      <point x="325" y="387" type="curve" smooth="yes"/>
      <point x="229" y="387"/>
      <point x="176" y="440"/>
      <point x="185" y="534" type="curve" smooth="yes"/>
      <point x="195" y="620"/>
      <point x="265" y="678"/>
      <point x="361" y="678" type="curve" smooth="yes"/>
      <point x="450" y="678"/>
      <point x="510" y="630"/>
      <point x="500" y="534" type="curve" smooth="yes"/>
      <point x="491" y="448"/>
      <point x="422" y="387"/>
    </contour>
  </outline>
</glyph>
<glyph name="nine" format="1">
  <advance width="581"/>
  <unicode hex="0039"/>
  <note>
    nine
  </note>
  <outline>
    <contour>
      <point x="243" y="301" type="curve" smooth="yes"/>
      <point x="307" y="301"/>
      <point x="364" y="324"/>
      <point x="410" y="368" type="curve"/>
      <point x="405" y="360"/>
      <point x="363" y="307"/>
      <point x="350" y="292" type="curve" smooth="yes"/>
      <point x="105" y="0" type="line"/>
      <point x="148" y="0" type="line" smooth="yes"/>
      <point x="159" y="0"/>
      <point x="168" y="4"/>
      <point x="174" y="12" type="curve" smooth="yes"/>
      <point x="393" y="284" type="line" smooth="yes"/>
      <point x="453" y="359"/>
      <point x="497" y="421"/>
      <point x="505" y="494" type="curve" smooth="yes"/>
      <point x="521" y="622"/>
      <point x="446" y="716"/>
      <point x="319" y="716" type="curve" smooth="yes"/>
      <point x="194" y="716"/>
      <point x="84" y="626"/>
      <point x="67" y="503" type="curve" smooth="yes"/>
      <point x="51" y="389"/>
      <point x="121" y="301"/>
    </contour>
    <contour>
      <point x="460" y="502" type="curve" smooth="yes"/>
      <point x="451" y="412"/>
      <point x="363" y="338"/>
      <point x="261" y="338" type="curve" smooth="yes"/>
      <point x="162" y="338"/>
      <point x="103" y="401"/>
      <point x="115" y="506" type="curve" smooth="yes"/>
      <point x="127" y="602"/>
      <point x="207" y="676"/>
      <point x="313" y="676" type="curve" smooth="yes"/>
      <point x="410" y="676"/>
      <point x="472" y="606"/>
    </contour>
  </outline>
</glyph>
<glyph name="colon" format="1">
  <advance width="251"/>
  <unicode hex="003A"/>
  <note>
    colon
  </note>
  <outline>
    <contour>
      <point x="96" y="-8" type="curve" smooth="yes"/>
      <point x="121" y="-8"/>
      <point x="145" y="14"/>
      <point x="147" y="39" type="curve" smooth="yes"/>
      <point x="150" y="63"/>
      <point x="133" y="85"/>
      <point x="107" y="85" type="curve" smooth="yes"/>
      <point x="81" y="85"/>
      <point x="57" y="63"/>
      <point x="55" y="39" type="curve" smooth="yes"/>
      <point x="53" y="14"/>
      <point x="70" y="-8"/>
    </contour>
    <contour>
      <point x="145" y="391" type="curve" smooth="yes"/>
      <point x="170" y="391"/>
      <point x="194" y="413"/>
      <point x="196" y="438" type="curve" smooth="yes"/>
      <point x="199" y="462"/>
      <point x="182" y="484"/>
      <point x="156" y="484" type="curve" smooth="yes"/>
      <point x="130" y="484"/>
      <point x="106" y="462"/>
      <point x="104" y="438" type="curve" smooth="yes"/>
      <point x="102" y="413"/>
      <point x="119" y="391"/>
    </contour>
  </outline>
</glyph>
<glyph name="less" format="1">
  <advance width="537"/>
  <unicode hex="003C"/>
  <note>
    less
  </note>
  <outline>
    <contour>
      <point x="435" y="538" type="line"/>
      <point x="37" y="346" type="line"/>
      <point x="34" y="326" type="line"/>
      <point x="385" y="132" type="line"/>
      <point x="389" y="165" type="line"/>
      <point x="389" y="174"/>
      <point x="386" y="177"/>
      <point x="378" y="182" type="curve"/>
      <point x="119" y="323" type="line" smooth="yes"/>
      <point x="110" y="328"/>
      <point x="98" y="332"/>
      <point x="84" y="335" type="curve"/>
      <point x="97" y="338"/>
      <point x="110" y="342"/>
      <point x="122" y="348" type="curve" smooth="yes"/>
      <point x="416" y="488" type="line"/>
      <point x="421" y="491"/>
      <point x="429" y="496"/>
      <point x="431" y="506" type="curve"/>
    </contour>
  </outline>
</glyph>
<glyph name="equal" format="1">
  <advance width="577"/>
  <unicode hex="003D"/>
  <note>
    equal
  </note>
  <outline>
    <contour>
      <point x="488" y="278" type="line"/>
      <point x="75" y="278" type="line"/>
      <point x="70" y="241" type="line"/>
      <point x="484" y="241" type="line"/>
    </contour>
    <contour>
      <point x="507" y="434" type="line"/>
      <point x="94" y="434" type="line"/>
      <point x="89" y="398" type="line"/>
      <point x="503" y="398" type="line"/>
    </contour>
  </outline>
</glyph>
<glyph name="greater" format="1">
  <advance width="486"/>
  <unicode hex="003E"/>
  <note>
    greater
  </note>
  <outline>
    <contour>
      <point x="51" y="132" type="line"/>
      <point x="449" y="324" type="line"/>
      <point x="452" y="344" type="line"/>
      <point x="101" y="538" type="line"/>
      <point x="97" y="505" type="line"/>
      <point x="97" y="496"/>
      <point x="100" y="493"/>
      <point x="108" y="488" type="curve"/>
      <point x="367" y="347" type="line" smooth="yes"/>
      <point x="376" y="342"/>
      <point x="388" y="338"/>
      <point x="402" y="335" type="curve"/>
      <point x="389" y="332"/>
      <point x="376" y="328"/>
      <point x="364" y="322" type="curve" smooth="yes"/>
      <point x="70" y="182" type="line"/>
      <point x="65" y="179"/>
      <point x="57" y="174"/>
      <point x="55" y="164" type="curve"/>
    </contour>
  </outline>
</glyph>
<glyph name="question" format="1">
  <advance width="399"/>
  <unicode hex="003F"/>
  <note>
    question
  </note>
  <outline>
    <contour>
      <point x="35" y="646" type="curve"/>
      <point x="45" y="630" type="line" smooth="yes"/>
      <point x="52" y="619"/>
      <point x="60" y="621"/>
      <point x="69" y="629" type="curve" smooth="yes"/>
      <point x="102" y="657"/>
      <point x="148" y="676"/>
      <point x="199" y="676" type="curve" smooth="yes"/>
      <point x="271" y="676"/>
      <point x="323" y="632"/>
      <point x="315" y="562" type="curve" smooth="yes"/>
      <point x="307" y="504"/>
      <point x="272" y="463"/>
      <point x="218" y="427" type="curve" smooth="yes"/>
      <point x="163" y="390"/>
      <point x="131" y="367"/>
      <point x="126" y="331" type="curve"/>
      <point x="118" y="243" type="line"/>
      <point x="150" y="243" type="line"/>
      <point x="166" y="325" type="line" smooth="yes"/>
      <point x="173" y="358"/>
      <point x="205" y="373"/>
      <point x="261" y="414" type="curve"/>
      <point x="313" y="448"/>
      <point x="353" y="499"/>
      <point x="360" y="564" type="curve" smooth="yes"/>
      <point x="372" y="654"/>
      <point x="302" y="716"/>
      <point x="208" y="716" type="curve" smooth="yes"/>
      <point x="148" y="716"/>
      <point x="81" y="687"/>
    </contour>
    <contour>
      <point x="103" y="-8" type="curve" smooth="yes"/>
      <point x="128" y="-8"/>
      <point x="152" y="14"/>
      <point x="154" y="39" type="curve" smooth="yes"/>
      <point x="157" y="63"/>
      <point x="140" y="85"/>
      <point x="114" y="85" type="curve" smooth="yes"/>
      <point x="88" y="85"/>
      <point x="64" y="63"/>
      <point x="62" y="39" type="curve" smooth="yes"/>
      <point x="60" y="14"/>
      <point x="77" y="-8"/>
    </contour>
  </outline>
</glyph>
<glyph name="at" format="1">
  <advance width="826"/>
  <unicode hex="0040"/>
  <note>
    at
  </note>
  <outline>
    <contour>
      <point x="559" y="94" type="curve" smooth="yes"/>
      <point x="675" y="94"/>
      <point x="761" y="215"/>
      <point x="775" y="339" type="curve" smooth="yes"/>
      <point x="800" y="535"/>
      <point x="671" y="666"/>
      <point x="474" y="666" type="curve" smooth="yes"/>
      <point x="263" y="666"/>
      <point x="80" y="495"/>
      <point x="52" y="274" type="curve" smooth="yes"/>
      <point x="22" y="40"/>
      <point x="160" y="-119"/>
      <point x="396" y="-119" type="curve" smooth="yes"/>
      <point x="492" y="-119"/>
      <point x="594" y="-95"/>
      <point x="678" y="-42" type="curve"/>
      <point x="672" y="-24" type="line"/>
      <point x="670" y="-18"/>
      <point x="662" y="-15"/>
      <point x="654" y="-19" type="curve"/>
      <point x="585" y="-61"/>
      <point x="491" y="-86"/>
      <point x="400" y="-86" type="curve" smooth="yes"/>
      <point x="189" y="-86"/>
      <point x="61" y="55"/>
      <point x="88" y="274" type="curve" smooth="yes"/>
      <point x="111" y="471"/>
      <point x="275" y="632"/>
      <point x="470" y="632" type="curve" smooth="yes"/>
      <point x="651" y="632"/>
      <point x="762" y="525"/>
      <point x="739" y="339" type="curve" smooth="yes"/>
      <point x="725" y="234"/>
      <point x="666" y="126"/>
      <point x="569" y="126" type="curve" smooth="yes"/>
      <point x="500" y="126"/>
      <point x="496" y="181"/>
      <point x="532" y="270" type="curve" smooth="yes"/>
      <point x="599" y="444" type="line"/>
      <point x="576" y="455"/>
      <point x="538" y="462"/>
      <point x="509" y="462" type="curve" smooth="yes"/>
      <point x="374" y="462"/>
      <point x="250" y="351"/>
      <point x="236" y="222" type="curve" smooth="yes"/>
      <point x="228" y="147"/>
      <point x="259" y="96"/>
      <point x="330" y="96" type="curve" smooth="yes"/>
      <point x="392" y="96"/>
      <point x="442" y="130"/>
      <point x="480" y="184" type="curve"/>
      <point x="474" y="125"/>
      <point x="500" y="94"/>
    </contour>
    <contour>
      <point x="343" y="129" type="curve" smooth="yes"/>
      <point x="290" y="129"/>
      <point x="267" y="173"/>
      <point x="275" y="223" type="curve" smooth="yes"/>
      <point x="288" y="328"/>
      <point x="387" y="430"/>
      <point x="499" y="430" type="curve" smooth="yes"/>
      <point x="523" y="430"/>
      <point x="528" y="428"/>
      <point x="553" y="422" type="curve"/>
      <point x="494" y="268" type="line" smooth="yes"/>
      <point x="467" y="193"/>
      <point x="416" y="129"/>
    </contour>
  </outline>
</glyph>
<glyph name="A" format="1">
  <advance width="777"/>
  <unicode hex="0041"/>
  <note>
    A
  </note>
  <outline>
    <contour>
      <point x="69" y="0" type="line"/>
      <point x="124" y="0" type="line"/>
      <point x="148" y="46" type="line"/>
      <point x="245" y="232" type="line"/>
      <point x="583" y="232" type="line"/>
      <point x="635" y="46" type="line"/>
      <point x="648" y="0" type="line"/>
      <point x="701" y="0" type="line"/>
      <point x="687" y="46" type="line"/>
      <point x="498" y="708" type="line"/>
      <point x="447" y="708" type="line"/>
      <point x="95" y="46" type="line"/>
    </contour>
    <contour>
      <point x="266" y="270" type="line"/>
      <point x="447" y="614" type="line" smooth="yes"/>
      <point x="452" y="624"/>
      <point x="462" y="644"/>
      <point x="466" y="656" type="curve"/>
      <point x="468" y="644"/>
      <point x="473" y="625"/>
      <point x="475" y="615" type="curve"/>
      <point x="572" y="270" type="line"/>
    </contour>
    <component base="serifBottom" xOffset="-38"/>
    <component base="serifBottom" xOffset="514"/>
    <contour>
      <point x="397" y="0" type="move" name="bottom"/>
    </contour>
    <contour>
      <point x="735" y="10" type="move" name="ogonek"/>
    </contour>
    <contour>
      <point x="466" y="708" type="move" name="top"/>
    </contour>
  </outline>
</glyph>
<glyph name="B" format="1">
  <advance width="691"/>
  <unicode hex="0042"/>
  <note>
    B
  </note>
  <outline>
    <contour>
      <point x="646" y="289"/>
      <point x="589" y="346"/>
      <point x="481" y="362" type="curve"/>
      <point x="565" y="383"/>
      <point x="637" y="445"/>
      <point x="646" y="527" type="curve" smooth="yes"/>
      <point x="659" y="657"/>
      <point x="574" y="708"/>
      <point x="433" y="708" type="curve" smooth="yes"/>
      <point x="145" y="708" type="line"/>
      <point x="142" y="689" type="line"/>
      <point x="141" y="678"/>
      <point x="147" y="672"/>
      <point x="160" y="671" type="curve"/>
      <point x="224" y="669" type="line"/>
      <point x="147" y="40" type="line"/>
      <point x="82" y="38" type="line"/>
      <point x="69" y="37"/>
      <point x="61" y="31"/>
      <point x="60" y="20" type="curve" smooth="yes"/>
      <point x="58" y="0" type="line"/>
      <point x="372" y="0" type="line" smooth="yes"/>
      <point x="511" y="0"/>
      <point x="616" y="60"/>
      <point x="634" y="193" type="curve" smooth="yes"/>
    </contour>
    <contour>
      <point x="239" y="376" type="line"/>
      <point x="275" y="668" type="line"/>
      <point x="428" y="668" type="line" smooth="yes"/>
      <point x="537" y="668"/>
      <point x="608" y="629"/>
      <point x="595" y="522" type="curve" smooth="yes"/>
      <point x="585" y="430"/>
      <point x="496" y="376"/>
      <point x="393" y="376" type="curve" smooth="yes"/>
    </contour>
    <contour>
      <point x="570" y="90"/>
      <point x="494" y="41"/>
      <point x="376" y="41" type="curve" smooth="yes"/>
      <point x="198" y="41" type="line"/>
      <point x="235" y="339" type="line"/>
      <point x="413" y="339" type="line" smooth="yes"/>
      <point x="517" y="339"/>
      <point x="597" y="293"/>
      <point x="583" y="194" type="curve" smooth="yes"/>
    </contour>
    <contour>
      <point x="361" y="0" type="move" name="bottom"/>
    </contour>
    <contour>
      <point x="361" y="708" type="move" name="top"/>
    </contour>
  </outline>
</glyph>
<glyph name="C" format="1">
  <advance width="705"/>
  <unicode hex="0043"/>
  <note>
    C
  </note>
  <outline>
    <contour>
      <point x="606" y="94" type="curve"/>
      <point x="589" y="115" type="line"/>
      <point x="584" y="121"/>
      <point x="575" y="118"/>
      <point x="570" y="114" type="curve"/>
      <point x="504" y="60"/>
      <point x="442" y="36"/>
      <point x="349" y="36" type="curve" smooth="yes"/>
      <point x="175" y="36"/>
      <point x="83" y="167"/>
      <point x="105" y="354" type="curve" smooth="yes"/>
      <point x="127" y="538"/>
      <point x="256" y="671"/>
      <point x="438" y="671" type="curve" smooth="yes"/>
      <point x="502" y="671"/>
      <point x="559" y="661"/>
      <point x="608" y="638" type="curve"/>
      <point x="600" y="529" type="line"/>
      <point x="599" y="513"/>
      <point x="605" y="505"/>
      <point x="619" y="505" type="curve" smooth="yes"/>
      <point x="643" y="505" type="line"/>
      <point x="663" y="665" type="line"/>
      <point x="583" y="699"/>
      <point x="509" y="715"/>
      <point x="443" y="715" type="curve" smooth="yes"/>
      <point x="233" y="715"/>
      <point x="80" y="566"/>
      <point x="52" y="354" type="curve" smooth="yes"/>
      <point x="26" y="152"/>
      <point x="133" y="-8"/>
      <point x="340" y="-8" type="curve" smooth="yes"/>
      <point x="442" y="-8"/>
      <point x="533" y="25"/>
    </contour>
    <contour>
      <point x="343" y="0" type="move" name="bottom"/>
    </contour>
    <contour>
      <point x="442" y="708" type="move" name="top"/>
    </contour>
  </outline>
</glyph>
<glyph name="D" format="1">
  <advance width="821"/>
  <unicode hex="0044"/>
  <note>
    D
  </note>
  <outline>
    <contour>
      <point x="796" y="560"/>
      <point x="688" y="707"/>
      <point x="475" y="707" type="curve" smooth="yes"/>
      <point x="145" y="707" type="line"/>
      <point x="143" y="688" type="line" smooth="yes"/>
      <point x="142" y="677"/>
      <point x="148" y="671"/>
      <point x="161" y="670" type="curve"/>
      <point x="225" y="668" type="line"/>
      <point x="148" y="40" type="line"/>
      <point x="83" y="38" type="line"/>
      <point x="70" y="37"/>
      <point x="62" y="31"/>
      <point x="61" y="20" type="curve"/>
      <point x="58" y="0" type="line"/>
      <point x="388" y="0" type="line" smooth="yes"/>
      <point x="594" y="0"/>
      <point x="741" y="137"/>
      <point x="769" y="354" type="curve" smooth="yes"/>
    </contour>
    <contour>
      <point x="693" y="165"/>
      <point x="574" y="41"/>
      <point x="393" y="41" type="curve" smooth="yes"/>
      <point x="199" y="41" type="line"/>
      <point x="276" y="666" type="line"/>
      <point x="470" y="666" type="line" smooth="yes"/>
      <point x="649" y="666"/>
      <point x="739" y="542"/>
      <point x="716" y="354" type="curve" smooth="yes"/>
    </contour>
    <contour>
      <point x="424" y="0" type="move" name="bottom"/>
    </contour>
    <contour>
      <point x="424" y="354" type="move" name="center"/>
    </contour>
    <contour>
      <point x="448" y="708" type="move" name="top"/>
    </contour>
  </outline>
</glyph>
<glyph name="E" format="1">
  <advance width="702"/>
  <unicode hex="0045"/>
  <note>
    E
  </note>
  <outline>
    <contour>
      <point x="654" y="707" type="line"/>
      <point x="145" y="707" type="line"/>
      <point x="143" y="688" type="line" smooth="yes"/>
      <point x="142" y="677"/>
      <point x="148" y="671"/>
      <point x="161" y="670" type="curve"/>
      <point x="225" y="668" type="line"/>
      <point x="148" y="40" type="line"/>
      <point x="83" y="38" type="line"/>
      <point x="70" y="37"/>
      <point x="62" y="31"/>
      <point x="61" y="20" type="curve"/>
      <point x="58" y="0" type="line"/>
      <point x="143" y="0" type="line"/>
      <point x="567" y="0" type="line"/>
      <point x="585" y="147" type="line"/>
      <point x="560" y="147" type="line" smooth="yes"/>
      <point x="546" y="147"/>
      <point x="539" y="138"/>
      <point x="536" y="122" type="curve"/>
      <point x="522" y="43" type="line"/>
      <point x="199" y="43" type="line"/>
      <point x="236" y="338" type="line"/>
      <point x="517" y="338" type="line"/>
      <point x="522" y="379" type="line"/>
      <point x="241" y="379" type="line"/>
      <point x="276" y="665" type="line"/>
      <point x="599" y="665" type="line"/>
      <point x="593" y="585" type="line"/>
      <point x="592" y="569"/>
      <point x="597" y="561"/>
      <point x="611" y="561" type="curve" smooth="yes"/>
      <point x="636" y="561" type="line"/>
      <point x="648" y="665" type="line"/>
    </contour>
    <contour>
      <point x="353" y="0" type="move" name="bottom"/>
    </contour>
    <contour>
      <point x="536" y="10" type="move" name="ogonek"/>
    </contour>
    <contour>
      <point x="424" y="708" type="move" name="top"/>
    </contour>
    <contour>
      <point x="62" y="708" type="move" name="topleft"/>
    </contour>
  </outline>
</glyph>
<glyph name="F" format="1">
  <advance width="693"/>
  <unicode hex="0046"/>
  <note>
    F
  </note>
  <outline>
    <contour>
      <point x="660" y="707" type="line"/>
      <point x="145" y="707" type="line"/>
      <point x="143" y="688" type="line" smooth="yes"/>
      <point x="142" y="677"/>
      <point x="148" y="671"/>
      <point x="161" y="670" type="curve"/>
      <point x="225" y="668" type="line"/>
      <point x="148" y="40" type="line"/>
      <point x="83" y="38" type="line"/>
      <point x="70" y="37"/>
      <point x="62" y="31"/>
      <point x="61" y="20" type="curve"/>
      <point x="58" y="0" type="line"/>
      <point x="278" y="0" type="line"/>
      <point x="281" y="20" type="line"/>
      <point x="282" y="31"/>
      <point x="276" y="37"/>
      <point x="263" y="38" type="curve"/>
      <point x="199" y="40" type="line"/>
      <point x="234" y="325" type="line"/>
      <point x="498" y="325" type="line"/>
      <point x="504" y="368" type="line"/>
      <point x="239" y="368" type="line"/>
      <point x="276" y="665" type="line"/>
      <point x="605" y="665" type="line"/>
      <point x="599" y="585" type="line"/>
      <point x="598" y="569"/>
      <point x="604" y="561"/>
      <point x="618" y="561" type="curve" smooth="yes"/>
      <point x="642" y="561" type="line"/>
    </contour>
    <contour>
      <point x="357" y="0" type="move" name="bottom"/>
    </contour>
    <contour>
      <point x="357" y="708" type="move" name="top"/>
    </contour>
  </outline>
</glyph>
<glyph name="G" format="1">
  <advance width="771"/>
  <unicode hex="0047"/>
  <note>
    G
  </note>
  <outline>
    <contour>
      <point x="660" y="321" type="line"/>
      <point x="464" y="321" type="line"/>
      <point x="461" y="294" type="line"/>
      <point x="460" y="286"/>
      <point x="463" y="282"/>
      <point x="472" y="282" type="curve" smooth="yes"/>
      <point x="608" y="282" type="line"/>
      <point x="585" y="91" type="line"/>
      <point x="505" y="49"/>
      <point x="449" y="34"/>
      <point x="360" y="34" type="curve" smooth="yes"/>
      <point x="178" y="34"/>
      <point x="82" y="162"/>
      <point x="105" y="354" type="curve" smooth="yes"/>
      <point x="128" y="545"/>
      <point x="257" y="671"/>
      <point x="445" y="671" type="curve" smooth="yes"/>
      <point x="529" y="671"/>
      <point x="594" y="660"/>
      <point x="640" y="637" type="curve"/>
      <point x="632" y="529" type="line"/>
      <point x="631" y="513"/>
      <point x="637" y="505"/>
      <point x="651" y="505" type="curve" smooth="yes"/>
      <point x="675" y="505" type="line"/>
      <point x="694" y="665" type="line"/>
      <point x="631" y="695"/>
      <point x="525" y="715"/>
      <point x="452" y="715" type="curve" smooth="yes"/>
      <point x="230" y="715"/>
      <point x="80" y="571"/>
      <point x="52" y="354" type="curve" smooth="yes"/>
      <point x="25" y="144"/>
      <point x="142" y="-8"/>
      <point x="351" y="-8" type="curve" smooth="yes"/>
      <point x="457" y="-8"/>
      <point x="540" y="14"/>
      <point x="629" y="70" type="curve"/>
    </contour>
    <contour>
      <point x="363" y="0" type="move" name="bottom"/>
    </contour>
    <contour>
      <point x="363" y="708" type="move" name="top"/>
    </contour>
  </outline>
</glyph>
<glyph name="H" format="1">
  <advance width="918"/>
  <unicode hex="0048"/>
  <note>
    H
  </note>
  <outline>
    <contour>
      <point x="771" y="669" type="line"/>
      <point x="835" y="671" type="line"/>
      <point x="848" y="672"/>
      <point x="856" y="678"/>
      <point x="857" y="689" type="curve"/>
      <point x="860" y="708" type="line"/>
      <point x="640" y="708" type="line"/>
      <point x="637" y="689" type="line"/>
      <point x="636" y="678"/>
      <point x="642" y="672"/>
      <point x="655" y="671" type="curve"/>
      <point x="719" y="669" type="line"/>
      <point x="684" y="378" type="line"/>
      <point x="241" y="378" type="line"/>
      <point x="276" y="669" type="line"/>
      <point x="341" y="671" type="line"/>
      <point x="354" y="672"/>
      <point x="362" y="678"/>
      <point x="363" y="689" type="curve" smooth="yes"/>
      <point x="365" y="708" type="line"/>
      <point x="145" y="708" type="line"/>
      <point x="143" y="689" type="line" smooth="yes"/>
      <point x="142" y="678"/>
      <point x="148" y="672"/>
      <point x="161" y="671" type="curve"/>
      <point x="225" y="669" type="line"/>
      <point x="148" y="40" type="line"/>
      <point x="83" y="38" type="line"/>
      <point x="70" y="37"/>
      <point x="62" y="31"/>
      <point x="61" y="20" type="curve"/>
      <point x="58" y="0" type="line"/>
      <point x="278" y="0" type="line"/>
      <point x="281" y="20" type="line"/>
      <point x="282" y="31"/>
      <point x="276" y="37"/>
      <point x="263" y="38" type="curve"/>
      <point x="199" y="40" type="line"/>
      <point x="236" y="339" type="line"/>
      <point x="679" y="339" type="line"/>
      <point x="642" y="40" type="line"/>
      <point x="577" y="38" type="line"/>
      <point x="564" y="37"/>
      <point x="556" y="31"/>
      <point x="555" y="20" type="curve" smooth="yes"/>
      <point x="553" y="0" type="line"/>
      <point x="773" y="0" type="line"/>
      <point x="775" y="20" type="line" smooth="yes"/>
      <point x="776" y="31"/>
      <point x="771" y="37"/>
      <point x="758" y="38" type="curve"/>
      <point x="694" y="40" type="line"/>
    </contour>
    <contour>
      <point x="456" y="0" type="move" name="bottom"/>
    </contour>
    <contour>
      <point x="456" y="354" type="move" name="center"/>
    </contour>
    <contour>
      <point x="456" y="708" type="move" name="top"/>
    </contour>
    <contour>
      <point x="62" y="708" type="move" name="topleft"/>
    </contour>
  </outline>
</glyph>
<glyph name="I" format="1">
  <advance width="423"/>
  <unicode hex="0049"/>
  <note>
    I
  </note>
  <outline>
    <contour>
      <point x="276" y="668" type="line"/>
      <point x="341" y="670" type="line"/>
      <point x="354" y="671"/>
      <point x="362" y="677"/>
      <point x="363" y="688" type="curve" smooth="yes"/>
      <point x="365" y="708" type="line"/>
      <point x="145" y="708" type="line"/>
      <point x="143" y="688" type="line" smooth="yes"/>
      <point x="142" y="677"/>
      <point x="148" y="671"/>
      <point x="161" y="670" type="curve"/>
      <point x="225" y="668" type="line"/>
      <point x="148" y="40" type="line"/>
      <point x="83" y="38" type="line"/>
      <point x="70" y="37"/>
      <point x="62" y="31"/>
      <point x="61" y="20" type="curve"/>
      <point x="58" y="0" type="line"/>
      <point x="278" y="0" type="line"/>
      <point x="281" y="20" type="line"/>
      <point x="282" y="31"/>
      <point x="276" y="37"/>
      <point x="263" y="38" type="curve"/>
      <point x="199" y="40" type="line"/>
    </contour>
    <contour>
      <point x="171" y="0" type="move" name="bottom"/>
    </contour>
    <contour>
      <point x="218" y="10" type="move" name="ogonek"/>
    </contour>
    <contour>
      <point x="256" y="708" type="move" name="top"/>
    </contour>
    <contour>
      <point x="62" y="708" type="move" name="topleft"/>
    </contour>
  </outline>
</glyph>
<glyph name="J" format="1">
  <advance width="502"/>
  <unicode hex="004A"/>
  <note>
    J
  </note>
  <outline>
    <contour>
      <point x="476" y="708" type="line"/>
      <point x="249" y="708" type="line"/>
      <point x="246" y="688" type="line"/>
      <point x="245" y="677"/>
      <point x="251" y="671"/>
      <point x="264" y="670" type="curve"/>
      <point x="335" y="668" type="line"/>
      <point x="282" y="235" type="line" smooth="yes"/>
      <point x="267" y="119"/>
      <point x="211" y="35"/>
      <point x="93" y="35" type="curve" smooth="yes"/>
      <point x="77" y="35"/>
      <point x="40" y="42"/>
      <point x="30" y="44" type="curve" smooth="yes"/>
      <point x="18" y="47"/>
      <point x="10" y="45"/>
      <point x="7" y="35" type="curve"/>
      <point x="1" y="7" type="line"/>
      <point x="28" y="-2"/>
      <point x="66" y="-8"/>
      <point x="92" y="-8" type="curve" smooth="yes"/>
      <point x="230" y="-8"/>
      <point x="315" y="87"/>
      <point x="334" y="236" type="curve" smooth="yes"/>
      <point x="387" y="668" type="line"/>
      <point x="451" y="670" type="line"/>
      <point x="464" y="671"/>
      <point x="472" y="677"/>
      <point x="473" y="688" type="curve"/>
    </contour>
    <contour>
      <point x="234" y="0" type="move" name="bottom"/>
    </contour>
    <contour>
      <point x="234" y="708" type="move" name="top"/>
    </contour>
  </outline>
</glyph>
<glyph name="K" format="1">
  <advance width="767"/>
  <unicode hex="004B"/>
  <note>
    K
  </note>
  <outline>
    <contour>
      <point x="631" y="669" type="line"/>
      <point x="335" y="400" type="line"/>
      <point x="319" y="384"/>
      <point x="307" y="381"/>
      <point x="283" y="381" type="curve" smooth="yes"/>
      <point x="241" y="381" type="line"/>
      <point x="276" y="669" type="line"/>
      <point x="281" y="708" type="line"/>
      <point x="230" y="708" type="line"/>
      <point x="225" y="669" type="line"/>
      <point x="148" y="40" type="line"/>
      <point x="143" y="0" type="line"/>
      <point x="194" y="0" type="line"/>
      <point x="199" y="40" type="line"/>
      <point x="236" y="341" type="line"/>
      <point x="281" y="341" type="line" smooth="yes"/>
      <point x="300" y="341"/>
      <point x="316" y="340"/>
      <point x="332" y="320" type="curve"/>
      <point x="573" y="39" type="line"/>
      <point x="606" y="0" type="line"/>
      <point x="665" y="0" type="line"/>
      <point x="632" y="39" type="line"/>
      <point x="380" y="340" type="line"/>
      <point x="373" y="349"/>
      <point x="362" y="361"/>
      <point x="348" y="365" type="curve"/>
      <point x="356" y="368"/>
      <point x="370" y="377"/>
      <point x="384" y="390" type="curve"/>
      <point x="689" y="669" type="line"/>
      <point x="734" y="708" type="line"/>
      <point x="676" y="708" type="line"/>
    </contour>
    <component base="serifBottom" xOffset="19"/>
    <component base="serifBottom" xScale="-1" yScale="-1" xOffset="404" yOffset="708"/>
    <component base="serifBottom" xScale="-1" yScale="-1" xOffset="805" yOffset="708"/>
    <component base="serifBottom" xOffset="451"/>
    <contour>
      <point x="401" y="0" type="move" name="bottom"/>
    </contour>
    <contour>
      <point x="401" y="708" type="move" name="top"/>
    </contour>
  </outline>
</glyph>
<glyph name="L" format="1">
  <advance width="572"/>
  <unicode hex="004C"/>
  <note>
    L
  </note>
  <outline>
    <contour>
      <point x="554" y="132" type="line"/>
      <point x="530" y="132" type="line" smooth="yes"/>
      <point x="516" y="132"/>
      <point x="508" y="124"/>
      <point x="505" y="108" type="curve"/>
      <point x="492" y="44" type="line"/>
      <point x="199" y="44" type="line"/>
      <point x="276" y="669" type="line"/>
      <point x="340" y="671" type="line"/>
      <point x="353" y="672"/>
      <point x="361" y="678"/>
      <point x="362" y="689" type="curve"/>
      <point x="365" y="708" type="line"/>
      <point x="145" y="708" type="line"/>
      <point x="143" y="689" type="line" smooth="yes"/>
      <point x="142" y="678"/>
      <point x="148" y="672"/>
      <point x="161" y="671" type="curve"/>
      <point x="225" y="669" type="line"/>
      <point x="148" y="40" type="line"/>
      <point x="83" y="38" type="line"/>
      <point x="70" y="37"/>
      <point x="62" y="31"/>
      <point x="61" y="20" type="curve"/>
      <point x="58" y="0" type="line"/>
      <point x="538" y="0" type="line"/>
    </contour>
    <contour>
      <point x="320" y="0" type="move" name="bottom"/>
    </contour>
    <contour>
      <point x="320" y="354" type="move" name="center"/>
    </contour>
    <contour>
      <point x="258" y="708" type="move" name="top"/>
    </contour>
    <contour>
      <point x="536" y="708" type="move" name="topright"/>
    </contour>
  </outline>
</glyph>
<glyph name="M" format="1">
  <advance width="1071"/>
  <unicode hex="004D"/>
  <note>
    M
  </note>
  <outline>
    <contour>
      <point x="924" y="669" type="line"/>
      <point x="988" y="671" type="line"/>
      <point x="1001" y="672"/>
      <point x="1009" y="678"/>
      <point x="1010" y="689" type="curve"/>
      <point x="1013" y="708" type="line"/>
      <point x="893" y="708" type="line" smooth="yes"/>
      <point x="886" y="708"/>
      <point x="881" y="708"/>
      <point x="873" y="699" type="curve"/>
      <point x="535" y="207" type="line"/>
      <point x="529" y="199"/>
      <point x="523" y="187"/>
      <point x="517" y="176" type="curve"/>
      <point x="515" y="187"/>
      <point x="512" y="197"/>
      <point x="508" y="206" type="curve" smooth="yes"/>
      <point x="283" y="699" type="line" smooth="yes"/>
      <point x="279" y="707"/>
      <point x="275" y="708"/>
      <point x="265" y="708" type="curve" smooth="yes"/>
      <point x="145" y="708" type="line"/>
      <point x="143" y="689" type="line" smooth="yes"/>
      <point x="142" y="678"/>
      <point x="148" y="672"/>
      <point x="161" y="671" type="curve"/>
      <point x="225" y="669" type="line"/>
      <point x="148" y="40" type="line"/>
      <point x="83" y="38" type="line"/>
      <point x="70" y="37"/>
      <point x="62" y="31"/>
      <point x="61" y="20" type="curve"/>
      <point x="58" y="0" type="line"/>
      <point x="274" y="0" type="line"/>
      <point x="276" y="20" type="line" smooth="yes"/>
      <point x="277" y="31"/>
      <point x="271" y="37"/>
      <point x="258" y="38" type="curve"/>
      <point x="192" y="40" type="line"/>
      <point x="261" y="603" type="line" smooth="yes"/>
      <point x="262" y="612"/>
      <point x="263" y="621"/>
      <point x="263" y="631" type="curve"/>
      <point x="488" y="136" type="line" smooth="yes"/>
      <point x="492" y="127"/>
      <point x="499" y="123"/>
      <point x="507" y="123" type="curve" smooth="yes"/>
      <point x="515" y="123" type="line" smooth="yes"/>
      <point x="524" y="123"/>
      <point x="530" y="127"/>
      <point x="536" y="136" type="curve" smooth="yes"/>
      <point x="876" y="631" type="line"/>
      <point x="874" y="621"/>
      <point x="872" y="612"/>
      <point x="871" y="603" type="curve" smooth="yes"/>
      <point x="802" y="40" type="line"/>
      <point x="735" y="38" type="line"/>
      <point x="722" y="37"/>
      <point x="714" y="31"/>
      <point x="713" y="20" type="curve"/>
      <point x="710" y="0" type="line"/>
      <point x="926" y="0" type="line"/>
      <point x="928" y="20" type="line" smooth="yes"/>
      <point x="929" y="31"/>
      <point x="924" y="37"/>
      <point x="911" y="38" type="curve"/>
      <point x="847" y="40" type="line"/>
    </contour>
    <contour>
      <point x="532" y="0" type="move" name="bottom"/>
    </contour>
    <contour>
      <point x="532" y="708" type="move" name="top"/>
    </contour>
  </outline>
</glyph>
<glyph name="N" format="1">
  <advance width="899"/>
  <unicode hex="004E"/>
  <note>
    N
  </note>
  <outline>
    <contour>
      <point x="860" y="708" type="line"/>
      <point x="644" y="708" type="line"/>
      <point x="642" y="689" type="line" smooth="yes"/>
      <point x="641" y="678"/>
      <point x="646" y="672"/>
      <point x="659" y="671" type="curve"/>
      <point x="726" y="669" type="line"/>
      <point x="658" y="114" type="line" smooth="yes"/>
      <point x="657" y="105"/>
      <point x="656" y="95"/>
      <point x="656" y="85" type="curve"/>
      <point x="273" y="698" type="line"/>
      <point x="269" y="705"/>
      <point x="263" y="708"/>
      <point x="255" y="708" type="curve" smooth="yes"/>
      <point x="145" y="708" type="line"/>
      <point x="143" y="688" type="line" smooth="yes"/>
      <point x="142" y="677"/>
      <point x="148" y="671"/>
      <point x="161" y="670" type="curve"/>
      <point x="225" y="668" type="line"/>
      <point x="148" y="40" type="line"/>
      <point x="83" y="38" type="line"/>
      <point x="70" y="37"/>
      <point x="62" y="31"/>
      <point x="61" y="20" type="curve"/>
      <point x="58" y="0" type="line"/>
      <point x="274" y="0" type="line"/>
      <point x="276" y="20" type="line" smooth="yes"/>
      <point x="277" y="31"/>
      <point x="271" y="37"/>
      <point x="258" y="38" type="curve"/>
      <point x="192" y="40" type="line"/>
      <point x="260" y="595" type="line" smooth="yes"/>
      <point x="261" y="604"/>
      <point x="262" y="614"/>
      <point x="262" y="624" type="curve"/>
      <point x="647" y="10" type="line"/>
      <point x="651" y="3"/>
      <point x="656" y="0"/>
      <point x="664" y="0" type="curve" smooth="yes"/>
      <point x="689" y="0" type="line"/>
      <point x="771" y="669" type="line"/>
      <point x="835" y="671" type="line"/>
      <point x="848" y="672"/>
      <point x="856" y="678"/>
      <point x="857" y="689" type="curve"/>
    </contour>
    <contour>
      <point x="456" y="0" type="move" name="bottom"/>
    </contour>
    <contour>
      <point x="494" y="708" type="move" name="top"/>
    </contour>
  </outline>
</glyph>
<glyph name="O" format="1">
  <advance width="779"/>
  <unicode hex="004F"/>
  <note>
    O
  </note>
  <outline>
    <contour>
      <point x="727" y="354" type="curve" smooth="yes"/>
      <point x="754" y="563"/>
      <point x="640" y="716"/>
      <point x="434" y="716" type="curve" smooth="yes"/>
      <point x="233" y="716"/>
      <point x="80" y="568"/>
      <point x="52" y="354" type="curve" smooth="yes"/>
      <point x="26" y="149"/>
      <point x="137" y="-8"/>
      <point x="345" y="-8" type="curve" smooth="yes"/>
      <point x="550" y="-8"/>
      <point x="701" y="141"/>
    </contour>
    <contour>
      <point x="674" y="354" type="curve" smooth="yes"/>
      <point x="653" y="173"/>
      <point x="536" y="37"/>
      <point x="350" y="37" type="curve" smooth="yes"/>
      <point x="173" y="37"/>
      <point x="82" y="163"/>
      <point x="105" y="354" type="curve" smooth="yes"/>
      <point x="128" y="540"/>
      <point x="251" y="672"/>
      <point x="428" y="672" type="curve" smooth="yes"/>
      <point x="606" y="672"/>
      <point x="697" y="544"/>
    </contour>
    <contour>
      <point x="389" y="0" type="move" name="bottom"/>
    </contour>
    <contour>
      <point x="389" y="354" type="move" name="center"/>
    </contour>
    <contour>
      <point x="687" y="10" type="move" name="ogonek"/>
    </contour>
    <contour>
      <point x="434" y="708" type="move" name="top"/>
    </contour>
    <contour>
      <point x="35" y="708" type="move" name="topleft"/>
    </contour>
    <contour>
      <point x="742" y="708" type="move" name="topright"/>
    </contour>
  </outline>
</glyph>
<glyph name="P" format="1">
  <advance width="662"/>
  <unicode hex="0050"/>
  <note>
    P
  </note>
  <outline>
    <contour>
      <point x="627" y="497" type="curve" smooth="yes"/>
      <point x="644" y="640"/>
      <point x="560" y="707"/>
      <point x="402" y="707" type="curve" smooth="yes"/>
      <point x="145" y="707" type="line"/>
      <point x="143" y="688" type="line" smooth="yes"/>
      <point x="142" y="677"/>
      <point x="148" y="671"/>
      <point x="161" y="670" type="curve"/>
      <point x="225" y="668" type="line"/>
      <point x="148" y="40" type="line"/>
      <point x="83" y="38" type="line"/>
      <point x="70" y="37"/>
      <point x="62" y="31"/>
      <point x="61" y="20" type="curve"/>
      <point x="58" y="0" type="line"/>
      <point x="278" y="0" type="line"/>
      <point x="280" y="20" type="line" smooth="yes"/>
      <point x="281" y="31"/>
      <point x="276" y="37"/>
      <point x="263" y="38" type="curve"/>
      <point x="199" y="40" type="line"/>
      <point x="229" y="285" type="line"/>
      <point x="350" y="285" type="line" smooth="yes"/>
      <point x="492" y="285"/>
      <point x="609" y="363"/>
    </contour>
    <contour>
      <point x="576" y="498" type="curve" smooth="yes"/>
      <point x="564" y="393"/>
      <point x="473" y="326"/>
      <point x="355" y="326" type="curve" smooth="yes"/>
      <point x="234" y="326" type="line"/>
      <point x="276" y="667" type="line"/>
      <point x="397" y="667" type="line" smooth="yes"/>
      <point x="520" y="667"/>
      <point x="591" y="613"/>
    </contour>
    <contour>
      <point x="344" y="0" type="move" name="bottom"/>
    </contour>
    <contour>
      <point x="344" y="708" type="move" name="top"/>
    </contour>
  </outline>
</glyph>
<glyph name="Q" format="1">
  <advance width="783"/>
  <unicode hex="0051"/>
  <note>
    Q
  </note>
  <outline>
    <contour>
      <point x="726" y="354" type="curve" smooth="yes"/>
      <point x="753" y="563"/>
      <point x="640" y="716"/>
      <point x="433" y="716" type="curve" smooth="yes"/>
      <point x="231" y="716"/>
      <point x="79" y="566"/>
      <point x="52" y="354" type="curve" smooth="yes"/>
      <point x="25" y="143"/>
      <point x="140" y="-8"/>
      <point x="344" y="-8" type="curve" smooth="yes"/>
      <point x="385" y="-8"/>
      <point x="452" y="4"/>
      <point x="488" y="19" type="curve"/>
      <point x="619" y="-144" type="line"/>
      <point x="624" y="-152"/>
      <point x="638" y="-156"/>
      <point x="650" y="-156" type="curve" smooth="yes"/>
      <point x="693" y="-156" type="line"/>
      <point x="533" y="41" type="line"/>
      <point x="643" y="104"/>
      <point x="711" y="224"/>
    </contour>
    <contour>
      <point x="673" y="354" type="curve" smooth="yes"/>
      <point x="652" y="174"/>
      <point x="535" y="37"/>
      <point x="350" y="37" type="curve" smooth="yes"/>
      <point x="170" y="37"/>
      <point x="82" y="169"/>
      <point x="104" y="354" type="curve" smooth="yes"/>
      <point x="127" y="540"/>
      <point x="249" y="672"/>
      <point x="428" y="672" type="curve" smooth="yes"/>
      <point x="606" y="672"/>
      <point x="696" y="544"/>
    </contour>
    <contour>
      <point x="389" y="0" type="move" name="bottom"/>
    </contour>
    <contour>
      <point x="389" y="708" type="move" name="top"/>
    </contour>
  </outline>
</glyph>
<glyph name="R" format="1">
  <advance width="652"/>
  <unicode hex="0052"/>
  <note>
    R
  </note>
  <outline>
    <contour>
      <point x="633" y="38" type="curve"/>
      <point x="596" y="39" type="line"/>
      <point x="416" y="306" type="line" smooth="yes"/>
      <point x="411" y="314"/>
      <point x="404" y="321"/>
      <point x="397" y="326" type="curve"/>
      <point x="514" y="339"/>
      <point x="609" y="409"/>
      <point x="622" y="522" type="curve" smooth="yes"/>
      <point x="637" y="657"/>
      <point x="548" y="708"/>
      <point x="401" y="708" type="curve" smooth="yes"/>
      <point x="145" y="708" type="line"/>
      <point x="143" y="689" type="line" smooth="yes"/>
      <point x="142" y="678"/>
      <point x="148" y="672"/>
      <point x="161" y="671" type="curve"/>
      <point x="225" y="669" type="line"/>
      <point x="148" y="40" type="line"/>
      <point x="83" y="38" type="line"/>
      <point x="70" y="37"/>
      <point x="62" y="31"/>
      <point x="61" y="20" type="curve"/>
      <point x="58" y="0" type="line"/>
      <point x="278" y="0" type="line"/>
      <point x="280" y="20" type="line" smooth="yes"/>
      <point x="281" y="31"/>
      <point x="276" y="37"/>
      <point x="263" y="38" type="curve"/>
      <point x="199" y="40" type="line"/>
      <point x="233" y="320" type="line"/>
      <point x="317" y="320" type="line" smooth="yes"/>
      <point x="342" y="320"/>
      <point x="350" y="318"/>
      <point x="363" y="300" type="curve" smooth="yes"/>
      <point x="554" y="13" type="line"/>
      <point x="560" y="4"/>
      <point x="567" y="0"/>
      <point x="578" y="0" type="curve"/>
      <point x="648" y="0" type="line"/>
      <point x="651" y="20" type="line"/>
      <point x="652" y="31"/>
      <point x="646" y="37"/>
    </contour>
    <contour>
      <point x="352" y="358" type="curve" smooth="yes"/>
      <point x="238" y="358" type="line"/>
      <point x="276" y="668" type="line"/>
      <point x="396" y="668" type="line" smooth="yes"/>
      <point x="509" y="668"/>
      <point x="585" y="628"/>
      <point x="572" y="518" type="curve" smooth="yes"/>
      <point x="560" y="415"/>
      <point x="470" y="358"/>
    </contour>
    <contour>
      <point x="364" y="0" type="move" name="bottom"/>
    </contour>
    <contour>
      <point x="401" y="708" type="move" name="top"/>
    </contour>
  </outline>
</glyph>
<glyph name="S" format="1">
  <advance width="585"/>
  <unicode hex="0053"/>
  <note>
    S
  </note>
  <outline>
    <contour>
      <point x="493" y="207" type="curve" smooth="yes"/>
      <point x="507" y="308"/>
      <point x="442" y="352"/>
      <point x="337" y="386" type="curve" smooth="yes"/>
      <point x="229" y="420"/>
      <point x="168" y="451"/>
      <point x="178" y="536" type="curve" smooth="yes"/>
      <point x="187" y="616"/>
      <point x="260" y="673"/>
      <point x="352" y="673" type="curve" smooth="yes"/>
      <point x="400" y="673"/>
      <point x="443" y="665"/>
      <point x="481" y="648" type="curve"/>
      <point x="474" y="554" type="line"/>
      <point x="473" y="538"/>
      <point x="479" y="529"/>
      <point x="493" y="529" type="curve" smooth="yes"/>
      <point x="517" y="529" type="line"/>
      <point x="535" y="674" type="line"/>
      <point x="475" y="701"/>
      <point x="416" y="715"/>
      <point x="357" y="715" type="curve" smooth="yes"/>
      <point x="241" y="715"/>
      <point x="144" y="643"/>
      <point x="130" y="533" type="curve" smooth="yes"/>
      <point x="117" y="432"/>
      <point x="172" y="388"/>
      <point x="285" y="350" type="curve" smooth="yes"/>
      <point x="395" y="313"/>
      <point x="457" y="290"/>
      <point x="445" y="199" type="curve" smooth="yes"/>
      <point x="432" y="98"/>
      <point x="351" y="35"/>
      <point x="247" y="35" type="curve" smooth="yes"/>
      <point x="191" y="35"/>
      <point x="145" y="44"/>
      <point x="109" y="62" type="curve"/>
      <point x="117" y="165" type="line"/>
      <point x="118" y="181"/>
      <point x="112" y="189"/>
      <point x="98" y="189" type="curve" smooth="yes"/>
      <point x="74" y="189" type="line"/>
      <point x="55" y="31" type="line"/>
      <point x="113" y="5"/>
      <point x="174" y="-8"/>
      <point x="240" y="-8" type="curve" smooth="yes"/>
      <point x="369" y="-8"/>
      <point x="475" y="72"/>
    </contour>
    <contour>
      <point x="252" y="0" type="move" name="bottom"/>
    </contour>
    <contour>
      <point x="351" y="708" type="move" name="top"/>
    </contour>
  </outline>
</glyph>
<glyph name="T" format="1">
  <advance width="621"/>
  <unicode hex="0054"/>
  <note>
    T
  </note>
  <outline>
    <contour>
      <point x="601" y="707" type="line"/>
      <point x="38" y="707" type="line"/>
      <point x="20" y="561" type="line"/>
      <point x="44" y="561" type="line" smooth="yes"/>
      <point x="58" y="561"/>
      <point x="65" y="569"/>
      <point x="68" y="585" type="curve"/>
      <point x="82" y="664" type="line"/>
      <point x="289" y="664" type="line"/>
      <point x="212" y="40" type="line"/>
      <point x="148" y="38" type="line"/>
      <point x="135" y="37"/>
      <point x="127" y="31"/>
      <point x="126" y="20" type="curve"/>
      <point x="123" y="0" type="line"/>
      <point x="343" y="0" type="line"/>
      <point x="345" y="20" type="line" smooth="yes"/>
      <point x="346" y="31"/>
      <point x="340" y="37"/>
      <point x="327" y="38" type="curve"/>
      <point x="263" y="40" type="line"/>
      <point x="340" y="664" type="line"/>
      <point x="546" y="664" type="line"/>
      <point x="540" y="585" type="line"/>
      <point x="539" y="569"/>
      <point x="545" y="561"/>
      <point x="559" y="561" type="curve" smooth="yes"/>
      <point x="583" y="561" type="line"/>
    </contour>
    <contour>
      <point x="226" y="0" type="move" name="bottom"/>
    </contour>
    <contour>
      <point x="302" y="354" type="move" name="center"/>
    </contour>
    <contour>
      <point x="324" y="708" type="move" name="top"/>
    </contour>
  </outline>
</glyph>
<glyph name="U" format="1">
  <advance width="759"/>
  <unicode hex="0055"/>
  <note>
    U
  </note>
  <outline>
    <contour>
      <point x="292" y="-8" type="curve" smooth="yes"/>
      <point x="454" y="-8"/>
      <point x="574" y="107"/>
      <point x="595" y="270" type="curve" smooth="yes"/>
      <point x="643" y="669" type="line"/>
      <point x="708" y="671" type="line"/>
      <point x="721" y="672"/>
      <point x="729" y="678"/>
      <point x="730" y="689" type="curve"/>
      <point x="733" y="708" type="line"/>
      <point x="501" y="708" type="line"/>
      <point x="498" y="689" type="line"/>
      <point x="497" y="678"/>
      <point x="503" y="672"/>
      <point x="516" y="671" type="curve"/>
      <point x="592" y="669" type="line"/>
      <point x="544" y="270" type="line" smooth="yes"/>
      <point x="528" y="135"/>
      <point x="431" y="36"/>
      <point x="298" y="36" type="curve" smooth="yes"/>
      <point x="165" y="36"/>
      <point x="94" y="136"/>
      <point x="110" y="270" type="curve" smooth="yes"/>
      <point x="159" y="669" type="line"/>
      <point x="236" y="671" type="line"/>
      <point x="249" y="672"/>
      <point x="257" y="678"/>
      <point x="258" y="689" type="curve"/>
      <point x="261" y="708" type="line"/>
      <point x="28" y="708" type="line"/>
      <point x="26" y="689" type="line" smooth="yes"/>
      <point x="25" y="678"/>
      <point x="30" y="672"/>
      <point x="43" y="671" type="curve"/>
      <point x="107" y="669" type="line"/>
      <point x="59" y="270" type="line" smooth="yes"/>
      <point x="38" y="113"/>
      <point x="127" y="-8"/>
    </contour>
    <contour>
      <point x="364" y="0" type="move" name="bottom"/>
    </contour>
    <contour>
      <point x="385" y="10" type="move" name="ogonek"/>
    </contour>
    <contour>
      <point x="401" y="708" type="move" name="top"/>
    </contour>
    <contour>
      <point x="721" y="708" type="move" name="topright"/>
    </contour>
  </outline>
</glyph>
<glyph name="V" format="1">
  <advance width="716"/>
  <unicode hex="0056"/>
  <note>
    V
  </note>
  <outline>
    <contour>
      <point x="771" y="708" type="line"/>
      <point x="581" y="708" type="line"/>
      <point x="579" y="689" type="line" smooth="yes"/>
      <point x="578" y="678"/>
      <point x="583" y="672"/>
      <point x="596" y="671" type="curve"/>
      <point x="654" y="669" type="line"/>
      <point x="356" y="107" type="line" smooth="yes"/>
      <point x="348" y="92"/>
      <point x="341" y="76"/>
      <point x="335" y="58" type="curve"/>
      <point x="333" y="75"/>
      <point x="330" y="92"/>
      <point x="326" y="107" type="curve" smooth="yes"/>
      <point x="164" y="669" type="line"/>
      <point x="222" y="671" type="line"/>
      <point x="235" y="672"/>
      <point x="243" y="678"/>
      <point x="244" y="689" type="curve"/>
      <point x="247" y="708" type="line"/>
      <point x="57" y="708" type="line"/>
      <point x="55" y="689" type="line" smooth="yes"/>
      <point x="54" y="678"/>
      <point x="59" y="672"/>
      <point x="72" y="671" type="curve"/>
      <point x="111" y="669" type="line"/>
      <point x="304" y="0" type="line"/>
      <point x="350" y="0" type="line"/>
      <point x="708" y="669" type="line"/>
      <point x="747" y="671" type="line"/>
      <point x="760" y="672"/>
      <point x="768" y="678"/>
      <point x="769" y="689" type="curve" smooth="yes"/>
    </contour>
    <contour>
      <point x="403" y="0" type="move" name="bottom"/>
    </contour>
    <contour>
      <point x="403" y="708" type="move" name="top"/>
    </contour>
  </outline>
</glyph>
<glyph name="W" format="1">
  <advance width="1056"/>
  <unicode hex="0057"/>
  <note>
    W
  </note>
  <outline>
    <contour>
      <point x="1111" y="708" type="line"/>
      <point x="921" y="708" type="line"/>
      <point x="919" y="689" type="line" smooth="yes"/>
      <point x="918" y="678"/>
      <point x="924" y="672"/>
      <point x="937" y="671" type="curve"/>
      <point x="998" y="669" type="line"/>
      <point x="759" y="113" type="line" smooth="yes"/>
      <point x="759" y="113"/>
      <point x="744" y="69"/>
      <point x="744" y="68" type="curve"/>
      <point x="738" y="113" type="line"/>
      <point x="610" y="695" type="line" smooth="yes"/>
      <point x="608" y="704"/>
      <point x="602" y="708"/>
      <point x="593" y="708" type="curve" smooth="yes"/>
      <point x="579" y="708" type="line" smooth="yes"/>
      <point x="570" y="708"/>
      <point x="562" y="702"/>
      <point x="558" y="695" type="curve" smooth="yes"/>
      <point x="287" y="112" type="line" smooth="yes"/>
      <point x="281" y="98"/>
      <point x="275" y="82"/>
      <point x="270" y="67" type="curve"/>
      <point x="270" y="82"/>
      <point x="268" y="99"/>
      <point x="266" y="113" type="curve"/>
      <point x="163" y="669" type="line"/>
      <point x="222" y="671" type="line"/>
      <point x="235" y="672"/>
      <point x="243" y="678"/>
      <point x="244" y="689" type="curve"/>
      <point x="247" y="708" type="line"/>
      <point x="57" y="708" type="line"/>
      <point x="55" y="689" type="line" smooth="yes"/>
      <point x="54" y="678"/>
      <point x="59" y="672"/>
      <point x="72" y="671" type="curve"/>
      <point x="107" y="669" type="line"/>
      <point x="235" y="0" type="line"/>
      <point x="281" y="0" type="line"/>
      <point x="566" y="615" type="line" smooth="yes"/>
      <point x="570" y="623"/>
      <point x="573" y="631"/>
      <point x="576" y="640" type="curve"/>
      <point x="577" y="631"/>
      <point x="578" y="623"/>
      <point x="580" y="615" type="curve" smooth="yes"/>
      <point x="713" y="0" type="line"/>
      <point x="759" y="0" type="line"/>
      <point x="1052" y="669" type="line"/>
      <point x="1087" y="671" type="line"/>
      <point x="1100" y="672"/>
      <point x="1108" y="678"/>
      <point x="1109" y="689" type="curve" smooth="yes"/>
    </contour>
    <contour>
      <point x="573" y="0" type="move" name="bottom"/>
    </contour>
    <contour>
      <point x="573" y="708" type="move" name="top"/>
    </contour>
  </outline>
</glyph>
<glyph name="X" format="1">
  <advance width="725"/>
  <unicode hex="0058"/>
  <note>
    X
  </note>
  <outline>
    <contour>
      <point x="629" y="38" type="curve"/>
      <point x="593" y="40" type="line"/>
      <point x="406" y="366" type="line"/>
      <point x="659" y="669" type="line"/>
      <point x="700" y="671" type="line"/>
      <point x="713" y="672"/>
      <point x="721" y="678"/>
      <point x="722" y="689" type="curve" smooth="yes"/>
      <point x="724" y="708" type="line"/>
      <point x="526" y="708" type="line"/>
      <point x="524" y="689" type="line" smooth="yes"/>
      <point x="523" y="678"/>
      <point x="528" y="672"/>
      <point x="541" y="671" type="curve"/>
      <point x="603" y="669" type="line"/>
      <point x="383" y="403" type="line"/>
      <point x="382" y="401"/>
      <point x="376" y="392"/>
      <point x="374" y="387" type="curve"/>
      <point x="214" y="669" type="line"/>
      <point x="269" y="671" type="line"/>
      <point x="282" y="672"/>
      <point x="290" y="678"/>
      <point x="291" y="689" type="curve"/>
      <point x="294" y="708" type="line"/>
      <point x="100" y="708" type="line"/>
      <point x="97" y="689" type="line"/>
      <point x="96" y="678"/>
      <point x="102" y="672"/>
      <point x="115" y="671" type="curve"/>
      <point x="155" y="669" type="line"/>
      <point x="333" y="363" type="line"/>
      <point x="66" y="40" type="line"/>
      <point x="25" y="38" type="line"/>
      <point x="12" y="37"/>
      <point x="4" y="31"/>
      <point x="3" y="20" type="curve" smooth="yes"/>
      <point x="1" y="0" type="line"/>
      <point x="199" y="0" type="line"/>
      <point x="202" y="20" type="line"/>
      <point x="203" y="31"/>
      <point x="197" y="37"/>
      <point x="184" y="38" type="curve"/>
      <point x="123" y="40" type="line"/>
      <point x="122" y="40" type="line"/>
      <point x="357" y="324" type="line" smooth="yes"/>
      <point x="361" y="329"/>
      <point x="364" y="333"/>
      <point x="366" y="338" type="curve"/>
      <point x="534" y="40" type="line"/>
      <point x="477" y="38" type="line"/>
      <point x="464" y="37"/>
      <point x="456" y="31"/>
      <point x="455" y="20" type="curve" smooth="yes"/>
      <point x="453" y="0" type="line"/>
      <point x="645" y="0" type="line"/>
      <point x="647" y="20" type="line" smooth="yes"/>
      <point x="648" y="31"/>
      <point x="642" y="37"/>
    </contour>
    <contour>
      <point x="358" y="0" type="move" name="bottom"/>
    </contour>
    <contour>
      <point x="358" y="708" type="move" name="top"/>
    </contour>
  </outline>
</glyph>
<glyph name="Y" format="1">
  <advance width="658"/>
  <unicode hex="0059"/>
  <note>
    Y
  </note>
  <outline>
    <contour>
      <point x="704" y="708" type="line"/>
      <point x="520" y="708" type="line"/>
      <point x="517" y="689" type="line"/>
      <point x="516" y="678"/>
      <point x="522" y="672"/>
      <point x="535" y="671" type="curve"/>
      <point x="587" y="669" type="line"/>
      <point x="365" y="370" type="line" smooth="yes"/>
      <point x="358" y="360"/>
      <point x="344" y="335"/>
      <point x="339" y="326" type="curve"/>
      <point x="336" y="335"/>
      <point x="328" y="360"/>
      <point x="323" y="370" type="curve" smooth="yes"/>
      <point x="174" y="669" type="line"/>
      <point x="226" y="671" type="line"/>
      <point x="239" y="672"/>
      <point x="246" y="678"/>
      <point x="248" y="689" type="curve"/>
      <point x="251" y="708" type="line"/>
      <point x="66" y="708" type="line"/>
      <point x="64" y="689" type="line" smooth="yes"/>
      <point x="63" y="678"/>
      <point x="68" y="672"/>
      <point x="81" y="671" type="curve"/>
      <point x="118" y="669" type="line"/>
      <point x="308" y="292" type="line"/>
      <point x="277" y="40" type="line"/>
      <point x="213" y="38" type="line"/>
      <point x="200" y="37"/>
      <point x="192" y="31"/>
      <point x="191" y="20" type="curve"/>
      <point x="188" y="0" type="line"/>
      <point x="408" y="0" type="line"/>
      <point x="411" y="20" type="line"/>
      <point x="412" y="31"/>
      <point x="406" y="37"/>
      <point x="393" y="38" type="curve"/>
      <point x="329" y="40" type="line"/>
      <point x="360" y="292" type="line"/>
      <point x="643" y="669" type="line"/>
      <point x="680" y="671" type="line"/>
      <point x="693" y="672"/>
      <point x="701" y="678"/>
      <point x="702" y="689" type="curve" smooth="yes"/>
    </contour>
    <contour>
      <point x="374" y="0" type="move" name="bottom"/>
    </contour>
    <contour>
      <point x="374" y="708" type="move" name="top"/>
    </contour>
    <contour>
      <point x="54" y="708" type="move" name="topleft"/>
    </contour>
  </outline>
</glyph>
<glyph name="Z" format="1">
  <advance width="681"/>
  <unicode hex="005A"/>
  <note>
    Z
  </note>
  <outline>
    <contour>
      <point x="644" y="691" type="curve" smooth="yes"/>
      <point x="646" y="708" type="line"/>
      <point x="135" y="708" type="line"/>
      <point x="116" y="557" type="line"/>
      <point x="141" y="557" type="line" smooth="yes"/>
      <point x="155" y="557"/>
      <point x="162" y="565"/>
      <point x="165" y="581" type="curve"/>
      <point x="182" y="666" type="line"/>
      <point x="573" y="666" type="line"/>
      <point x="45" y="36" type="line" smooth="yes"/>
      <point x="40" y="30"/>
      <point x="38" y="25"/>
      <point x="37" y="19" type="curve"/>
      <point x="35" y="0" type="line"/>
      <point x="555" y="0" type="line"/>
      <point x="574" y="152" type="line"/>
      <point x="549" y="152" type="line" smooth="yes"/>
      <point x="535" y="152"/>
      <point x="528" y="143"/>
      <point x="525" y="127" type="curve"/>
      <point x="508" y="42" type="line"/>
      <point x="108" y="42" type="line"/>
      <point x="634" y="670" type="line"/>
      <point x="639" y="677"/>
      <point x="643" y="684"/>
    </contour>
    <contour>
      <point x="309" y="0" type="move" name="bottom"/>
    </contour>
    <contour>
      <point x="378" y="708" type="move" name="top"/>
    </contour>
  </outline>
</glyph>
<glyph name="bracketleft" format="1">
  <advance width="426"/>
  <unicode hex="005B"/>
  <note>
    bracketleft
  </note>
  <outline>
    <contour>
      <point x="206" y="758" type="line"/>
      <point x="97" y="-132" type="line"/>
      <point x="256" y="-132" type="line"/>
      <point x="258" y="-114" type="line"/>
      <point x="259" y="-104"/>
      <point x="253" y="-100"/>
      <point x="244" y="-100" type="curve" smooth="yes"/>
      <point x="141" y="-100" type="line"/>
      <point x="243" y="726" type="line"/>
      <point x="346" y="726" type="line" smooth="yes"/>
      <point x="356" y="726"/>
      <point x="361" y="731"/>
      <point x="363" y="740" type="curve"/>
      <point x="365" y="758" type="line"/>
    </contour>
  </outline>
</glyph>
<glyph name="backslash" format="1">
  <advance width="318"/>
  <unicode hex="005C"/>
  <note>
    backslash
  </note>
  <outline>
    <contour>
      <point x="48" y="728" type="curve" smooth="yes"/>
      <point x="27" y="728" type="line"/>
      <point x="246" y="-22" type="line" smooth="yes"/>
      <point x="250" y="-35"/>
      <point x="260" y="-42"/>
      <point x="272" y="-42" type="curve" smooth="yes"/>
      <point x="292" y="-42" type="line"/>
      <point x="73" y="709" type="line"/>
      <point x="70" y="721"/>
      <point x="61" y="728"/>
    </contour>
  </outline>
</glyph>
<glyph name="bracketright" format="1">
  <advance width="426"/>
  <unicode hex="005D"/>
  <note>
    bracketright
  </note>
  <outline>
    <contour>
      <point x="220" y="-132" type="line"/>
      <point x="329" y="758" type="line"/>
      <point x="170" y="758" type="line"/>
      <point x="168" y="740" type="line"/>
      <point x="167" y="730"/>
      <point x="173" y="726"/>
      <point x="182" y="726" type="curve" smooth="yes"/>
      <point x="285" y="726" type="line"/>
      <point x="183" y="-100" type="line"/>
      <point x="80" y="-100" type="line" smooth="yes"/>
      <point x="70" y="-100"/>
      <point x="65" y="-105"/>
      <point x="63" y="-114" type="curve"/>
      <point x="61" y="-132" type="line"/>
    </contour>
  </outline>
</glyph>
<glyph name="asciicircum" format="1">
  <advance width="463"/>
  <unicode hex="005E"/>
  <note>
    asciicircum
  </note>
  <outline>
    <contour>
      <point x="284" y="708" type="line"/>
      <point x="254" y="708" type="line"/>
      <point x="46" y="400" type="line"/>
      <point x="82" y="400" type="line" smooth="yes"/>
      <point x="90" y="400"/>
      <point x="96" y="407"/>
      <point x="100" y="412" type="curve" smooth="yes"/>
      <point x="247" y="630" type="line"/>
      <point x="264" y="663" type="line"/>
      <point x="274" y="630" type="line"/>
      <point x="368" y="412" type="line"/>
      <point x="370" y="406"/>
      <point x="375" y="400"/>
      <point x="383" y="400" type="curve" smooth="yes"/>
      <point x="417" y="400" type="line"/>
    </contour>
  </outline>
</glyph>
<glyph name="underscore" format="1">
  <advance width="399"/>
  <unicode hex="005F"/>
  <note>
    underscore
  </note>
  <outline>
    <contour>
      <point x="394" y="-136" type="line"/>
      <point x="399" y="-102" type="line"/>
      <point x="5" y="-102" type="line"/>
      <point x="0" y="-136" type="line"/>
    </contour>
  </outline>
</glyph>
<glyph name="grave" format="1">
  <advance width="238"/>
  <unicode hex="0060"/>
  <note>
    grave
  </note>
  <outline>
    <contour>
      <point x="96" y="716" type="curve" smooth="yes"/>
      <point x="50" y="716" type="line"/>
      <point x="143" y="589" type="line"/>
      <point x="147" y="583"/>
      <point x="153" y="580"/>
      <point x="161" y="580" type="curve" smooth="yes"/>
      <point x="188" y="580" type="line"/>
      <point x="124" y="700" type="line" smooth="yes"/>
      <point x="119" y="709"/>
      <point x="113" y="716"/>
    </contour>
  </outline>
</glyph>
<glyph name="a" format="1">
  <advance width="486"/>
  <unicode hex="0061"/>
  <note>
    a
  </note>
  <outline>
    <contour>
      <point x="446" y="38" type="curve"/>
      <point x="400" y="39" type="line"/>
      <point x="454" y="481" type="line"/>
      <point x="422" y="498"/>
      <point x="386" y="504"/>
      <point x="346" y="504" type="curve" smooth="yes"/>
      <point x="183" y="504"/>
      <point x="43" y="342"/>
      <point x="43" y="167" type="curve" smooth="yes"/>
      <point x="43" y="71"/>
      <point x="78" y="-6"/>
      <point x="169" y="-6" type="curve" smooth="yes"/>
      <point x="258" y="-6"/>
      <point x="330" y="81"/>
      <point x="372" y="172" type="curve"/>
      <point x="355" y="16" type="line"/>
      <point x="355" y="10"/>
      <point x="359" y="0"/>
      <point x="372" y="0" type="curve"/>
      <point x="461" y="0" type="line"/>
      <point x="464" y="20" type="line"/>
      <point x="465" y="31"/>
      <point x="459" y="37"/>
    </contour>
    <contour>
      <point x="344" y="157"/>
      <point x="277" y="33"/>
      <point x="184" y="33" type="curve" smooth="yes"/>
      <point x="113" y="33"/>
      <point x="90" y="96"/>
      <point x="90" y="175" type="curve" smooth="yes"/>
      <point x="90" y="320"/>
      <point x="205" y="469"/>
      <point x="341" y="469" type="curve" smooth="yes"/>
      <point x="364" y="469"/>
      <point x="385" y="466"/>
      <point x="405" y="459" type="curve"/>
      <point x="380" y="256" type="line"/>
    </contour>
    <contour>
      <point x="268" y="0" type="move" name="bottom"/>
    </contour>
    <contour>
      <point x="469" y="10" type="move" name="ogonek"/>
    </contour>
    <contour>
      <point x="342" y="498" type="move" name="top"/>
    </contour>
  </outline>
</glyph>
<glyph name="b" format="1">
  <advance width="499"/>
  <unicode hex="0062"/>
  <note>
    b
  </note>
  <outline>
    <contour>
      <point x="472" y="402"/>
      <point x="427" y="506"/>
      <point x="291" y="506" type="curve" smooth="yes"/>
      <point x="219" y="506"/>
      <point x="157" y="469"/>
      <point x="105" y="411" type="curve"/>
      <point x="144" y="728" type="line"/>
      <point x="24" y="728" type="line"/>
      <point x="21" y="708" type="line"/>
      <point x="20" y="697"/>
      <point x="26" y="691"/>
      <point x="39" y="690" type="curve"/>
      <point x="91" y="688" type="line"/>
      <point x="9" y="22" type="line"/>
      <point x="95" y="3"/>
      <point x="160" y="-6"/>
      <point x="205" y="-6" type="curve" smooth="yes"/>
      <point x="345" y="-6"/>
      <point x="438" y="110"/>
      <point x="454" y="252" type="curve" smooth="yes"/>
    </contour>
    <contour>
      <point x="389" y="124"/>
      <point x="321" y="31"/>
      <point x="201" y="31" type="curve" smooth="yes"/>
      <point x="175" y="31"/>
      <point x="129" y="38"/>
      <point x="61" y="52" type="curve"/>
      <point x="100" y="371" type="line"/>
      <point x="146" y="426"/>
      <point x="202" y="468"/>
      <point x="273" y="468" type="curve" smooth="yes"/>
      <point x="386" y="468"/>
      <point x="421" y="384"/>
      <point x="405" y="252" type="curve" smooth="yes"/>
    </contour>
    <contour>
      <point x="232" y="0" type="move" name="bottom"/>
    </contour>
    <contour>
      <point x="232" y="498" type="move" name="top"/>
    </contour>
  </outline>
</glyph>
<glyph name="c" format="1">
  <advance width="469"/>
  <unicode hex="0063"/>
  <note>
    c
  </note>
  <outline>
    <contour>
      <point x="405" y="64" type="curve"/>
      <point x="394" y="80" type="line" smooth="yes"/>
      <point x="389" y="87"/>
      <point x="381" y="87"/>
      <point x="369" y="77" type="curve" smooth="yes"/>
      <point x="338" y="50"/>
      <point x="288" y="31"/>
      <point x="238" y="31" type="curve" smooth="yes"/>
      <point x="125" y="31"/>
      <point x="77" y="120"/>
      <point x="92" y="249" type="curve" smooth="yes"/>
      <point x="107" y="370"/>
      <point x="174" y="468"/>
      <point x="298" y="468" type="curve" smooth="yes"/>
      <point x="323" y="468"/>
      <point x="351" y="462"/>
      <point x="381" y="451" type="curve"/>
      <point x="381" y="452"/>
      <point x="377" y="369"/>
      <point x="377" y="373" type="curve"/>
      <point x="376" y="357"/>
      <point x="382" y="349"/>
      <point x="396" y="349" type="curve" smooth="yes"/>
      <point x="420" y="349" type="line"/>
      <point x="436" y="474" type="line"/>
      <point x="412" y="484"/>
      <point x="365" y="505"/>
      <point x="300" y="505" type="curve" smooth="yes"/>
      <point x="151" y="505"/>
      <point x="65" y="400"/>
      <point x="44" y="249" type="curve" smooth="yes"/>
      <point x="26" y="102"/>
      <point x="89" y="-7"/>
      <point x="226" y="-7" type="curve" smooth="yes"/>
      <point x="287" y="-7"/>
      <point x="362" y="16"/>
    </contour>
    <contour>
      <point x="238" y="0" type="move" name="bottom"/>
    </contour>
    <contour>
      <point x="301" y="498" type="move" name="top"/>
    </contour>
  </outline>
</glyph>
<glyph name="d" format="1">
  <advance width="542"/>
  <unicode hex="0064"/>
  <note>
    d
  </note>
  <outline>
    <contour>
      <point x="498" y="0" type="line"/>
      <point x="500" y="20" type="line"/>
      <point x="501" y="31"/>
      <point x="495" y="37"/>
      <point x="482" y="38" type="curve"/>
      <point x="436" y="39" type="line"/>
      <point x="520" y="728" type="line"/>
      <point x="400" y="728" type="line"/>
      <point x="398" y="708" type="line" smooth="yes"/>
      <point x="397" y="697"/>
      <point x="403" y="691"/>
      <point x="416" y="690" type="curve"/>
      <point x="468" y="688" type="line"/>
      <point x="436" y="433" type="line"/>
      <point x="404" y="484"/>
      <point x="356" y="506"/>
      <point x="294" y="506" type="curve" smooth="yes"/>
      <point x="154" y="506"/>
      <point x="61" y="392"/>
      <point x="45" y="248" type="curve" smooth="yes"/>
      <point x="27" y="97"/>
      <point x="71" y="-6"/>
      <point x="208" y="-6" type="curve" smooth="yes"/>
      <point x="283" y="-6"/>
      <point x="343" y="31"/>
      <point x="396" y="92" type="curve"/>
      <point x="392" y="13" type="line"/>
      <point x="392" y="4"/>
      <point x="397" y="0"/>
      <point x="405" y="0" type="curve" smooth="yes"/>
    </contour>
    <contour>
      <point x="431" y="391" type="curve"/>
      <point x="399" y="129" type="line"/>
      <point x="353" y="74"/>
      <point x="297" y="32"/>
      <point x="226" y="32" type="curve" smooth="yes"/>
      <point x="108" y="32"/>
      <point x="79" y="121"/>
      <point x="94" y="248" type="curve" smooth="yes"/>
      <point x="110" y="369"/>
      <point x="174" y="469"/>
      <point x="298" y="469" type="curve" smooth="yes"/>
      <point x="360" y="469"/>
      <point x="400" y="445"/>
    </contour>
    <contour>
      <point x="282" y="0" type="move" name="bottom"/>
    </contour>
    <contour>
      <point x="425" y="582" type="move" name="center"/>
    </contour>
    <contour>
      <point x="282" y="498" type="move" name="top"/>
    </contour>
    <contour>
      <point x="503" y="498" type="move" name="topright"/>
    </contour>
  </outline>
</glyph>
<glyph name="e" format="1">
  <advance width="466"/>
  <unicode hex="0065"/>
  <note>
    e
  </note>
  <outline>
    <contour>
      <point x="425" y="402" type="curve" smooth="yes"/>
      <point x="425" y="463"/>
      <point x="367" y="504"/>
      <point x="292" y="504" type="curve" smooth="yes"/>
      <point x="143" y="504"/>
      <point x="41" y="352"/>
      <point x="41" y="189" type="curve" smooth="yes"/>
      <point x="41" y="77"/>
      <point x="96" y="-6"/>
      <point x="214" y="-6" type="curve" smooth="yes"/>
      <point x="294" y="-6"/>
      <point x="358" y="28"/>
      <point x="412" y="92" type="curve"/>
      <point x="401" y="105" type="line"/>
      <point x="394" y="112"/>
      <point x="385" y="112"/>
      <point x="378" y="105" type="curve" smooth="yes"/>
      <point x="319" y="53"/>
      <point x="292" y="31"/>
      <point x="222" y="31" type="curve" smooth="yes"/>
      <point x="129" y="31"/>
      <point x="87" y="95"/>
      <point x="87" y="190" type="curve" smooth="yes"/>
      <point x="87" y="195"/>
      <point x="89" y="229"/>
      <point x="89" y="231" type="curve"/>
      <point x="225" y="247"/>
      <point x="425" y="268"/>
    </contour>
    <contour>
      <point x="290" y="469" type="curve" smooth="yes"/>
      <point x="343" y="469"/>
      <point x="383" y="445"/>
      <point x="383" y="401" type="curve" smooth="yes"/>
      <point x="383" y="299"/>
      <point x="214" y="278"/>
      <point x="95" y="264" type="curve"/>
      <point x="115" y="369"/>
      <point x="184" y="469"/>
    </contour>
    <contour>
      <point x="234" y="0" type="move" name="bottom"/>
    </contour>
    <contour>
      <point x="409" y="10" type="move" name="ogonek"/>
    </contour>
    <contour>
      <point x="290" y="498" type="move" name="top"/>
    </contour>
  </outline>
</glyph>
<glyph name="f" format="1">
  <advance width="452"/>
  <unicode hex="0066"/>
  <note>
    f
  </note>
  <outline>
    <contour>
      <point x="472" y="714"/>
      <point x="456" y="716"/>
      <point x="434" y="716" type="curve" smooth="yes"/>
      <point x="332" y="716"/>
      <point x="271" y="644"/>
      <point x="260" y="545" type="curve" smooth="yes"/>
      <point x="253" y="482" type="line"/>
      <point x="168" y="482" type="line"/>
      <point x="166" y="462" type="line" smooth="yes"/>
      <point x="165" y="454"/>
      <point x="169" y="451"/>
      <point x="179" y="450" type="curve" smooth="yes"/>
      <point x="248" y="445" type="line"/>
      <point x="194" y="2" type="line" smooth="yes"/>
      <point x="183" y="-86"/>
      <point x="132" y="-146"/>
      <point x="49" y="-146" type="curve" smooth="yes"/>
      <point x="37" y="-146"/>
      <point x="31" y="-151"/>
      <point x="31" y="-162" type="curve" smooth="yes"/>
      <point x="31" y="-186" type="line"/>
      <point x="155" y="-186"/>
      <point x="225" y="-121"/>
      <point x="241" y="1" type="curve" smooth="yes"/>
      <point x="296" y="446" type="line"/>
      <point x="456" y="446" type="line"/>
      <point x="461" y="482" type="line"/>
      <point x="299" y="482" type="line"/>
      <point x="307" y="543" type="line" smooth="yes"/>
      <point x="317" y="623"/>
      <point x="352" y="679"/>
      <point x="436" y="679" type="curve" smooth="yes"/>
      <point x="446" y="679"/>
      <point x="454" y="678"/>
      <point x="461" y="677" type="curve" smooth="yes"/>
      <point x="478" y="674"/>
      <point x="486" y="677"/>
      <point x="488" y="686" type="curve" smooth="yes"/>
      <point x="492" y="706" type="line"/>
    </contour>
    <contour>
      <point x="264" y="0" type="move" name="bottom"/>
    </contour>
    <contour>
      <point x="264" y="498" type="move" name="top"/>
    </contour>
  </outline>
</glyph>
<glyph name="g" format="1">
  <advance width="532"/>
  <unicode hex="0067"/>
  <note>
    g
  </note>
  <outline>
    <contour>
      <point x="426" y="369" type="curve" smooth="yes"/>
      <point x="426" y="391"/>
      <point x="420" y="423"/>
      <point x="407" y="445" type="curve"/>
      <point x="488" y="451" type="line"/>
      <point x="496" y="453"/>
      <point x="502" y="459"/>
      <point x="502" y="465" type="curve"/>
      <point x="504" y="481" type="line"/>
      <point x="374" y="481" type="line"/>
      <point x="347" y="499"/>
      <point x="319" y="506"/>
      <point x="286" y="506" type="curve" smooth="yes"/>
      <point x="180" y="506"/>
      <point x="103" y="424"/>
      <point x="103" y="322" type="curve" smooth="yes"/>
      <point x="103" y="238"/>
      <point x="153" y="183"/>
      <point x="236" y="183" type="curve" smooth="yes"/>
      <point x="273" y="183"/>
      <point x="297" y="191"/>
      <point x="329" y="212" type="curve"/>
      <point x="313" y="187"/>
      <point x="300" y="163"/>
      <point x="300" y="132" type="curve" smooth="yes"/>
      <point x="300" y="114"/>
      <point x="308" y="95"/>
      <point x="320" y="79" type="curve"/>
      <point x="314" y="80"/>
      <point x="266" y="84"/>
      <point x="252" y="84" type="curve" smooth="yes"/>
      <point x="137" y="84"/>
      <point x="15" y="38"/>
      <point x="15" y="-66" type="curve" smooth="yes"/>
      <point x="15" y="-147"/>
      <point x="100" y="-184"/>
      <point x="194" y="-184" type="curve" smooth="yes"/>
      <point x="302" y="-184"/>
      <point x="415" y="-122"/>
      <point x="415" y="-22" type="curve" smooth="yes"/>
      <point x="415" y="12"/>
      <point x="399" y="42"/>
      <point x="375" y="69" type="curve" smooth="yes"/>
      <point x="353" y="94"/>
      <point x="335" y="119"/>
      <point x="335" y="146" type="curve" smooth="yes"/>
      <point x="335" y="165"/>
      <point x="346" y="193"/>
      <point x="358" y="211" type="curve" smooth="yes"/>
      <point x="401" y="272"/>
      <point x="426" y="309"/>
    </contour>
    <contour>
      <point x="372" y="-25" type="curve" smooth="yes"/>
      <point x="372" y="-97"/>
      <point x="285" y="-150"/>
      <point x="198" y="-150" type="curve" smooth="yes"/>
      <point x="128" y="-150"/>
      <point x="60" y="-127"/>
      <point x="60" y="-60" type="curve" smooth="yes"/>
      <point x="60" y="19"/>
      <point x="162" y="55"/>
      <point x="256" y="55" type="curve" smooth="yes"/>
      <point x="271" y="55"/>
      <point x="329" y="51"/>
      <point x="345" y="48" type="curve"/>
      <point x="344" y="49" type="line"/>
      <point x="361" y="28"/>
      <point x="372" y="6"/>
    </contour>
    <contour>
      <point x="247" y="214" type="curve" smooth="yes"/>
      <point x="184" y="214"/>
      <point x="147" y="252"/>
      <point x="147" y="322" type="curve" smooth="yes"/>
      <point x="147" y="403"/>
      <point x="202" y="472"/>
      <point x="281" y="472" type="curve" smooth="yes"/>
      <point x="347" y="472"/>
      <point x="383" y="434"/>
      <point x="383" y="368" type="curve" smooth="yes"/>
      <point x="383" y="287"/>
      <point x="330" y="214"/>
    </contour>
    <contour>
      <point x="264" y="0" type="move" name="bottom"/>
    </contour>
    <contour>
      <point x="264" y="498" type="move" name="top"/>
    </contour>
  </outline>
</glyph>
<glyph name="h" format="1">
  <advance width="518"/>
  <unicode hex="0068"/>
  <note>
    h
  </note>
  <outline>
    <contour>
      <point x="479" y="38" type="curve"/>
      <point x="426" y="40" type="line"/>
      <point x="461" y="318" type="line" smooth="yes"/>
      <point x="476" y="426"/>
      <point x="432" y="505"/>
      <point x="318" y="505" type="curve" smooth="yes"/>
      <point x="245" y="505"/>
      <point x="182" y="469"/>
      <point x="129" y="412" type="curve"/>
      <point x="167" y="727" type="line"/>
      <point x="48" y="727" type="line"/>
      <point x="45" y="708" type="line"/>
      <point x="44" y="697"/>
      <point x="50" y="691"/>
      <point x="63" y="690" type="curve"/>
      <point x="115" y="688" type="line"/>
      <point x="31" y="0" type="line"/>
      <point x="78" y="0" type="line"/>
      <point x="124" y="373" type="line"/>
      <point x="173" y="427"/>
      <point x="229" y="467"/>
      <point x="301" y="467" type="curve" smooth="yes"/>
      <point x="392" y="467"/>
      <point x="425" y="410"/>
      <point x="413" y="318" type="curve" smooth="yes"/>
      <point x="374" y="0" type="line"/>
      <point x="494" y="0" type="line"/>
      <point x="496" y="20" type="line" smooth="yes"/>
      <point x="497" y="31"/>
      <point x="492" y="37"/>
    </contour>
    <contour>
      <point x="268" y="0" type="move" name="bottom"/>
    </contour>
    <contour>
      <point x="268" y="249" type="move" name="center"/>
    </contour>
    <contour>
      <point x="268" y="498" type="move" name="top"/>
    </contour>
  </outline>
</glyph>
<glyph name="i" format="1">
  <advance width="216"/>
  <unicode hex="0069"/>
  <note>
    i
  </note>
  <outline>
    <contour>
      <point x="149" y="38" type="curve"/>
      <point x="97" y="40" type="line"/>
      <point x="153" y="498" type="line"/>
      <point x="33" y="498" type="line"/>
      <point x="31" y="478" type="line" smooth="yes"/>
      <point x="30" y="467"/>
      <point x="35" y="461"/>
      <point x="48" y="460" type="curve"/>
      <point x="101" y="458" type="line"/>
      <point x="44" y="0" type="line"/>
      <point x="164" y="0" type="line"/>
      <point x="166" y="20" type="line" smooth="yes"/>
      <point x="167" y="31"/>
      <point x="162" y="37"/>
    </contour>
    <component base="dotaccentcomb.case" xOffset="16"/>
    <contour>
      <point x="108" y="0" type="move" name="bottom"/>
    </contour>
  </outline>
</glyph>
<glyph name="j" format="1">
  <advance width="213"/>
  <unicode hex="006A"/>
  <note>
    j
  </note>
  <outline>
    <contour>
      <point x="152" y="498" type="line"/>
      <point x="32" y="498" type="line"/>
      <point x="30" y="479" type="line" smooth="yes"/>
      <point x="29" y="468"/>
      <point x="35" y="462"/>
      <point x="48" y="461" type="curve"/>
      <point x="100" y="459" type="line"/>
      <point x="36" y="-63" type="line" smooth="yes"/>
      <point x="30" y="-113"/>
      <point x="2" y="-148"/>
      <point x="-54" y="-148" type="curve" smooth="yes"/>
      <point x="-62" y="-148"/>
      <point x="-69" y="-147"/>
      <point x="-74" y="-146" type="curve" smooth="yes"/>
      <point x="-79" y="-145"/>
      <point x="-91" y="-140"/>
      <point x="-93" y="-150" type="curve"/>
      <point x="-98" y="-174" type="line"/>
      <point x="-85" y="-181"/>
      <point x="-68" y="-184"/>
      <point x="-51" y="-184" type="curve" smooth="yes"/>
      <point x="25" y="-184"/>
      <point x="74" y="-138"/>
      <point x="83" y="-63" type="curve" smooth="yes"/>
    </contour>
    <component base="dotaccent" xOffset="54" yOffset="-4"/>
  </outline>
</glyph>
<glyph name="k" format="1">
  <advance width="491"/>
  <unicode hex="006B"/>
  <note>
    k
  </note>
  <outline>
    <contour>
      <point x="471" y="498" type="line"/>
      <point x="317" y="498" type="line"/>
      <point x="314" y="478" type="line"/>
      <point x="313" y="467"/>
      <point x="319" y="461"/>
      <point x="332" y="460" type="curve"/>
      <point x="357" y="459" type="line"/>
      <point x="164" y="295" type="line" smooth="yes"/>
      <point x="158" y="290"/>
      <point x="149" y="284"/>
      <point x="136" y="284" type="curve" smooth="yes"/>
      <point x="113" y="284" type="line"/>
      <point x="167" y="727" type="line"/>
      <point x="120" y="727" type="line"/>
      <point x="48" y="727" type="line"/>
      <point x="45" y="708" type="line"/>
      <point x="44" y="697"/>
      <point x="50" y="691"/>
      <point x="63" y="690" type="curve"/>
      <point x="115" y="688" type="line"/>
      <point x="31" y="0" type="line"/>
      <point x="78" y="0" type="line"/>
      <point x="109" y="251" type="line"/>
      <point x="131" y="251" type="line" smooth="yes"/>
      <point x="150" y="251"/>
      <point x="155" y="249"/>
      <point x="167" y="235" type="curve" smooth="yes"/>
      <point x="348" y="11" type="line"/>
      <point x="351" y="7"/>
      <point x="359" y="0"/>
      <point x="370" y="0" type="curve"/>
      <point x="434" y="0" type="line"/>
      <point x="436" y="20" type="line" smooth="yes"/>
      <point x="437" y="31"/>
      <point x="432" y="37"/>
      <point x="419" y="38" type="curve"/>
      <point x="381" y="39" type="line"/>
      <point x="202" y="263" type="line"/>
      <point x="202" y="263"/>
      <point x="195" y="271"/>
      <point x="190" y="272" type="curve"/>
      <point x="195" y="274"/>
      <point x="211" y="289"/>
      <point x="211" y="289" type="curve"/>
      <point x="410" y="458" type="line"/>
      <point x="446" y="460" type="line"/>
      <point x="459" y="461"/>
      <point x="467" y="467"/>
      <point x="468" y="478" type="curve"/>
    </contour>
    <contour>
      <point x="239" y="0" type="move" name="bottom"/>
    </contour>
    <contour>
      <point x="239" y="498" type="move" name="top"/>
    </contour>
  </outline>
</glyph>
<glyph name="l" format="1">
  <advance width="189"/>
  <unicode hex="006C"/>
  <note>
    l
  </note>
  <outline>
    <contour>
      <point x="135" y="38" type="curve"/>
      <point x="83" y="40" type="line"/>
      <point x="167" y="728" type="line"/>
      <point x="48" y="728" type="line"/>
      <point x="45" y="708" type="line"/>
      <point x="44" y="697"/>
      <point x="50" y="691"/>
      <point x="63" y="690" type="curve"/>
      <point x="115" y="688" type="line"/>
      <point x="31" y="0" type="line"/>
      <point x="150" y="0" type="line"/>
      <point x="153" y="20" type="line"/>
      <point x="154" y="31"/>
      <point x="148" y="37"/>
    </contour>
    <contour>
      <point x="97" y="0" type="move" name="bottom"/>
    </contour>
    <contour>
      <point x="97" y="249" type="move" name="center"/>
    </contour>
    <contour>
      <point x="97" y="498" type="move" name="top"/>
    </contour>
    <contour>
      <point x="180" y="498" type="move" name="topright"/>
    </contour>
  </outline>
</glyph>
<glyph name="m" format="1">
  <advance width="787"/>
  <unicode hex="006D"/>
  <note>
    m
  </note>
  <outline>
    <contour>
      <point x="747" y="38" type="curve"/>
      <point x="695" y="40" type="line"/>
      <point x="729" y="318" type="line" smooth="yes"/>
      <point x="743" y="425"/>
      <point x="703" y="505"/>
      <point x="593" y="505" type="curve" smooth="yes"/>
      <point x="516" y="505"/>
      <point x="455" y="463"/>
      <point x="420" y="385" type="curve"/>
      <point x="414" y="456"/>
      <point x="380" y="505"/>
      <point x="303" y="505" type="curve" smooth="yes"/>
      <point x="237" y="505"/>
      <point x="181" y="464"/>
      <point x="141" y="413" type="curve"/>
      <point x="145" y="486" type="line"/>
      <point x="145" y="494"/>
      <point x="141" y="498"/>
      <point x="132" y="498" type="curve" smooth="yes"/>
      <point x="34" y="498" type="line"/>
      <point x="31" y="479" type="line"/>
      <point x="30" y="468"/>
      <point x="36" y="462"/>
      <point x="49" y="461" type="curve"/>
      <point x="101" y="459" type="line"/>
      <point x="45" y="0" type="line"/>
      <point x="92" y="0" type="line"/>
      <point x="138" y="376" type="line"/>
      <point x="173" y="424"/>
      <point x="228" y="468"/>
      <point x="286" y="468" type="curve" smooth="yes"/>
      <point x="367" y="468"/>
      <point x="392" y="406"/>
      <point x="381" y="318" type="curve" smooth="yes"/>
      <point x="342" y="0" type="line"/>
      <point x="390" y="0" type="line"/>
      <point x="429" y="318" type="line"/>
      <point x="437" y="398"/>
      <point x="494" y="467"/>
      <point x="579" y="467" type="curve" smooth="yes"/>
      <point x="660" y="467"/>
      <point x="693" y="410"/>
      <point x="682" y="318" type="curve" smooth="yes"/>
      <point x="643" y="0" type="line"/>
      <point x="763" y="0" type="line"/>
      <point x="765" y="20" type="line" smooth="yes"/>
      <point x="766" y="31"/>
      <point x="760" y="37"/>
    </contour>
    <contour>
      <point x="404" y="0" type="move" name="bottom"/>
    </contour>
    <contour>
      <point x="404" y="498" type="move" name="top"/>
    </contour>
  </outline>
</glyph>
<glyph name="n" format="1">
  <advance width="544"/>
  <unicode hex="006E"/>
  <note>
    n
  </note>
  <outline>
    <contour>
      <point x="494" y="38" type="curve"/>
      <point x="442" y="40" type="line"/>
      <point x="476" y="319" type="line" smooth="yes"/>
      <point x="489" y="427"/>
      <point x="447" y="506"/>
      <point x="333" y="506" type="curve" smooth="yes"/>
      <point x="258" y="506"/>
      <point x="193" y="468"/>
      <point x="142" y="411" type="curve"/>
      <point x="146" y="486" type="line"/>
      <point x="146" y="494"/>
      <point x="142" y="498"/>
      <point x="133" y="498" type="curve" smooth="yes"/>
      <point x="35" y="498" type="line"/>
      <point x="32" y="479" type="line"/>
      <point x="31" y="468"/>
      <point x="37" y="462"/>
      <point x="50" y="461" type="curve"/>
      <point x="102" y="459" type="line"/>
      <point x="46" y="0" type="line"/>
      <point x="93" y="0" type="line"/>
      <point x="139" y="374" type="line"/>
      <point x="187" y="428"/>
      <point x="246" y="468"/>
      <point x="317" y="468" type="curve" smooth="yes"/>
      <point x="408" y="468"/>
      <point x="439" y="410"/>
      <point x="428" y="319" type="curve" smooth="yes"/>
      <point x="389" y="0" type="line"/>
      <point x="509" y="0" type="line"/>
      <point x="511" y="20" type="line" smooth="yes"/>
      <point x="512" y="31"/>
      <point x="507" y="37"/>
    </contour>
    <contour>
      <point x="278" y="0" type="move" name="bottom"/>
    </contour>
    <contour>
      <point x="278" y="498" type="move" name="top"/>
    </contour>
  </outline>
</glyph>
<glyph name="o" format="1">
  <advance width="541"/>
  <unicode hex="006F"/>
  <note>
    o
  </note>
  <outline>
    <contour>
      <point x="302" y="506" type="curve" smooth="yes"/>
      <point x="158" y="506"/>
      <point x="64" y="405"/>
      <point x="44" y="249" type="curve" smooth="yes"/>
      <point x="25" y="99"/>
      <point x="93" y="-6"/>
      <point x="239" y="-6" type="curve" smooth="yes"/>
      <point x="384" y="-6"/>
      <point x="477" y="94"/>
      <point x="497" y="249" type="curve" smooth="yes"/>
      <point x="516" y="400"/>
      <point x="446" y="506"/>
    </contour>
    <contour>
      <point x="244" y="31" type="curve" smooth="yes"/>
      <point x="125" y="31"/>
      <point x="77" y="117"/>
      <point x="93" y="249" type="curve" smooth="yes"/>
      <point x="108" y="372"/>
      <point x="172" y="468"/>
      <point x="297" y="468" type="curve" smooth="yes"/>
      <point x="419" y="468"/>
      <point x="464" y="378"/>
      <point x="448" y="249" type="curve" smooth="yes"/>
      <point x="432" y="125"/>
      <point x="369" y="31"/>
    </contour>
    <contour>
      <point x="275" y="0" type="move" name="bottom"/>
    </contour>
    <contour>
      <point x="275" y="249" type="move" name="center"/>
    </contour>
    <contour>
      <point x="484" y="10" type="move" name="ogonek"/>
    </contour>
    <contour>
      <point x="301" y="498" type="move" name="top"/>
    </contour>
    <contour>
      <point x="516" y="498" type="move" name="topright"/>
    </contour>
  </outline>
</glyph>
<glyph name="p" format="1">
  <advance width="617"/>
  <unicode hex="0070"/>
  <note>
    p
  </note>
  <outline>
    <contour>
      <point x="590" y="402"/>
      <point x="545" y="506"/>
      <point x="409" y="506" type="curve" smooth="yes"/>
      <point x="336" y="506"/>
      <point x="271" y="467"/>
      <point x="220" y="408" type="curve"/>
      <point x="225" y="486" type="line"/>
      <point x="225" y="496"/>
      <point x="222" y="498"/>
      <point x="212" y="498" type="curve" smooth="yes"/>
      <point x="114" y="498" type="line"/>
      <point x="111" y="479" type="line"/>
      <point x="110" y="468"/>
      <point x="116" y="462"/>
      <point x="129" y="461" type="curve"/>
      <point x="181" y="459" type="line"/>
      <point x="108" y="-136" type="line"/>
      <point x="55" y="-138" type="line"/>
      <point x="42" y="-139"/>
      <point x="34" y="-145"/>
      <point x="33" y="-156" type="curve" smooth="yes"/>
      <point x="31" y="-176" type="line"/>
      <point x="223" y="-176" type="line"/>
      <point x="225" y="-156" type="line" smooth="yes"/>
      <point x="226" y="-145"/>
      <point x="221" y="-139"/>
      <point x="208" y="-138" type="curve"/>
      <point x="156" y="-136" type="line"/>
      <point x="181" y="67" type="line"/>
      <point x="214" y="14"/>
      <point x="260" y="-6"/>
      <point x="324" y="-6" type="curve" smooth="yes"/>
      <point x="462" y="-6"/>
      <point x="556" y="110"/>
      <point x="572" y="252" type="curve" smooth="yes"/>
    </contour>
    <contour>
      <point x="507" y="124"/>
      <point x="438" y="31"/>
      <point x="319" y="31" type="curve" smooth="yes"/>
      <point x="258" y="31"/>
      <point x="213" y="56"/>
      <point x="186" y="109" type="curve"/>
      <point x="218" y="370" type="line"/>
      <point x="264" y="429"/>
      <point x="322" y="467"/>
      <point x="391" y="467" type="curve" smooth="yes"/>
      <point x="508" y="467"/>
      <point x="538" y="379"/>
      <point x="523" y="252" type="curve" smooth="yes"/>
    </contour>
    <contour>
      <point x="320" y="0" type="move" name="bottom"/>
    </contour>
    <contour>
      <point x="320" y="498" type="move" name="top"/>
    </contour>
  </outline>
</glyph>
<glyph name="q" format="1">
  <advance width="512"/>
  <unicode hex="0071"/>
  <note>
    q
  </note>
  <outline>
    <contour>
      <point x="467" y="-139" type="curve"/>
      <point x="414" y="-137" type="line"/>
      <point x="490" y="477" type="line"/>
      <point x="404" y="496"/>
      <point x="339" y="505"/>
      <point x="294" y="505" type="curve" smooth="yes"/>
      <point x="154" y="505"/>
      <point x="61" y="389"/>
      <point x="45" y="247" type="curve" smooth="yes"/>
      <point x="27" y="96"/>
      <point x="72" y="-6"/>
      <point x="208" y="-6" type="curve" smooth="yes"/>
      <point x="279" y="-6"/>
      <point x="339" y="27"/>
      <point x="394" y="88" type="curve"/>
      <point x="367" y="-137" type="line"/>
      <point x="314" y="-139" type="line"/>
      <point x="301" y="-140"/>
      <point x="293" y="-146"/>
      <point x="292" y="-157" type="curve" smooth="yes"/>
      <point x="290" y="-176" type="line"/>
      <point x="482" y="-176" type="line"/>
      <point x="484" y="-157" type="line" smooth="yes"/>
      <point x="485" y="-146"/>
      <point x="480" y="-140"/>
    </contour>
    <contour>
      <point x="439" y="447" type="curve"/>
      <point x="399" y="128" type="line"/>
      <point x="352" y="72"/>
      <point x="298" y="32"/>
      <point x="226" y="32" type="curve" smooth="yes"/>
      <point x="109" y="32"/>
      <point x="79" y="120"/>
      <point x="94" y="247" type="curve" smooth="yes"/>
      <point x="110" y="375"/>
      <point x="179" y="468"/>
      <point x="299" y="468" type="curve" smooth="yes"/>
      <point x="325" y="468"/>
      <point x="371" y="461"/>
    </contour>
    <contour>
      <point x="271" y="0" type="move" name="bottom"/>
    </contour>
    <contour>
      <point x="271" y="498" type="move" name="top"/>
    </contour>
  </outline>
</glyph>
<glyph name="r" format="1">
  <advance width="365"/>
  <unicode hex="0072"/>
  <note>
    r
  </note>
  <outline>
    <contour>
      <point x="367" y="500"/>
      <point x="343" y="506"/>
      <point x="316" y="506" type="curve" smooth="yes"/>
      <point x="236" y="506"/>
      <point x="181" y="459"/>
      <point x="138" y="377" type="curve"/>
      <point x="146" y="483" type="line"/>
      <point x="146" y="492"/>
      <point x="147" y="498"/>
      <point x="132" y="498" type="curve" smooth="yes"/>
      <point x="35" y="498" type="line"/>
      <point x="32" y="479" type="line"/>
      <point x="31" y="468"/>
      <point x="37" y="462"/>
      <point x="50" y="461" type="curve"/>
      <point x="102" y="459" type="line"/>
      <point x="46" y="0" type="line"/>
      <point x="93" y="0" type="line"/>
      <point x="133" y="323" type="line"/>
      <point x="170" y="405"/>
      <point x="222" y="459"/>
      <point x="301" y="459" type="curve" smooth="yes"/>
      <point x="332" y="459"/>
      <point x="338" y="456"/>
      <point x="361" y="448" type="curve" smooth="yes"/>
      <point x="367" y="446"/>
      <point x="376" y="443"/>
      <point x="381" y="454" type="curve"/>
      <point x="391" y="487" type="line"/>
    </contour>
    <contour>
      <point x="72" y="0" type="move" name="bottom"/>
    </contour>
    <contour>
      <point x="231" y="498" type="move" name="top"/>
    </contour>
  </outline>
</glyph>
<glyph name="s" format="1">
  <advance width="444"/>
  <unicode hex="0073"/>
  <note>
    s
  </note>
  <outline>
    <contour>
      <point x="391" y="213"/>
      <point x="344" y="249"/>
      <point x="260" y="274" type="curve" smooth="yes"/>
      <point x="183" y="298"/>
      <point x="126" y="316"/>
      <point x="134" y="374" type="curve" smooth="yes"/>
      <point x="143" y="433"/>
      <point x="203" y="469"/>
      <point x="266" y="469" type="curve" smooth="yes"/>
      <point x="292" y="469"/>
      <point x="317" y="465"/>
      <point x="343" y="456" type="curve"/>
      <point x="341" y="384" type="line"/>
      <point x="340" y="368"/>
      <point x="345" y="360"/>
      <point x="359" y="360" type="curve" smooth="yes"/>
      <point x="383" y="360" type="line"/>
      <point x="398" y="479" type="line"/>
      <point x="348" y="497"/>
      <point x="305" y="505"/>
      <point x="269" y="505" type="curve" smooth="yes"/>
      <point x="180" y="505"/>
      <point x="97" y="451"/>
      <point x="88" y="371" type="curve" smooth="yes"/>
      <point x="77" y="299"/>
      <point x="130" y="267"/>
      <point x="211" y="243" type="curve" smooth="yes"/>
      <point x="286" y="221"/>
      <point x="345" y="199"/>
      <point x="337" y="138" type="curve" smooth="yes"/>
      <point x="327" y="66"/>
      <point x="267" y="27"/>
      <point x="196" y="27" type="curve" smooth="yes"/>
      <point x="158" y="27"/>
      <point x="126" y="32"/>
      <point x="100" y="43" type="curve"/>
      <point x="103" y="117" type="line"/>
      <point x="104" y="133"/>
      <point x="99" y="141"/>
      <point x="85" y="141" type="curve" smooth="yes"/>
      <point x="60" y="141" type="line"/>
      <point x="46" y="20" type="line"/>
      <point x="92" y="2"/>
      <point x="139" y="-8"/>
      <point x="189" y="-8" type="curve" smooth="yes"/>
      <point x="288" y="-8"/>
      <point x="370" y="51"/>
      <point x="383" y="146" type="curve"/>
    </contour>
    <contour>
      <point x="226" y="0" type="move" name="bottom"/>
    </contour>
    <contour>
      <point x="226" y="498" type="move" name="top"/>
    </contour>
  </outline>
</glyph>
<glyph name="t" format="1">
  <advance width="330"/>
  <unicode hex="0074"/>
  <note>
    t
  </note>
  <outline>
    <contour>
      <point x="162" y="-8" type="curve" smooth="yes"/>
      <point x="198" y="-8"/>
      <point x="248" y="9"/>
      <point x="277" y="38" type="curve"/>
      <point x="268" y="58" type="line"/>
      <point x="264" y="66"/>
      <point x="256" y="65"/>
      <point x="249" y="59" type="curve" smooth="yes"/>
      <point x="237" y="49"/>
      <point x="203" y="31"/>
      <point x="177" y="31" type="curve" smooth="yes"/>
      <point x="133" y="31"/>
      <point x="112" y="63"/>
      <point x="118" y="109" type="curve" smooth="yes"/>
      <point x="159" y="446" type="line"/>
      <point x="316" y="446" type="line"/>
      <point x="320" y="482" type="line"/>
      <point x="164" y="482" type="line"/>
      <point x="187" y="672" type="line"/>
      <point x="164" y="672" type="line" smooth="yes"/>
      <point x="157" y="672"/>
      <point x="152" y="666"/>
      <point x="150" y="660" type="curve"/>
      <point x="117" y="482" type="line"/>
      <point x="31" y="476" type="line"/>
      <point x="29" y="458" type="line"/>
      <point x="29" y="449"/>
      <point x="33" y="446"/>
      <point x="40" y="446" type="curve" smooth="yes"/>
      <point x="111" y="446" type="line"/>
      <point x="69" y="106" type="line" smooth="yes"/>
      <point x="60" y="33"/>
      <point x="91" y="-8"/>
    </contour>
    <contour>
      <point x="168" y="0" type="move" name="bottom"/>
    </contour>
    <contour>
      <point x="168" y="249" type="move" name="center"/>
    </contour>
    <contour>
      <point x="168" y="498" type="move" name="top"/>
    </contour>
    <contour>
      <point x="169" y="498" type="move" name="topright"/>
    </contour>
  </outline>
</glyph>
<glyph name="u" format="1">
  <advance width="510"/>
  <unicode hex="0075"/>
  <note>
    u
  </note>
  <outline>
    <contour>
      <point x="471" y="38" type="curve"/>
      <point x="419" y="40" type="line"/>
      <point x="475" y="498" type="line"/>
      <point x="427" y="497" type="line"/>
      <point x="355" y="497" type="line"/>
      <point x="353" y="478" type="line" smooth="yes"/>
      <point x="352" y="467"/>
      <point x="357" y="461"/>
      <point x="370" y="460" type="curve"/>
      <point x="423" y="458" type="line"/>
      <point x="381" y="124" type="line"/>
      <point x="334" y="71"/>
      <point x="273" y="30"/>
      <point x="203" y="30" type="curve" smooth="yes"/>
      <point x="115" y="30"/>
      <point x="80" y="87"/>
      <point x="92" y="180" type="curve" smooth="yes"/>
      <point x="131" y="498" type="line"/>
      <point x="83" y="497" type="line"/>
      <point x="11" y="497" type="line"/>
      <point x="9" y="478" type="line" smooth="yes"/>
      <point x="8" y="467"/>
      <point x="13" y="461"/>
      <point x="26" y="460" type="curve"/>
      <point x="79" y="458" type="line"/>
      <point x="44" y="180" type="line" smooth="yes"/>
      <point x="30" y="73"/>
      <point x="72" y="-8"/>
      <point x="187" y="-8" type="curve" smooth="yes"/>
      <point x="261" y="-8"/>
      <point x="325" y="29"/>
      <point x="379" y="87" type="curve"/>
      <point x="375" y="13" type="line"/>
      <point x="374" y="4"/>
      <point x="379" y="0"/>
      <point x="388" y="0" type="curve" smooth="yes"/>
      <point x="486" y="0" type="line"/>
      <point x="488" y="20" type="line" smooth="yes"/>
      <point x="489" y="31"/>
      <point x="484" y="37"/>
    </contour>
    <contour>
      <point x="259" y="0" type="move" name="bottom"/>
    </contour>
    <contour>
      <point x="485" y="10" type="move" name="ogonek"/>
    </contour>
    <contour>
      <point x="259" y="498" type="move" name="top"/>
    </contour>
    <contour>
      <point x="521" y="498" type="move" name="topright"/>
    </contour>
  </outline>
</glyph>
<glyph name="v" format="1">
  <advance width="557"/>
  <unicode hex="0076"/>
  <note>
    v
  </note>
  <outline>
    <contour>
      <point x="577" y="498" type="line"/>
      <point x="403" y="498" type="line"/>
      <point x="401" y="479" type="line" smooth="yes"/>
      <point x="400" y="468"/>
      <point x="405" y="462"/>
      <point x="418" y="461" type="curve"/>
      <point x="470" y="459" type="line"/>
      <point x="272" y="93" type="line" smooth="yes"/>
      <point x="264" y="79"/>
      <point x="256" y="58"/>
      <point x="254" y="50" type="curve"/>
      <point x="254" y="58"/>
      <point x="252" y="77"/>
      <point x="247" y="93" type="curve"/>
      <point x="139" y="459" type="line"/>
      <point x="191" y="461" type="line"/>
      <point x="204" y="462"/>
      <point x="212" y="468"/>
      <point x="213" y="479" type="curve" smooth="yes"/>
      <point x="215" y="498" type="line"/>
      <point x="41" y="498" type="line"/>
      <point x="39" y="479" type="line" smooth="yes"/>
      <point x="38" y="468"/>
      <point x="43" y="462"/>
      <point x="56" y="461" type="curve"/>
      <point x="89" y="460" type="line"/>
      <point x="226" y="0" type="line"/>
      <point x="268" y="0" type="line"/>
      <point x="518" y="460" type="line"/>
      <point x="553" y="461" type="line"/>
      <point x="566" y="462"/>
      <point x="574" y="468"/>
      <point x="575" y="479" type="curve" smooth="yes"/>
    </contour>
    <contour>
      <point x="302" y="0" type="move" name="bottom"/>
    </contour>
    <contour>
      <point x="302" y="498" type="move" name="top"/>
    </contour>
  </outline>
</glyph>
<glyph name="w" format="1">
  <advance width="817"/>
  <unicode hex="0077"/>
  <note>
    w
  </note>
  <outline>
    <contour>
      <point x="837" y="498" type="line"/>
      <point x="663" y="498" type="line"/>
      <point x="661" y="479" type="line" smooth="yes"/>
      <point x="660" y="468"/>
      <point x="665" y="462"/>
      <point x="678" y="461" type="curve"/>
      <point x="730" y="459" type="line"/>
      <point x="568" y="93" type="line"/>
      <point x="562" y="78"/>
      <point x="557" y="64"/>
      <point x="552" y="50" type="curve"/>
      <point x="551" y="64"/>
      <point x="548" y="78"/>
      <point x="545" y="93" type="curve" smooth="yes"/>
      <point x="462" y="489" type="line"/>
      <point x="461" y="496"/>
      <point x="456" y="500"/>
      <point x="449" y="500" type="curve" smooth="yes"/>
      <point x="430" y="500" type="line" smooth="yes"/>
      <point x="423" y="500"/>
      <point x="417" y="496"/>
      <point x="414" y="489" type="curve" smooth="yes"/>
      <point x="232" y="93" type="line" smooth="yes"/>
      <point x="227" y="82"/>
      <point x="219" y="66"/>
      <point x="214" y="50" type="curve"/>
      <point x="214" y="66"/>
      <point x="212" y="79"/>
      <point x="210" y="93" type="curve"/>
      <point x="138" y="459" type="line"/>
      <point x="190" y="461" type="line"/>
      <point x="203" y="462"/>
      <point x="211" y="468"/>
      <point x="212" y="479" type="curve"/>
      <point x="215" y="498" type="line"/>
      <point x="41" y="498" type="line"/>
      <point x="38" y="479" type="line"/>
      <point x="37" y="468"/>
      <point x="43" y="462"/>
      <point x="56" y="461" type="curve"/>
      <point x="89" y="460" type="line"/>
      <point x="186" y="0" type="line"/>
      <point x="219" y="0" type="line" smooth="yes"/>
      <point x="225" y="0"/>
      <point x="230" y="4"/>
      <point x="233" y="11" type="curve" smooth="yes"/>
      <point x="420" y="415" type="line"/>
      <point x="431" y="446" type="line"/>
      <point x="436" y="415" type="line"/>
      <point x="523" y="11" type="line"/>
      <point x="524" y="4"/>
      <point x="528" y="0"/>
      <point x="533" y="0" type="curve" smooth="yes"/>
      <point x="568" y="0" type="line"/>
      <point x="778" y="460" type="line"/>
      <point x="813" y="461" type="line"/>
      <point x="826" y="462"/>
      <point x="834" y="468"/>
      <point x="835" y="479" type="curve" smooth="yes"/>
    </contour>
    <contour>
      <point x="417" y="0" type="move" name="bottom"/>
    </contour>
    <contour>
      <point x="443" y="498" type="move" name="top"/>
    </contour>
  </outline>
</glyph>
<glyph name="y" format="1">
  <advance width="555"/>
  <unicode hex="0079"/>
  <note>
    y
  </note>
  <outline>
    <contour>
      <point x="576" y="498" type="line"/>
      <point x="402" y="498" type="line"/>
      <point x="399" y="479" type="line"/>
      <point x="398" y="468"/>
      <point x="404" y="462"/>
      <point x="417" y="461" type="curve"/>
      <point x="468" y="459" type="line"/>
      <point x="270" y="98" type="line"/>
      <point x="255" y="66" type="line"/>
      <point x="250" y="98" type="line"/>
      <point x="138" y="459" type="line"/>
      <point x="190" y="461" type="line"/>
      <point x="203" y="462"/>
      <point x="211" y="468"/>
      <point x="212" y="479" type="curve"/>
      <point x="215" y="498" type="line"/>
      <point x="41" y="498" type="line"/>
      <point x="38" y="479" type="line"/>
      <point x="37" y="468"/>
      <point x="43" y="462"/>
      <point x="56" y="461" type="curve"/>
      <point x="86" y="460" type="line"/>
      <point x="226" y="18" type="line"/>
      <point x="114" y="-176" type="line"/>
      <point x="148" y="-176" type="line" smooth="yes"/>
      <point x="157" y="-176"/>
      <point x="167" y="-169"/>
      <point x="172" y="-160" type="curve" smooth="yes"/>
      <point x="517" y="460" type="line"/>
      <point x="551" y="461" type="line"/>
      <point x="564" y="462"/>
      <point x="572" y="468"/>
      <point x="573" y="479" type="curve"/>
    </contour>
    <contour>
      <point x="301" y="0" type="move" name="bottom"/>
    </contour>
    <contour>
      <point x="301" y="498" type="move" name="top"/>
    </contour>
  </outline>
</glyph>
<glyph name="z" format="1">
  <advance width="534"/>
  <unicode hex="007A"/>
  <note>
    z
  </note>
  <outline>
    <contour>
      <point x="445" y="125" type="line"/>
      <point x="421" y="125" type="line" smooth="yes"/>
      <point x="407" y="125"/>
      <point x="400" y="117"/>
      <point x="397" y="101" type="curve"/>
      <point x="383" y="37" type="line"/>
      <point x="111" y="37" type="line"/>
      <point x="474" y="459" type="line" smooth="yes"/>
      <point x="479" y="465"/>
      <point x="482" y="471"/>
      <point x="483" y="478" type="curve" smooth="yes"/>
      <point x="486" y="498" type="line"/>
      <point x="126" y="498" type="line"/>
      <point x="110" y="369" type="line"/>
      <point x="134" y="369" type="line" smooth="yes"/>
      <point x="148" y="369"/>
      <point x="156" y="377"/>
      <point x="159" y="393" type="curve"/>
      <point x="173" y="461" type="line"/>
      <point x="425" y="461" type="line"/>
      <point x="61" y="37" type="line" smooth="yes"/>
      <point x="55" y="30"/>
      <point x="52" y="25"/>
      <point x="51" y="19" type="curve" smooth="yes"/>
      <point x="48" y="0" type="line"/>
      <point x="430" y="0" type="line"/>
    </contour>
    <contour>
      <point x="267" y="0" type="move" name="bottom"/>
    </contour>
    <contour>
      <point x="267" y="498" type="move" name="top"/>
    </contour>
  </outline>
</glyph>
<glyph name="braceleft" format="1">
  <advance width="397"/>
  <unicode hex="007B"/>
  <note>
    braceleft
  </note>
  <outline>
    <contour>
      <point x="136" y="298"/>
      <point x="149" y="247"/>
      <point x="126" y="169" type="curve" smooth="yes"/>
      <point x="129" y="178"/>
      <point x="98" y="83"/>
      <point x="93" y="65" type="curve" smooth="yes"/>
      <point x="61" y="-49"/>
      <point x="96" y="-132"/>
      <point x="204" y="-132" type="curve" smooth="yes"/>
      <point x="232" y="-132" type="line"/>
      <point x="234" y="-111" type="line"/>
      <point x="234" y="-104"/>
      <point x="229" y="-100"/>
      <point x="223" y="-100" type="curve" smooth="yes"/>
      <point x="207" y="-100" type="line" smooth="yes"/>
      <point x="127" y="-100"/>
      <point x="108" y="-30"/>
      <point x="134" y="63" type="curve" smooth="yes"/>
      <point x="144" y="98"/>
      <point x="155" y="126"/>
      <point x="167" y="169" type="curve" smooth="yes"/>
      <point x="186" y="238"/>
      <point x="185" y="297"/>
      <point x="115" y="313" type="curve"/>
      <point x="175" y="325"/>
      <point x="211" y="385"/>
      <point x="203" y="457" type="curve" smooth="yes"/>
      <point x="199" y="493"/>
      <point x="199" y="514"/>
      <point x="196" y="563" type="curve" smooth="yes"/>
      <point x="190" y="655"/>
      <point x="228" y="726"/>
      <point x="308" y="726" type="curve" smooth="yes"/>
      <point x="325" y="726" type="line" smooth="yes"/>
      <point x="331" y="726"/>
      <point x="337" y="731"/>
      <point x="338" y="738" type="curve"/>
      <point x="341" y="758" type="line"/>
      <point x="314" y="758" type="line" smooth="yes"/>
      <point x="209" y="758"/>
      <point x="147" y="680"/>
      <point x="154" y="562" type="curve" smooth="yes"/>
      <point x="156" y="521"/>
      <point x="160" y="479"/>
      <point x="161" y="457" type="curve" smooth="yes"/>
      <point x="166" y="380"/>
      <point x="141" y="328"/>
      <point x="72" y="328" type="curve"/>
      <point x="68" y="298" type="line"/>
    </contour>
  </outline>
</glyph>
<glyph name="bar" format="1">
  <advance width="227"/>
  <unicode hex="007C"/>
  <note>
    bar
  </note>
  <outline>
    <contour>
      <point x="132" y="758" type="line"/>
      <point x="95" y="758" type="line"/>
      <point x="95" y="-176" type="line"/>
      <point x="132" y="-176" type="line"/>
    </contour>
  </outline>
</glyph>
<glyph name="braceright" format="1">
  <advance width="397"/>
  <unicode hex="007D"/>
  <note>
    braceright
  </note>
  <outline>
    <contour>
      <point x="261" y="328"/>
      <point x="248" y="379"/>
      <point x="271" y="457" type="curve" smooth="yes"/>
      <point x="268" y="448"/>
      <point x="299" y="543"/>
      <point x="304" y="561" type="curve" smooth="yes"/>
      <point x="336" y="675"/>
      <point x="301" y="758"/>
      <point x="193" y="758" type="curve" smooth="yes"/>
      <point x="165" y="758" type="line"/>
      <point x="163" y="737" type="line"/>
      <point x="163" y="730"/>
      <point x="168" y="726"/>
      <point x="174" y="726" type="curve" smooth="yes"/>
      <point x="190" y="726" type="line" smooth="yes"/>
      <point x="270" y="726"/>
      <point x="289" y="656"/>
      <point x="263" y="563" type="curve" smooth="yes"/>
      <point x="253" y="528"/>
      <point x="242" y="500"/>
      <point x="230" y="457" type="curve" smooth="yes"/>
      <point x="211" y="388"/>
      <point x="212" y="329"/>
      <point x="282" y="313" type="curve"/>
      <point x="222" y="301"/>
      <point x="186" y="241"/>
      <point x="194" y="169" type="curve" smooth="yes"/>
      <point x="198" y="133"/>
      <point x="198" y="112"/>
      <point x="201" y="63" type="curve" smooth="yes"/>
      <point x="207" y="-29"/>
      <point x="169" y="-100"/>
      <point x="89" y="-100" type="curve" smooth="yes"/>
      <point x="72" y="-100" type="line" smooth="yes"/>
      <point x="66" y="-100"/>
      <point x="60" y="-105"/>
      <point x="59" y="-112" type="curve"/>
      <point x="56" y="-132" type="line"/>
      <point x="83" y="-132" type="line" smooth="yes"/>
      <point x="188" y="-132"/>
      <point x="250" y="-54"/>
      <point x="243" y="64" type="curve" smooth="yes"/>
      <point x="241" y="105"/>
      <point x="237" y="147"/>
      <point x="236" y="169" type="curve" smooth="yes"/>
      <point x="231" y="246"/>
      <point x="256" y="298"/>
      <point x="325" y="298" type="curve"/>
      <point x="329" y="328" type="line"/>
    </contour>
  </outline>
</glyph>
<glyph name="asciitilde" format="1">
  <advance width="600"/>
  <unicode hex="007E"/>
  <note>
    asciitilde
  </note>
  <outline>
    <contour>
      <point x="398" y="284" type="curve" smooth="yes"/>
      <point x="335" y="284"/>
      <point x="278" y="346"/>
      <point x="204" y="346" type="curve" smooth="yes"/>
      <point x="131" y="346"/>
      <point x="78" y="289"/>
      <point x="70" y="217" type="curve"/>
      <point x="109" y="217" type="line"/>
      <point x="116" y="269"/>
      <point x="151" y="307"/>
      <point x="202" y="307" type="curve" smooth="yes"/>
      <point x="253" y="307"/>
      <point x="333" y="244"/>
      <point x="396" y="244" type="curve" smooth="yes"/>
      <point x="469" y="244"/>
      <point x="523" y="303"/>
      <point x="530" y="374" type="curve"/>
      <point x="491" y="374" type="line"/>
      <point x="484" y="325"/>
      <point x="453" y="284"/>
    </contour>
  </outline>
</glyph>
<glyph name="exclamdown" format="1">
  <advance width="321"/>
  <unicode hex="00A1"/>
  <note>
    exclamdown
  </note>
  <outline>
    <contour>
      <point x="123" y="99" type="line"/>
      <point x="89" y="-176" type="line"/>
      <point x="136" y="-176" type="line"/>
      <point x="169" y="99" type="line"/>
      <point x="184" y="277" type="line"/>
      <point x="152" y="277" type="line"/>
    </contour>
    <contour>
      <point x="183" y="413" type="curve" smooth="yes"/>
      <point x="208" y="413"/>
      <point x="232" y="435"/>
      <point x="234" y="460" type="curve" smooth="yes"/>
      <point x="237" y="484"/>
      <point x="220" y="506"/>
      <point x="194" y="506" type="curve" smooth="yes"/>
      <point x="168" y="506"/>
      <point x="144" y="484"/>
      <point x="142" y="460" type="curve" smooth="yes"/>
      <point x="140" y="435"/>
      <point x="157" y="413"/>
    </contour>
  </outline>
</glyph>
<glyph name="cent" format="1">
  <advance width="469"/>
  <unicode hex="00A2"/>
  <note>
    cent
  </note>
  <outline>
    <contour>
      <point x="405" y="64" type="curve"/>
      <point x="394" y="80" type="line" smooth="yes"/>
      <point x="389" y="87"/>
      <point x="380" y="86"/>
      <point x="369" y="77" type="curve" smooth="yes"/>
      <point x="324" y="40"/>
      <point x="281" y="32"/>
      <point x="224" y="32" type="curve"/>
      <point x="243" y="139" type="line"/>
      <point x="299" y="467" type="line"/>
      <point x="300" y="468" type="line"/>
      <point x="324" y="468"/>
      <point x="351" y="462"/>
      <point x="381" y="451" type="curve"/>
      <point x="378" y="373" type="line"/>
      <point x="377" y="357"/>
      <point x="383" y="349"/>
      <point x="397" y="349" type="curve" smooth="yes"/>
      <point x="421" y="349" type="line"/>
      <point x="436" y="474" type="line"/>
      <point x="396" y="487"/>
      <point x="333" y="502"/>
      <point x="306" y="505" type="curve"/>
      <point x="327" y="624" type="line"/>
      <point x="309" y="624" type="line" smooth="yes"/>
      <point x="299" y="624"/>
      <point x="294" y="618"/>
      <point x="292" y="608" type="curve"/>
      <point x="274" y="505" type="line"/>
      <point x="274" y="504" type="line"/>
      <point x="148" y="495"/>
      <point x="63" y="390"/>
      <point x="44" y="249" type="curve" smooth="yes"/>
      <point x="30" y="131"/>
      <point x="69" y="19"/>
      <point x="186" y="-3" type="curve"/>
      <point x="175" y="-68" type="line"/>
      <point x="165" y="-126" type="line"/>
      <point x="183" y="-126" type="line" smooth="yes"/>
      <point x="192" y="-126"/>
      <point x="198" y="-120"/>
      <point x="200" y="-111" type="curve"/>
      <point x="218" y="-6" type="line"/>
      <point x="288" y="-6"/>
      <point x="358" y="11"/>
    </contour>
    <contour>
      <point x="105" y="59"/>
      <point x="82" y="152"/>
      <point x="93" y="249" type="curve" smooth="yes"/>
      <point x="106" y="360"/>
      <point x="166" y="453"/>
      <point x="268" y="466" type="curve"/>
      <point x="193" y="37" type="line"/>
    </contour>
  </outline>
</glyph>
<glyph name="sterling" format="1">
  <advance width="645"/>
  <unicode hex="00A3"/>
  <note>
    sterling
  </note>
  <outline>
    <contour>
      <point x="77" y="332" type="curve"/>
      <point x="75" y="316" type="line"/>
      <point x="175" y="316" type="line"/>
      <point x="155" y="153" type="line" smooth="yes"/>
      <point x="148" y="97"/>
      <point x="107" y="49"/>
      <point x="52" y="32" type="curve"/>
      <point x="48" y="0" type="line"/>
      <point x="533" y="0" type="line" smooth="yes"/>
      <point x="546" y="0"/>
      <point x="555" y="9"/>
      <point x="558" y="22" type="curve"/>
      <point x="560" y="42" type="line"/>
      <point x="167" y="42" type="line" smooth="yes"/>
      <point x="148" y="42"/>
      <point x="130" y="40"/>
      <point x="122" y="38" type="curve"/>
      <point x="169" y="66"/>
      <point x="197" y="104"/>
      <point x="205" y="164" type="curve" smooth="yes"/>
      <point x="224" y="316" type="line"/>
      <point x="448" y="316" type="line" smooth="yes"/>
      <point x="458" y="316"/>
      <point x="465" y="322"/>
      <point x="465" y="330" type="curve"/>
      <point x="467" y="350" type="line"/>
      <point x="228" y="350" type="line"/>
      <point x="246" y="496" type="line" smooth="yes"/>
      <point x="258" y="599"/>
      <point x="320" y="674"/>
      <point x="425" y="674" type="curve" smooth="yes"/>
      <point x="490" y="674"/>
      <point x="523" y="651"/>
      <point x="552" y="592" type="curve"/>
      <point x="558" y="583"/>
      <point x="568" y="582"/>
      <point x="577" y="586" type="curve"/>
      <point x="597" y="597" type="line"/>
      <point x="572" y="676"/>
      <point x="514" y="715"/>
      <point x="430" y="715" type="curve" smooth="yes"/>
      <point x="300" y="715"/>
      <point x="214" y="627"/>
      <point x="197" y="496" type="curve" smooth="yes"/>
      <point x="179" y="349" type="line"/>
      <point x="97" y="349" type="line" smooth="yes"/>
      <point x="90" y="349"/>
      <point x="80" y="346"/>
    </contour>
  </outline>
</glyph>
<glyph name="currency" format="1">
  <advance width="590"/>
  <unicode hex="00A4"/>
  <note>
    currency
  </note>
  <outline>
    <contour>
      <point x="125" y="336" type="curve" smooth="yes"/>
      <point x="120" y="298"/>
      <point x="129" y="258"/>
      <point x="150" y="226" type="curve"/>
      <point x="64" y="150" type="line"/>
      <point x="85" y="125" type="line"/>
      <point x="172" y="202" type="line"/>
      <point x="201" y="177"/>
      <point x="237" y="164"/>
      <point x="276" y="164" type="curve" smooth="yes"/>
      <point x="315" y="164"/>
      <point x="358" y="179"/>
      <point x="389" y="202" type="curve"/>
      <point x="456" y="125" type="line"/>
      <point x="485" y="150" type="line"/>
      <point x="417" y="227" type="line"/>
      <point x="441" y="253"/>
      <point x="463" y="294"/>
      <point x="469" y="335" type="curve" smooth="yes"/>
      <point x="475" y="374"/>
      <point x="465" y="411"/>
      <point x="443" y="444" type="curve"/>
      <point x="529" y="521" type="line"/>
      <point x="508" y="546" type="line"/>
      <point x="421" y="469" type="line"/>
      <point x="391" y="494"/>
      <point x="357" y="507"/>
      <point x="318" y="507" type="curve" smooth="yes"/>
      <point x="277" y="507"/>
      <point x="237" y="493"/>
      <point x="204" y="468" type="curve"/>
      <point x="137" y="545" type="line"/>
      <point x="109" y="520" type="line"/>
      <point x="177" y="443" type="line"/>
      <point x="147" y="411"/>
      <point x="131" y="379"/>
    </contour>
    <contour>
      <point x="161" y="335" type="curve" smooth="yes"/>
      <point x="168" y="402"/>
      <point x="237" y="472"/>
      <point x="313" y="472" type="curve" smooth="yes"/>
      <point x="386" y="472"/>
      <point x="441" y="415"/>
      <point x="433" y="336" type="curve" smooth="yes"/>
      <point x="425" y="263"/>
      <point x="353" y="200"/>
      <point x="280" y="200" type="curve" smooth="yes"/>
      <point x="209" y="200"/>
      <point x="152" y="259"/>
    </contour>
  </outline>
</glyph>
<glyph name="yen" format="1">
  <advance width="517"/>
  <unicode hex="00A5"/>
  <note>
    yen
  </note>
  <outline>
    <contour>
      <point x="188" y="308" type="line"/>
      <point x="15" y="308" type="line"/>
      <point x="12" y="279" type="line"/>
      <point x="195" y="279" type="line"/>
      <point x="188" y="220" type="line"/>
      <point x="5" y="220" type="line"/>
      <point x="1" y="191" type="line"/>
      <point x="184" y="191" type="line"/>
      <point x="161" y="0" type="line"/>
      <point x="208" y="0" type="line"/>
      <point x="231" y="191" type="line"/>
      <point x="415" y="191" type="line"/>
      <point x="418" y="220" type="line"/>
      <point x="235" y="220" type="line"/>
      <point x="242" y="279" type="line"/>
      <point x="425" y="279" type="line"/>
      <point x="429" y="308" type="line"/>
      <point x="255" y="308" type="line"/>
      <point x="516" y="708" type="line"/>
      <point x="476" y="708" type="line" smooth="yes"/>
      <point x="468" y="708"/>
      <point x="458" y="701"/>
      <point x="455" y="695" type="curve"/>
      <point x="242" y="362" type="line"/>
      <point x="235" y="349"/>
      <point x="229" y="335"/>
      <point x="225" y="326" type="curve"/>
      <point x="224" y="335"/>
      <point x="220" y="349"/>
      <point x="216" y="362" type="curve"/>
      <point x="84" y="695" type="line" smooth="yes"/>
      <point x="81" y="703"/>
      <point x="75" y="708"/>
      <point x="66" y="708" type="curve" smooth="yes"/>
      <point x="26" y="708" type="line"/>
    </contour>
  </outline>
</glyph>
<glyph name="brokenbar" format="1">
  <advance width="346"/>
  <unicode hex="00A6"/>
  <note>
    brokenbar
  </note>
  <outline>
    <contour>
      <point x="249" y="758" type="line"/>
      <point x="211" y="758" type="line"/>
      <point x="163" y="370" type="line"/>
      <point x="201" y="370" type="line"/>
    </contour>
    <contour>
      <point x="182" y="212" type="line"/>
      <point x="144" y="212" type="line"/>
      <point x="97" y="-176" type="line"/>
      <point x="134" y="-176" type="line"/>
    </contour>
  </outline>
</glyph>
<glyph name="section" format="1">
  <advance width="505"/>
  <unicode hex="00A7"/>
  <note>
    section
  </note>
  <outline>
    <contour>
      <point x="453" y="646" type="curve" smooth="yes"/>
      <point x="465" y="662" type="line"/>
      <point x="429" y="700"/>
      <point x="381" y="716"/>
      <point x="326" y="716" type="curve" smooth="yes"/>
      <point x="240" y="716"/>
      <point x="154" y="662"/>
      <point x="145" y="580" type="curve" smooth="yes"/>
      <point x="140" y="536"/>
      <point x="159" y="500"/>
      <point x="194" y="475" type="curve"/>
      <point x="136" y="456"/>
      <point x="90" y="418"/>
      <point x="83" y="357" type="curve" smooth="yes"/>
      <point x="74" y="280"/>
      <point x="131" y="247"/>
      <point x="217" y="209" type="curve" smooth="yes"/>
      <point x="295" y="174"/>
      <point x="360" y="149"/>
      <point x="352" y="80" type="curve" smooth="yes"/>
      <point x="344" y="10"/>
      <point x="284" y="-31"/>
      <point x="210" y="-31" type="curve" smooth="yes"/>
      <point x="161" y="-31"/>
      <point x="130" y="-17"/>
      <point x="95" y="12" type="curve" smooth="yes"/>
      <point x="86" y="20"/>
      <point x="75" y="23"/>
      <point x="65" y="12" type="curve"/>
      <point x="51" y="-5" type="line"/>
      <point x="93" y="-47"/>
      <point x="142" y="-66"/>
      <point x="202" y="-66" type="curve" smooth="yes"/>
      <point x="303" y="-66"/>
      <point x="381" y="-8"/>
      <point x="395" y="88" type="curve" smooth="yes"/>
      <point x="401" y="132"/>
      <point x="384" y="161"/>
      <point x="348" y="190" type="curve"/>
      <point x="399" y="211"/>
      <point x="439" y="253"/>
      <point x="445" y="311" type="curve"/>
      <point x="456" y="387"/>
      <point x="395" y="426"/>
      <point x="319" y="463" type="curve" smooth="yes"/>
      <point x="241" y="500"/>
      <point x="181" y="523"/>
      <point x="188" y="582" type="curve" smooth="yes"/>
      <point x="198" y="644"/>
      <point x="259" y="679"/>
      <point x="323" y="679" type="curve" smooth="yes"/>
      <point x="368" y="679"/>
      <point x="380" y="673"/>
      <point x="428" y="645" type="curve"/>
      <point x="435" y="639"/>
      <point x="444" y="635"/>
    </contour>
    <contour>
      <point x="126" y="363" type="curve"/>
      <point x="131" y="413"/>
      <point x="170" y="438"/>
      <point x="220" y="459" type="curve"/>
      <point x="229" y="454"/>
      <point x="267" y="436"/>
      <point x="305" y="418" type="curve" smooth="yes"/>
      <point x="365" y="389"/>
      <point x="410" y="363"/>
      <point x="402" y="301" type="curve" smooth="yes"/>
      <point x="397" y="254"/>
      <point x="368" y="225"/>
      <point x="324" y="206" type="curve"/>
      <point x="308" y="216"/>
      <point x="266" y="236"/>
      <point x="233" y="251" type="curve" smooth="yes"/>
      <point x="167" y="281"/>
      <point x="119" y="311"/>
    </contour>
  </outline>
</glyph>
<glyph name="dieresis" format="1">
  <advance width="363"/>
  <unicode hex="00A8"/>
  <note>
    dieresis
  </note>
  <outline>
    <contour>
      <point x="281" y="635" type="curve" smooth="yes"/>
      <point x="303" y="635"/>
      <point x="324" y="653"/>
      <point x="326" y="676" type="curve" smooth="yes"/>
      <point x="328" y="698"/>
      <point x="313" y="716"/>
      <point x="291" y="716" type="curve" smooth="yes"/>
      <point x="268" y="716"/>
      <point x="247" y="698"/>
      <point x="245" y="676" type="curve" smooth="yes"/>
      <point x="243" y="653"/>
      <point x="258" y="635"/>
    </contour>
    <contour>
      <point x="73" y="635" type="curve" smooth="yes"/>
      <point x="95" y="635"/>
      <point x="116" y="653"/>
      <point x="118" y="676" type="curve" smooth="yes"/>
      <point x="120" y="698"/>
      <point x="105" y="716"/>
      <point x="83" y="716" type="curve" smooth="yes"/>
      <point x="60" y="716"/>
      <point x="39" y="698"/>
      <point x="37" y="676" type="curve" smooth="yes"/>
      <point x="35" y="653"/>
      <point x="50" y="635"/>
    </contour>
    <contour>
      <point x="135" y="498" type="move" name="_top"/>
    </contour>
    <contour>
      <point x="135" y="716" type="move" name="top"/>
    </contour>
  </outline>
</glyph>
<glyph name="copyright" format="1">
  <advance width="823"/>
  <unicode hex="00A9"/>
  <note>
    copyright
  </note>
  <outline>
    <contour>
      <point x="530" y="207" type="curve" smooth="yes"/>
      <point x="488" y="177"/>
      <point x="447" y="166"/>
      <point x="394" y="166" type="curve" smooth="yes"/>
      <point x="288" y="166"/>
      <point x="226" y="240"/>
      <point x="241" y="354" type="curve" smooth="yes"/>
      <point x="257" y="470"/>
      <point x="337" y="544"/>
      <point x="449" y="544" type="curve" smooth="yes"/>
      <point x="494" y="544"/>
      <point x="529" y="534"/>
      <point x="561" y="508" type="curve" smooth="yes"/>
      <point x="567" y="503"/>
      <point x="576" y="499"/>
      <point x="584" y="508" type="curve"/>
      <point x="598" y="524" type="line"/>
      <point x="561" y="561"/>
      <point x="513" y="580"/>
      <point x="451" y="580" type="curve" smooth="yes"/>
      <point x="321" y="580"/>
      <point x="213" y="489"/>
      <point x="197" y="354" type="curve" smooth="yes"/>
      <point x="181" y="222"/>
      <point x="257" y="129"/>
      <point x="388" y="129" type="curve" smooth="yes"/>
      <point x="455" y="129"/>
      <point x="509" y="145"/>
      <point x="563" y="194" type="curve"/>
      <point x="549" y="209" type="line"/>
      <point x="546" y="212"/>
      <point x="540" y="215"/>
    </contour>
    <contour>
      <point x="51" y="354" type="curve" smooth="yes"/>
      <point x="26" y="156"/>
      <point x="168" y="-7"/>
      <point x="367" y="-7" type="curve" smooth="yes"/>
      <point x="563" y="-7"/>
      <point x="747" y="151"/>
      <point x="772" y="354" type="curve" smooth="yes"/>
      <point x="796" y="553"/>
      <point x="655" y="715"/>
      <point x="456" y="715" type="curve" smooth="yes"/>
      <point x="258" y="715"/>
      <point x="75" y="552"/>
    </contour>
    <contour>
      <point x="80" y="354" type="curve" smooth="yes"/>
      <point x="104" y="539"/>
      <point x="268" y="688"/>
      <point x="452" y="688" type="curve" smooth="yes"/>
      <point x="637" y="688"/>
      <point x="768" y="536"/>
      <point x="744" y="354" type="curve" smooth="yes"/>
      <point x="720" y="168"/>
      <point x="555" y="20"/>
      <point x="370" y="20" type="curve" smooth="yes"/>
      <point x="185" y="20"/>
      <point x="57" y="173"/>
    </contour>
  </outline>
</glyph>
<glyph name="ordfeminine" format="1">
  <advance width="291"/>
  <unicode hex="00AA"/>
  <note>
    ordfeminine
  </note>
  <outline>
    <contour>
      <point x="236" y="419" type="curve"/>
      <point x="252" y="420" type="line"/>
      <point x="275" y="608" type="line" smooth="yes"/>
      <point x="283" y="670"/>
      <point x="255" y="715"/>
      <point x="185" y="715" type="curve" smooth="yes"/>
      <point x="139" y="715"/>
      <point x="105" y="700"/>
      <point x="69" y="668" type="curve"/>
      <point x="74" y="657" type="line"/>
      <point x="79" y="647"/>
      <point x="88" y="649"/>
      <point x="97" y="656" type="curve" smooth="yes"/>
      <point x="116" y="671"/>
      <point x="148" y="685"/>
      <point x="178" y="685" type="curve" smooth="yes"/>
      <point x="227" y="685"/>
      <point x="245" y="657"/>
      <point x="239" y="607" type="curve" smooth="yes"/>
      <point x="236" y="582" type="line"/>
      <point x="159" y="581"/>
      <point x="37" y="563"/>
      <point x="31" y="490" type="curve"/>
      <point x="24" y="447"/>
      <point x="52" y="415"/>
      <point x="105" y="415" type="curve" smooth="yes"/>
      <point x="150" y="415"/>
      <point x="188" y="432"/>
      <point x="223" y="463" type="curve"/>
      <point x="224" y="429" type="line"/>
      <point x="224" y="423"/>
      <point x="226" y="419"/>
    </contour>
    <contour>
      <point x="118" y="441" type="curve" smooth="yes"/>
      <point x="87" y="441"/>
      <point x="61" y="457"/>
      <point x="65" y="492" type="curve" smooth="yes"/>
      <point x="70" y="543"/>
      <point x="157" y="554"/>
      <point x="233" y="557" type="curve"/>
      <point x="224" y="488" type="line"/>
      <point x="196" y="463"/>
      <point x="158" y="441"/>
    </contour>
  </outline>
</glyph>
<glyph name="logicalnot" format="1">
  <advance width="576"/>
  <unicode hex="00AC"/>
  <note>
    logicalnot
  </note>
  <outline>
    <contour>
      <point x="505" y="354" type="line"/>
      <point x="91" y="354" type="line"/>
      <point x="87" y="317" type="line"/>
      <point x="460" y="317" type="line"/>
      <point x="442" y="170" type="line"/>
      <point x="483" y="170" type="line"/>
    </contour>
  </outline>
</glyph>
<glyph name="uni00AD" format="1">
  <advance width="363"/>
  <unicode hex="00AD"/>
  <note>
    uni00AD
  </note>
  <outline>
    <contour>
      <point x="301" y="317" type="line"/>
      <point x="69" y="317" type="line"/>
      <point x="64" y="276" type="line"/>
      <point x="296" y="276" type="line"/>
    </contour>
  </outline>
</glyph>
<glyph name="registered" format="1">
  <advance width="823"/>
  <unicode hex="00AE"/>
  <note>
    registered
  </note>
  <outline>
    <contour>
      <point x="51" y="354" type="curve" smooth="yes"/>
      <point x="26" y="156"/>
      <point x="168" y="-7"/>
      <point x="367" y="-7" type="curve" smooth="yes"/>
      <point x="562" y="-7"/>
      <point x="747" y="151"/>
      <point x="772" y="354" type="curve" smooth="yes"/>
      <point x="796" y="553"/>
      <point x="655" y="715"/>
      <point x="456" y="715" type="curve" smooth="yes"/>
      <point x="258" y="715"/>
      <point x="74" y="551"/>
    </contour>
    <contour>
      <point x="80" y="354" type="curve" smooth="yes"/>
      <point x="104" y="539"/>
      <point x="267" y="688"/>
      <point x="452" y="688" type="curve" smooth="yes"/>
      <point x="637" y="688"/>
      <point x="768" y="536"/>
      <point x="744" y="354" type="curve" smooth="yes"/>
      <point x="720" y="168"/>
      <point x="555" y="20"/>
      <point x="370" y="20" type="curve" smooth="yes"/>
      <point x="185" y="20"/>
      <point x="57" y="173"/>
    </contour>
    <contour>
      <point x="293" y="133" type="line"/>
      <point x="317" y="328" type="line"/>
      <point x="372" y="328" type="line" smooth="yes"/>
      <point x="386" y="328"/>
      <point x="395" y="326"/>
      <point x="401" y="316" type="curve"/>
      <point x="514" y="141" type="line" smooth="yes"/>
      <point x="517" y="136"/>
      <point x="520" y="133"/>
      <point x="529" y="133" type="curve" smooth="yes"/>
      <point x="569" y="133" type="line"/>
      <point x="449" y="317" type="line"/>
      <point x="445" y="325"/>
      <point x="438" y="334"/>
      <point x="431" y="337" type="curve"/>
      <point x="502" y="346"/>
      <point x="560" y="386"/>
      <point x="569" y="459" type="curve" smooth="yes"/>
      <point x="580" y="545"/>
      <point x="521" y="576"/>
      <point x="428" y="576" type="curve" smooth="yes"/>
      <point x="305" y="576" type="line"/>
      <point x="251" y="133" type="line"/>
    </contour>
    <contour>
      <point x="395" y="360" type="curve" smooth="yes"/>
      <point x="321" y="360" type="line"/>
      <point x="343" y="542" type="line"/>
      <point x="424" y="542" type="line" smooth="yes"/>
      <point x="493" y="542"/>
      <point x="536" y="524"/>
      <point x="527" y="454" type="curve" smooth="yes"/>
      <point x="518" y="388"/>
      <point x="466" y="360"/>
    </contour>
  </outline>
</glyph>
<glyph name="degree" format="1">
  <advance width="362"/>
  <unicode hex="00B0"/>
  <note>
    degree
  </note>
  <outline>
    <contour>
      <point x="30" y="567" type="curve" smooth="yes"/>
      <point x="19" y="490"/>
      <point x="77" y="418"/>
      <point x="162" y="418" type="curve" smooth="yes"/>
      <point x="242" y="418"/>
      <point x="319" y="481"/>
      <point x="331" y="567" type="curve" smooth="yes"/>
      <point x="343" y="649"/>
      <point x="282" y="716"/>
      <point x="199" y="716" type="curve" smooth="yes"/>
      <point x="119" y="716"/>
      <point x="42" y="654"/>
    </contour>
    <contour>
      <point x="66" y="567" type="curve" smooth="yes"/>
      <point x="74" y="628"/>
      <point x="125" y="682"/>
      <point x="195" y="682" type="curve" smooth="yes"/>
      <point x="261" y="682"/>
      <point x="303" y="632"/>
      <point x="295" y="567" type="curve" smooth="yes"/>
      <point x="286" y="506"/>
      <point x="234" y="452"/>
      <point x="167" y="452" type="curve" smooth="yes"/>
      <point x="106" y="452"/>
      <point x="58" y="500"/>
    </contour>
  </outline>
</glyph>
<glyph name="plusminus" format="1">
  <advance width="696"/>
  <unicode hex="00B1"/>
  <note>
    plusminus
  </note>
  <outline>
    <contour>
      <point x="388" y="374" type="line"/>
      <point x="413" y="576" type="line"/>
      <point x="374" y="576" type="line"/>
      <point x="349" y="374" type="line"/>
      <point x="134" y="374" type="line"/>
      <point x="129" y="337" type="line"/>
      <point x="344" y="337" type="line"/>
      <point x="320" y="136" type="line"/>
      <point x="359" y="136" type="line"/>
      <point x="383" y="337" type="line"/>
      <point x="599" y="337" type="line"/>
      <point x="603" y="374" type="line"/>
    </contour>
    <contour>
      <point x="567" y="76" type="line"/>
      <point x="97" y="76" type="line"/>
      <point x="93" y="40" type="line"/>
      <point x="563" y="40" type="line"/>
    </contour>
  </outline>
</glyph>
<glyph name="twosuperior" format="1">
  <advance width="395"/>
  <unicode hex="00B2"/>
  <note>
    twosuperior
  </note>
  <outline>
    <contour>
      <point x="310" y="528" type="line"/>
      <point x="299" y="528" type="line" smooth="yes"/>
      <point x="287" y="528"/>
      <point x="282" y="521"/>
      <point x="278" y="507" type="curve"/>
      <point x="272" y="483" type="line"/>
      <point x="155" y="483" type="line" smooth="yes"/>
      <point x="143" y="483"/>
      <point x="125" y="481"/>
      <point x="115" y="478" type="curve"/>
      <point x="232" y="583" type="line"/>
      <point x="296" y="641"/>
      <point x="317" y="664"/>
      <point x="324" y="714" type="curve" smooth="yes"/>
      <point x="332" y="775"/>
      <point x="292" y="812"/>
      <point x="230" y="812" type="curve" smooth="yes"/>
      <point x="171" y="812"/>
      <point x="121" y="778"/>
      <point x="103" y="713" type="curve"/>
      <point x="122" y="709" type="line"/>
      <point x="129" y="709"/>
      <point x="135" y="709"/>
      <point x="140" y="719" type="curve" smooth="yes"/>
      <point x="161" y="760"/>
      <point x="186" y="781"/>
      <point x="225" y="781" type="curve" smooth="yes"/>
      <point x="265" y="781"/>
      <point x="292" y="760"/>
      <point x="288" y="712" type="curve" smooth="yes"/>
      <point x="284" y="672"/>
      <point x="250" y="636"/>
      <point x="206" y="596" type="curve" smooth="yes"/>
      <point x="74" y="477" type="line"/>
      <point x="71" y="475"/>
      <point x="65" y="469"/>
      <point x="65" y="460" type="curve"/>
      <point x="64" y="450" type="line"/>
      <point x="300" y="450" type="line"/>
    </contour>
  </outline>
</glyph>
<glyph name="threesuperior" format="1">
  <advance width="398"/>
  <unicode hex="00B3"/>
  <note>
    threesuperior
  </note>
  <outline>
    <contour>
      <point x="231" y="812" type="curve" smooth="yes"/>
      <point x="172" y="812"/>
      <point x="124" y="778"/>
      <point x="105" y="712" type="curve"/>
      <point x="117" y="710" type="line" smooth="yes"/>
      <point x="130" y="707"/>
      <point x="137" y="709"/>
      <point x="141" y="719" type="curve" smooth="yes"/>
      <point x="156" y="756"/>
      <point x="182" y="781"/>
      <point x="226" y="781" type="curve" smooth="yes"/>
      <point x="270" y="781"/>
      <point x="292" y="758"/>
      <point x="288" y="714" type="curve"/>
      <point x="281" y="665"/>
      <point x="243" y="646"/>
      <point x="190" y="644" type="curve"/>
      <point x="187" y="620" type="line"/>
      <point x="244" y="620"/>
      <point x="280" y="603"/>
      <point x="275" y="549" type="curve" smooth="yes"/>
      <point x="270" y="510"/>
      <point x="230" y="476"/>
      <point x="183" y="476" type="curve" smooth="yes"/>
      <point x="140" y="476"/>
      <point x="118" y="496"/>
      <point x="109" y="534" type="curve" smooth="yes"/>
      <point x="107" y="542"/>
      <point x="100" y="549"/>
      <point x="86" y="543" type="curve"/>
      <point x="73" y="538" type="line"/>
      <point x="85" y="472"/>
      <point x="115" y="446"/>
      <point x="181" y="446" type="curve" smooth="yes"/>
      <point x="246" y="446"/>
      <point x="304" y="489"/>
      <point x="312" y="551" type="curve" smooth="yes"/>
      <point x="318" y="593"/>
      <point x="296" y="622"/>
      <point x="247" y="634" type="curve"/>
      <point x="285" y="645"/>
      <point x="317" y="673"/>
      <point x="323" y="720" type="curve" smooth="yes"/>
      <point x="331" y="777"/>
      <point x="287" y="812"/>
    </contour>
  </outline>
</glyph>
<glyph name="mu" format="1">
  <advance width="502"/>
  <unicode hex="00B5"/>
  <note>
    mu
  </note>
  <outline>
    <contour>
      <point x="98" y="180" type="curve" smooth="yes"/>
      <point x="137" y="498" type="line"/>
      <point x="89" y="498" type="line"/>
      <point x="9" y="-155" type="line" smooth="yes"/>
      <point x="8" y="-164"/>
      <point x="12" y="-176"/>
      <point x="28" y="-176" type="curve" smooth="yes"/>
      <point x="52" y="-176" type="line"/>
      <point x="72" y="-12" type="line"/>
      <point x="77" y="42"/>
      <point x="78" y="40"/>
      <point x="78" y="72" type="curve"/>
      <point x="96" y="23"/>
      <point x="138" y="-3"/>
      <point x="202" y="-3" type="curve" smooth="yes"/>
      <point x="274" y="-3"/>
      <point x="331" y="30"/>
      <point x="384" y="87" type="curve"/>
      <point x="380" y="13" type="line"/>
      <point x="379" y="4"/>
      <point x="384" y="0"/>
      <point x="393" y="0" type="curve" smooth="yes"/>
      <point x="419" y="0" type="line"/>
      <point x="480" y="498" type="line"/>
      <point x="432" y="498" type="line"/>
      <point x="386" y="124" type="line"/>
      <point x="339" y="71"/>
      <point x="279" y="30"/>
      <point x="209" y="30" type="curve" smooth="yes"/>
      <point x="120" y="30"/>
      <point x="86" y="88"/>
    </contour>
  </outline>
</glyph>
<glyph name="paragraph" format="1">
  <advance width="735"/>
  <unicode hex="00B6"/>
  <note>
    paragraph
  </note>
  <outline>
    <contour>
      <point x="633" y="666" type="line"/>
      <point x="638" y="708" type="line"/>
      <point x="276" y="708" type="line" smooth="yes"/>
      <point x="152" y="708"/>
      <point x="46" y="645"/>
      <point x="33" y="532" type="curve" smooth="yes"/>
      <point x="21" y="419"/>
      <point x="106" y="350"/>
      <point x="232" y="350" type="curve"/>
      <point x="177" y="-95" type="line"/>
      <point x="220" y="-95" type="line"/>
      <point x="314" y="666" type="line"/>
      <point x="478" y="666" type="line"/>
      <point x="384" y="-95" type="line"/>
      <point x="427" y="-95" type="line"/>
      <point x="520" y="666" type="line"/>
    </contour>
  </outline>
</glyph>
<glyph name="periodcentered" format="1">
  <advance width="240"/>
  <unicode hex="00B7"/>
  <note>
    periodcentered
  </note>
  <outline>
    <contour>
      <point x="114" y="245" type="curve" smooth="yes"/>
      <point x="142" y="245"/>
      <point x="169" y="269"/>
      <point x="171" y="297" type="curve" smooth="yes"/>
      <point x="174" y="324"/>
      <point x="155" y="348"/>
      <point x="127" y="348" type="curve" smooth="yes"/>
      <point x="98" y="348"/>
      <point x="71" y="324"/>
      <point x="69" y="297" type="curve" smooth="yes"/>
      <point x="67" y="269"/>
      <point x="86" y="245"/>
    </contour>
  </outline>
</glyph>
<glyph name="cedilla" format="1">
  <advance width="270"/>
  <unicode hex="00B8"/>
  <note>
    cedilla
  </note>
  <outline>
    <contour>
      <point x="123" y="-7" type="line"/>
      <point x="98" y="-64" type="line"/>
      <point x="138" y="-71"/>
      <point x="187" y="-74"/>
      <point x="182" y="-113" type="curve" smooth="yes"/>
      <point x="178" y="-142"/>
      <point x="153" y="-154"/>
      <point x="122" y="-154" type="curve" smooth="yes"/>
      <point x="106" y="-154"/>
      <point x="85" y="-148"/>
      <point x="72" y="-139" type="curve" smooth="yes"/>
      <point x="69" y="-137"/>
      <point x="62" y="-132"/>
      <point x="57" y="-142" type="curve" smooth="yes"/>
      <point x="50" y="-156" type="line"/>
      <point x="71" y="-171"/>
      <point x="93" y="-177"/>
      <point x="120" y="-177" type="curve" smooth="yes"/>
      <point x="171" y="-177"/>
      <point x="216" y="-155"/>
      <point x="220" y="-113" type="curve" smooth="yes"/>
      <point x="224" y="-72"/>
      <point x="194" y="-55"/>
      <point x="137" y="-45" type="curve"/>
      <point x="154" y="-8" type="line"/>
      <point x="165" y="15" type="line"/>
      <point x="133" y="15" type="line"/>
    </contour>
  </outline>
</glyph>
<glyph name="onesuperior" format="1">
  <advance width="362"/>
  <unicode hex="00B9"/>
  <note>
    onesuperior
  </note>
  <outline>
    <contour>
      <point x="167" y="474" type="line"/>
      <point x="88" y="474" type="line"/>
      <point x="85" y="450" type="line"/>
      <point x="274" y="450" type="line"/>
      <point x="277" y="474" type="line"/>
      <point x="204" y="474" type="line"/>
      <point x="245" y="809" type="line"/>
      <point x="216" y="809" type="line"/>
      <point x="99" y="717" type="line"/>
      <point x="108" y="702" type="line"/>
      <point x="113" y="696"/>
      <point x="119" y="696"/>
      <point x="125" y="700" type="curve"/>
      <point x="204" y="763" type="line"/>
      <point x="200" y="744" type="line"/>
    </contour>
  </outline>
</glyph>
<glyph name="ordmasculine" format="1">
  <advance width="348"/>
  <unicode hex="00BA"/>
  <note>
    ordmasculine
  </note>
  <outline>
    <contour>
      <point x="193" y="714" type="curve" smooth="yes"/>
      <point x="101" y="714"/>
      <point x="44" y="657"/>
      <point x="31" y="564" type="curve" smooth="yes"/>
      <point x="20" y="476"/>
      <point x="62" y="414"/>
      <point x="156" y="414" type="curve" smooth="yes"/>
      <point x="243" y="414"/>
      <point x="305" y="468"/>
      <point x="317" y="564" type="curve" smooth="yes"/>
      <point x="328" y="651"/>
      <point x="286" y="714"/>
    </contour>
    <contour>
      <point x="160" y="442" type="curve" smooth="yes"/>
      <point x="88" y="442"/>
      <point x="59" y="489"/>
      <point x="69" y="564" type="curve" smooth="yes"/>
      <point x="78" y="636"/>
      <point x="115" y="686"/>
      <point x="190" y="686" type="curve" smooth="yes"/>
      <point x="261" y="686"/>
      <point x="289" y="637"/>
      <point x="279" y="564" type="curve" smooth="yes"/>
      <point x="270" y="493"/>
      <point x="233" y="442"/>
    </contour>
  </outline>
</glyph>
<glyph name="guillemotright" format="1">
  <advance width="376"/>
  <unicode hex="00BB"/>
  <note>
    guillemotright
  </note>
  <outline>
    <contour>
      <point x="332" y="256" type="line"/>
      <point x="333" y="263" type="line"/>
      <point x="236" y="452" type="line"/>
      <point x="220" y="445" type="line"/>
      <point x="210" y="440"/>
      <point x="208" y="430"/>
      <point x="212" y="421" type="curve" smooth="yes"/>
      <point x="286" y="273" type="line"/>
      <point x="289" y="266"/>
      <point x="292" y="262"/>
      <point x="295" y="259" type="curve"/>
      <point x="292" y="256"/>
      <point x="287" y="252"/>
      <point x="282" y="245" type="curve" smooth="yes"/>
      <point x="173" y="99" type="line" smooth="yes"/>
      <point x="168" y="93"/>
      <point x="164" y="81"/>
      <point x="174" y="75" type="curve" smooth="yes"/>
      <point x="188" y="67" type="line"/>
    </contour>
    <contour>
      <point x="205" y="256" type="line"/>
      <point x="206" y="263" type="line"/>
      <point x="108" y="452" type="line"/>
      <point x="92" y="445" type="line"/>
      <point x="83" y="440"/>
      <point x="81" y="428"/>
      <point x="85" y="420" type="curve" smooth="yes"/>
      <point x="158" y="273" type="line"/>
      <point x="161" y="266"/>
      <point x="165" y="262"/>
      <point x="168" y="259" type="curve"/>
      <point x="165" y="256"/>
      <point x="160" y="252"/>
      <point x="155" y="245" type="curve" smooth="yes"/>
      <point x="45" y="98" type="line" smooth="yes"/>
      <point x="38" y="88"/>
      <point x="38" y="80"/>
      <point x="47" y="74" type="curve"/>
      <point x="61" y="67" type="line"/>
    </contour>
  </outline>
</glyph>
<glyph name="onequarter" format="1">
  <advance width="732"/>
  <unicode hex="00BC"/>
  <note>
    onequarter
  </note>
  <outline>
    <contour>
      <point x="161" y="16" type="curve" smooth="yes"/>
      <point x="647" y="708" type="line"/>
      <point x="626" y="708" type="line" smooth="yes"/>
      <point x="614" y="708"/>
      <point x="603" y="701"/>
      <point x="596" y="690" type="curve" smooth="yes"/>
      <point x="111" y="0" type="line"/>
      <point x="131" y="0" type="line" smooth="yes"/>
      <point x="145" y="0"/>
      <point x="153" y="5"/>
    </contour>
    <component base="onesuperior" xOffset="40" yOffset="-99"/>
    <component base="foursuperior" xOffset="52"/>
  </outline>
</glyph>
<glyph name="onehalf" format="1">
  <advance width="767"/>
  <unicode hex="00BD"/>
  <note>
    onehalf
  </note>
  <outline>
    <contour>
      <point x="138" y="16" type="curve" smooth="yes"/>
      <point x="624" y="708" type="line"/>
      <point x="603" y="708" type="line" smooth="yes"/>
      <point x="596" y="708"/>
      <point x="592" y="706"/>
      <point x="587" y="703" type="curve" smooth="yes"/>
      <point x="582" y="700"/>
      <point x="578" y="696"/>
      <point x="574" y="690" type="curve" smooth="yes"/>
      <point x="89" y="0" type="line"/>
      <point x="109" y="0" type="line" smooth="yes"/>
      <point x="115" y="0"/>
      <point x="120" y="1"/>
      <point x="125" y="3" type="curve" smooth="yes"/>
      <point x="130" y="5"/>
      <point x="134" y="10"/>
    </contour>
    <component base="onesuperior" xOffset="40" yOffset="-97"/>
    <component base="twosuperior" xOffset="357" yOffset="-449"/>
  </outline>
</glyph>
<glyph name="threequarters" format="1">
  <advance width="747"/>
  <unicode hex="00BE"/>
  <note>
    threequarters
  </note>
  <outline>
    <contour>
      <point x="187" y="15" type="curve" smooth="yes"/>
      <point x="673" y="707" type="line"/>
      <point x="652" y="707" type="line" smooth="yes"/>
      <point x="638" y="707"/>
      <point x="630" y="701"/>
      <point x="622" y="690" type="curve" smooth="yes"/>
      <point x="138" y="0" type="line"/>
      <point x="158" y="0" type="line" smooth="yes"/>
      <point x="170" y="0"/>
      <point x="180" y="5"/>
    </contour>
    <component base="threesuperior" xOffset="33" yOffset="-99"/>
    <component base="foursuperior" xOffset="74"/>
  </outline>
</glyph>
<glyph name="questiondown" format="1">
  <advance width="392"/>
  <unicode hex="00BF"/>
  <note>
    questiondown
  </note>
  <outline>
    <contour>
      <point x="360" y="-112" type="curve"/>
      <point x="350" y="-96" type="line" smooth="yes"/>
      <point x="343" y="-85"/>
      <point x="334" y="-87"/>
      <point x="325" y="-95" type="curve" smooth="yes"/>
      <point x="289" y="-127"/>
      <point x="243" y="-142"/>
      <point x="196" y="-142" type="curve" smooth="yes"/>
      <point x="127" y="-142"/>
      <point x="73" y="-102"/>
      <point x="81" y="-28" type="curve" smooth="yes"/>
      <point x="89" y="32"/>
      <point x="124" y="67"/>
      <point x="177" y="99" type="curve" smooth="yes"/>
      <point x="223" y="127"/>
      <point x="262" y="150"/>
      <point x="268" y="190" type="curve"/>
      <point x="276" y="277" type="line"/>
      <point x="244" y="277" type="line"/>
      <point x="228" y="196" type="line" smooth="yes"/>
      <point x="224" y="170"/>
      <point x="204" y="157"/>
      <point x="176" y="140" type="curve" smooth="yes"/>
      <point x="96" y="91"/>
      <point x="44" y="50"/>
      <point x="35" y="-32" type="curve" smooth="yes"/>
      <point x="24" y="-124"/>
      <point x="95" y="-182"/>
      <point x="188" y="-182" type="curve" smooth="yes"/>
      <point x="250" y="-182"/>
      <point x="312" y="-155"/>
    </contour>
    <contour>
      <point x="277" y="412" type="curve" smooth="yes"/>
      <point x="303" y="412"/>
      <point x="327" y="434"/>
      <point x="329" y="459" type="curve" smooth="yes"/>
      <point x="332" y="483"/>
      <point x="314" y="505"/>
      <point x="289" y="505" type="curve" smooth="yes"/>
      <point x="263" y="505"/>
      <point x="238" y="483"/>
      <point x="237" y="459" type="curve" smooth="yes"/>
      <point x="235" y="434"/>
      <point x="252" y="412"/>
    </contour>
  </outline>
</glyph>
<glyph name="AE" format="1">
  <advance width="1055"/>
  <unicode hex="00C6"/>
  <note>
    AE
  </note>
  <outline>
    <contour>
      <point x="545" y="668" type="curve"/>
      <point x="547" y="257" type="line"/>
      <point x="275" y="257" type="line"/>
      <point x="520" y="621" type="line" smooth="yes"/>
      <point x="527" y="632"/>
      <point x="541" y="657"/>
    </contour>
    <contour>
      <point x="549" y="0" type="line"/>
      <point x="920" y="0" type="line"/>
      <point x="938" y="147" type="line"/>
      <point x="913" y="147" type="line" smooth="yes"/>
      <point x="899" y="147"/>
      <point x="892" y="138"/>
      <point x="889" y="122" type="curve"/>
      <point x="875" y="43" type="line"/>
      <point x="596" y="43" type="line"/>
      <point x="595" y="338" type="line"/>
      <point x="870" y="338" type="line"/>
      <point x="875" y="379" type="line"/>
      <point x="595" y="379" type="line"/>
      <point x="594" y="665" type="line"/>
      <point x="952" y="665" type="line"/>
      <point x="946" y="585" type="line"/>
      <point x="945" y="569"/>
      <point x="950" y="561"/>
      <point x="964" y="561" type="curve" smooth="yes"/>
      <point x="989" y="561" type="line"/>
      <point x="1007" y="707" type="line"/>
      <point x="445" y="707" type="line"/>
      <point x="442" y="688" type="line"/>
      <point x="441" y="677"/>
      <point x="447" y="671"/>
      <point x="460" y="670" type="curve"/>
      <point x="500" y="669" type="line"/>
      <point x="80" y="46" type="line"/>
      <point x="47" y="0" type="line"/>
      <point x="105" y="0" type="line"/>
      <point x="134" y="46" type="line"/>
      <point x="250" y="219" type="line"/>
      <point x="548" y="219" type="line"/>
    </contour>
    <component base="serifBottom" xOffset="-50"/>
    <component base="serifBottom" xOffset="436"/>
  </outline>
</glyph>
<glyph name="Eth" format="1">
  <advance width="863"/>
  <unicode hex="00D0"/>
  <note>
    Eth
  </note>
  <outline>
    <contour>
      <point x="81" y="374" type="line"/>
      <point x="77" y="342" type="line"/>
      <point x="439" y="342" type="line"/>
      <point x="443" y="374" type="line"/>
    </contour>
    <component base="D" xOffset="42"/>
  </outline>
</glyph>
<glyph name="multiply" format="1">
  <advance width="608"/>
  <unicode hex="00D7"/>
  <note>
    multiply
  </note>
  <outline>
    <contour>
      <point x="332" y="335" type="line"/>
      <point x="538" y="518" type="line"/>
      <point x="515" y="545" type="line"/>
      <point x="310" y="362" type="line"/>
      <point x="148" y="546" type="line"/>
      <point x="119" y="519" type="line"/>
      <point x="280" y="335" type="line"/>
      <point x="70" y="148" type="line"/>
      <point x="93" y="122" type="line"/>
      <point x="303" y="309" type="line"/>
      <point x="467" y="123" type="line"/>
      <point x="496" y="149" type="line"/>
    </contour>
  </outline>
</glyph>
<glyph name="Oslash" format="1">
  <advance width="823"/>
  <unicode hex="00D8"/>
  <note>
    Oslash
  </note>
  <outline>
    <contour>
      <point x="751" y="354" type="curve" smooth="yes"/>
      <point x="764" y="460"/>
      <point x="746" y="557"/>
      <point x="679" y="629" type="curve"/>
      <point x="775" y="740" type="line"/>
      <point x="747" y="740" type="line" smooth="yes"/>
      <point x="735" y="740"/>
      <point x="730" y="735"/>
      <point x="720" y="725" type="curve"/>
      <point x="656" y="650" type="line"/>
      <point x="602" y="695"/>
      <point x="532" y="716"/>
      <point x="458" y="716" type="curve" smooth="yes"/>
      <point x="253" y="716"/>
      <point x="103" y="563"/>
      <point x="76" y="354" type="curve" smooth="yes"/>
      <point x="64" y="248"/>
      <point x="82" y="145"/>
      <point x="155" y="72" type="curve"/>
      <point x="48" y="-52" type="line"/>
      <point x="70" y="-52" type="line" smooth="yes"/>
      <point x="84" y="-52"/>
      <point x="93" y="-47"/>
      <point x="102" y="-36" type="curve" smooth="yes"/>
      <point x="179" y="52" type="line"/>
      <point x="232" y="12"/>
      <point x="300" y="-8"/>
      <point x="369" y="-8" type="curve" smooth="yes"/>
      <point x="574" y="-8"/>
      <point x="725" y="141"/>
    </contour>
    <contour>
      <point x="129" y="354" type="curve" smooth="yes"/>
      <point x="152" y="539"/>
      <point x="273" y="672"/>
      <point x="452" y="672" type="curve" smooth="yes"/>
      <point x="514" y="672"/>
      <point x="580" y="652"/>
      <point x="623" y="613" type="curve"/>
      <point x="189" y="110" type="line"/>
      <point x="134" y="170"/>
      <point x="116" y="259"/>
    </contour>
    <contour>
      <point x="698" y="354" type="curve" smooth="yes"/>
      <point x="677" y="174"/>
      <point x="558" y="37"/>
      <point x="374" y="37" type="curve" smooth="yes"/>
      <point x="315" y="37"/>
      <point x="259" y="50"/>
      <point x="211" y="89" type="curve"/>
      <point x="645" y="590" type="line"/>
      <point x="696" y="530"/>
      <point x="708" y="442"/>
    </contour>
  </outline>
</glyph>
<glyph name="Thorn" format="1">
  <advance width="571"/>
  <unicode hex="00DE"/>
  <note>
    Thorn
  </note>
  <outline>
    <contour>
      <point x="109" y="0" type="line"/>
      <point x="127" y="143" type="line"/>
      <point x="258" y="143" type="line" smooth="yes"/>
      <point x="401" y="143"/>
      <point x="518" y="222"/>
      <point x="535" y="356" type="curve" smooth="yes"/>
      <point x="552" y="500"/>
      <point x="463" y="566"/>
      <point x="310" y="566" type="curve" smooth="yes"/>
      <point x="178" y="566" type="line"/>
      <point x="196" y="708" type="line"/>
      <point x="145" y="708" type="line"/>
      <point x="58" y="0" type="line"/>
    </contour>
    <contour>
      <point x="263" y="184" type="curve" smooth="yes"/>
      <point x="132" y="184" type="line"/>
      <point x="173" y="524" type="line"/>
      <point x="305" y="524" type="line" smooth="yes"/>
      <point x="427" y="524"/>
      <point x="499" y="473"/>
      <point x="484" y="356" type="curve" smooth="yes"/>
      <point x="472" y="251"/>
      <point x="381" y="184"/>
    </contour>
  </outline>
</glyph>
<glyph name="germandbls" format="1">
  <advance width="551"/>
  <unicode hex="00DF"/>
  <note>
    germandbls
  </note>
  <outline>
    <contour>
      <point x="339" y="716" type="curve" smooth="yes"/>
      <point x="205" y="716"/>
      <point x="107" y="628"/>
      <point x="92" y="500" type="curve" smooth="yes"/>
      <point x="31" y="0" type="line"/>
      <point x="78" y="0" type="line"/>
      <point x="139" y="500" type="line" smooth="yes"/>
      <point x="152" y="606"/>
      <point x="220" y="680"/>
      <point x="334" y="680" type="curve" smooth="yes"/>
      <point x="405" y="680"/>
      <point x="460" y="641"/>
      <point x="454" y="576" type="curve" smooth="yes"/>
      <point x="448" y="524"/>
      <point x="411" y="493"/>
      <point x="358" y="458" type="curve" smooth="yes"/>
      <point x="309" y="424"/>
      <point x="269" y="399"/>
      <point x="263" y="352" type="curve" smooth="yes"/>
      <point x="256" y="302"/>
      <point x="289" y="272"/>
      <point x="350" y="249" type="curve" smooth="yes"/>
      <point x="408" y="227"/>
      <point x="443" y="195"/>
      <point x="435" y="140" type="curve" smooth="yes"/>
      <point x="426" y="71"/>
      <point x="369" y="27"/>
      <point x="298" y="27" type="curve" smooth="yes"/>
      <point x="249" y="27"/>
      <point x="224" y="40"/>
      <point x="188" y="70" type="curve" smooth="yes"/>
      <point x="179" y="78"/>
      <point x="168" y="81"/>
      <point x="158" y="70" type="curve"/>
      <point x="144" y="53" type="line"/>
      <point x="186" y="11"/>
      <point x="231" y="-8"/>
      <point x="290" y="-8" type="curve" smooth="yes"/>
      <point x="390" y="-8"/>
      <point x="468" y="51"/>
      <point x="480" y="147" type="curve" smooth="yes"/>
      <point x="489" y="234"/>
      <point x="449" y="251"/>
      <point x="366" y="292" type="curve" smooth="yes"/>
      <point x="334" y="307"/>
      <point x="310" y="323"/>
      <point x="313" y="360" type="curve"/>
      <point x="319" y="395"/>
      <point x="358" y="422"/>
      <point x="404" y="449" type="curve" smooth="yes"/>
      <point x="450" y="477"/>
      <point x="492" y="521"/>
      <point x="499" y="576" type="curve" smooth="yes"/>
      <point x="509" y="658"/>
      <point x="435" y="716"/>
    </contour>
  </outline>
</glyph>
